<?xml version='1.0' encoding='ASCII'?>
<svg version="1.1" xmlns="http://www.w3.org/2000/svg" width="423.76285291944714" height="423.76285291944714">
  <path d="M355.392144555253 216.78896512795833 L 368.4053713533841 217.23396961652782 L 368.4598106572685 217.2367906077507 L 368.62288379069673 217.2490810772544 L 368.8940533262264 217.2765692358523 L 369.27255539341377 217.32495953509664 L 369.7574006108813 217.39992471218727 L 370.34737528033395 217.50709786890508 L 371.04104284134064 217.65206459284883 L 371.83674558544413 217.84035512921488 L 372.7326066279102 218.07743661131187 L 373.72653213517214 218.36870535794682 L 374.816213805781 218.71947924575795 L 375.99913160242 219.13499016449794 L 377.2725567323007 219.62037656319475 L 378.63355487301055 220.18067609503268 L 380.0789896406443 220.82081836870276 L 381.6055262968112 221.54561781387355 L 383.20963569088013 222.35976666832664 L 384.887598433585 223.2678280941865 L 386.6355092978961 224.27422943055564 L 388.44928184282657 225.38325558973662"/>
  <path d="M355.392144555253 206.9738877914888 L 368.4053713533841 206.52888330291933 L 368.4598106572685 206.52606231169645 L 368.62288379069673 206.51377184219274 L 368.8940533262264 206.48628368359485 L 369.27255539341377 206.4378933843505 L 369.7574006108813 206.36292820725987 L 370.34737528033395 206.25575505054206 L 371.04104284134064 206.1107883265983 L 371.83674558544413 205.92249779023226 L 372.7326066279102 205.68541630813527 L 373.72653213517214 205.39414756150032 L 374.816213805781 205.0433736736892 L 375.99913160242 204.6278627549492 L 377.2725567323007 204.1424763562524 L 378.63355487301055 203.58217682441446 L 380.0789896406443 202.94203455074438 L 381.6055262968112 202.2172351055736 L 383.20963569088013 201.4030862511205 L 384.887598433585 200.49502482526063 L 386.6355092978961 199.4886234888915 L 388.44928184282657 198.37959732971052"/>
  <path d="M355.392144555253 216.78896512795833 A 143.59460346431806 143.59460346431806, 0, 0, 0, 355.392144555253 206.9738877914888"/>
  <path d="M388.44928184282657 198.37959732971052 A 177.08333333333331 177.08333333333331, 0, 0, 0, 387.6906562046182 190.6771419645732"/>
  <path d="M351.67721304882383 244.69222035456056 L 364.35357827400605 247.66742881317916 L 364.4064211938452 247.68081618117185 L 364.5639631710876 247.72468448286304 L 364.8245595863164 247.8045470162087 L 365.1863483633539 247.92584959959316 L 365.64725243538135 248.0939629514302 L 366.2049824613358 248.31417515423828 L 366.8570397898085 248.5916842110795 L 367.6007196674294 248.93159070216285 L 368.43311468848043 249.33889054931615 L 369.3511184822461 249.818467895929 L 370.3514296343765 250.37508810985813 L 371.43055583830886 251.01339091667 L 372.5848182725674 251.73788367047166 L 373.81035619954 252.55293476944956 L 375.1031317811118 253.46276722309997 L 376.45893510632084 254.47145237798895 L 377.87338942599587 255.58290380873171 L 379.34195658912444 256.8008713807224 L 380.8599426755079 258.1289354909853 L 382.42250381905626 259.5705014933466"/>
  <path d="M353.5920396470089 235.06573697693187 L 366.4420370101384 237.1680377313459 L 366.4959806261496 237.17589152600348 L 366.6583181066985 237.19565120453768 L 366.9296398693523 237.2215937752069 L 367.31030960451386 237.24797537216512 L 367.8004636376185 237.26903923953554 L 368.4000105548841 237.27902373321726 L 369.10863109306837 237.27217033207387 L 369.92577829343384 237.24273165014307 L 370.85067791985756 237.18497944150258 L 371.8823291407717 237.0932125894333 L 373.01950547435797 236.96176507153245 L 374.2607559961667 236.7850138924504 L 375.60440680807324 236.55738697595245 L 377.04856276722944 236.27337100804345 L 378.59110947341406 235.92751922293496 L 380.22971551293404 235.51445912368803 L 381.9618349569777 235.0289001294213 L 383.78471011206915 234.46564114104132 L 385.69537452003203 233.81957801752628 L 387.6906562046182 233.08571095487395"/>
  <path d="M353.5920396470089 188.69711594251527 A 143.59460346431806 143.59460346431806, 0, 0, 0, 351.67721304882383 179.07063256488658"/>
  <path d="M382.42250381905626 164.19235142610052 A 177.08333333333331 177.08333333333331, 0, 0, 0, 380.1757804622656 156.78589710105865"/>
  <path d="M342.59000786215586 271.33457517228936 L 354.44236590777297 276.72565200840853 L 354.49158171979207 276.7490912841268 L 354.6375382910138 276.82285158377306 L 354.8775470118486 276.95201941949745 L 355.20871915892826 277.1415726967699 L 355.62796980050564 277.3963737215213 L 356.1320219308429 277.72116233896213 L 356.7174108293264 278.1205492112753 L 357.3804886398283 278.5990092412453 L 358.11742916561786 279.1608751487453 L 358.9242328749151 279.8103312068557 L 359.7967321119717 280.55140714423777 L 360.73059650836126 281.38797222022015 L 361.7213385889669 282.3237294788982 L 362.7643195669584 283.3622101883683 L 363.85475532186535 284.50676847104523 L 364.9877225546719 285.76057613082713 L 366.158165113683 287.12661768268526 L 367.36090048473824 288.60768559005925 L 368.59062643919077 290.2063757152455 L 369.84192783290496 291.9250829877559"/>
  <path d="M346.3460753462048 262.26662611110976 L 358.5390250820292 266.835441869499 L 358.590399987256 266.85366863311276 L 358.7457632765879 266.9047191063202 L 359.006810523186 266.98309544781455 L 359.3750190018815 267.0832351109991 L 359.8516455060127 267.1995185502203 L 360.43772441929036 267.3262769958087 L 361.13406604476893 267.4578002898282 L 361.94125519274763 267.58834477436983 L 362.8596500291753 267.7121412241761 L 363.8893811858785 267.8234028153341 L 365.0303511336783 267.91633312173985 L 366.282233819205 267.9851341310046 L 367.64447456596395 268.02401427145196 L 369.116290239948 268.0271964418406 L 370.69666967983505 267.9889260354395 L 372.3843743915502 267.90347895008375 L 374.1779395067178 267.7651695758484 L 376.07567500426575 267.5683587519925 L 378.0756671941954 267.30746168485183 L 380.1757804622656 266.9769558183885"/>
  <path d="M346.3460753462048 161.49622680833738 A 143.59460346431806 143.59460346431806, 0, 0, 0, 342.59000786215586 152.42827774715778"/>
  <path d="M369.84192783290496 131.8377699316912 A 177.08333333333331 177.08333333333331, 0, 0, 0, 366.1934470761563 125.01194253286877"/>
  <path d="M328.47974519440936 295.6921788267042 L 339.05261658764726 303.2919479808626 L 339.09631395579095 303.3245384060855 L 339.22507609181343 303.4253561367367 L 339.435273717711 303.59886542735103 L 339.7231024749439 303.84938497236857 L 340.0845881190338 304.1810818095472 L 340.5155919130608 304.5979653971961 L 341.0118162144763 305.103881871457 L 341.56881024945983 305.70250848968544 L 342.1819760688628 306.3973482658048 L 342.8465746796042 307.19172480331883 L 343.55773234521007 308.0887773314804 L 344.3104470490208 309.09145594991435 L 345.09959511343044 310.20251708679655 L 345.919937968367 311.42451917548055 L 346.76612906207146 312.7598185542564 L 347.63272090709415 314.2105655937093 L 348.51417225429043 315.77870105592973 L 349.4048553874643 317.46595268959913 L 350.2990635311946 319.2738320647535 L 351.19101836425193 321.20363165079266"/>
  <path d="M333.9327099973372 287.5312402790304 L 345.00004388539367 294.3909940140213 L 345.0468757710395 294.41889330228736 L 345.18929434507413 294.499272729112 L 345.4300351763268 294.6270708825818 L 345.77163235321376 294.79712030089553 L 346.2164148391129 295.0041546046107 L 346.7665030644422 295.2428157461288 L 347.42380575906077 295.5076613688811 L 348.19001702837284 295.7931722685645 L 349.06661367628226 296.0937599486773 L 350.0548527779023 296.4037742625105 L 351.15576950468505 296.71751113366366 L 352.37017520438883 297.02922034707325 L 353.69865573805555 297.3331134024727 L 355.1415700759201 297.6233714221355 L 356.6990491539217 297.8941531046975 L 358.37099499223643 298.1396027168039 L 360.15708007699493 298.353858114287 L 362.056747006091 298.5310587845432 L 364.0692083997369 298.66535390175443 L 366.1934470761563 298.75091038657837"/>
  <path d="M333.9327099973372 136.23161264041676 A 143.59460346431806 143.59460346431806, 0, 0, 0, 328.47974519440936 128.07067409274293"/>
  <path d="M351.19101836425193 102.55922126865445 A 177.08333333333331 177.08333333333331, 0, 0, 0, 346.28098927693566 96.57633351502008"/>
  <path d="M309.8886745267794 316.8289822692674 L 318.7757497493305 326.3453888748703 L 318.8122494082469 326.3858780178334 L 318.91886885239325 326.5098788106399 L 319.0911776064706 326.721061691411 L 319.32460187613253 327.02292017855166 L 319.6144308321561 327.4187659047225 L 319.95582305577807 327.9117238600971 L 320.3438131385079 328.50472784992104 L 320.7733184295746 329.20051617118304 L 321.23914592401866 330.0016275129962 L 321.7359992843046 330.9103970850687 L 322.2584859881924 331.9289529784253 L 322.801124595484 333.0592127623131 L 323.3583521261417 334.3028803209993 L 323.92453154216173 335.6614429339358 L 324.493959325482 337.1361686025287 L 325.060873144107 338.7281036265147 L 325.61945959853915 340.43807043270493 L 326.16386204052475 342.2666656586094 L 326.6881884560469 344.21425849321514 L 327.18651940442703 346.28098927693566"/>
  <path d="M316.8289822692674 309.8886745267794 L 326.34538887487037 318.7757497493305 L 326.3858780178334 318.8122494082469 L 326.50987881064 318.91886885239325 L 326.721061691411 319.0911776064706 L 327.02292017855166 319.32460187613253 L 327.4187659047225 319.6144308321561 L 327.9117238600971 319.95582305577807 L 328.50472784992104 320.3438131385079 L 329.2005161711831 320.7733184295746 L 330.0016275129962 321.23914592401866 L 330.9103970850687 321.73599928430457 L 331.92895297842534 322.2584859881923 L 333.0592127623131 322.801124595484 L 334.30288032099935 323.3583521261417 L 335.66144293393586 323.92453154216173 L 337.1361686025287 324.493959325482 L 338.7281036265147 325.06087314410695 L 340.43807043270493 325.6194595985391 L 342.2666656586094 326.1638620405247 L 344.21425849321514 326.6881884560469 L 346.28098927693566 327.18651940442703"/>
  <path d="M316.8289822692674 113.87417839266773 A 143.59460346431806 143.59460346431806, 0, 0, 0, 309.8886745267794 106.93387065017974"/>
  <path d="M327.18651940442703 77.48186364251151 A 177.08333333333331 177.08333333333331, 0, 0, 0, 321.20363165079266 72.57183455519524"/>
  <path d="M287.5312402790304 333.93270999733716 L 294.3909940140213 345.00004388539367 L 294.4188933022873 345.0468757710395 L 294.499272729112 345.18929434507413 L 294.6270708825818 345.4300351763268 L 294.79712030089553 345.77163235321376 L 295.0041546046107 346.2164148391129 L 295.2428157461288 346.7665030644422 L 295.50766136888114 347.42380575906077 L 295.7931722685645 348.19001702837284 L 296.0937599486773 349.06661367628226 L 296.4037742625105 350.0548527779023 L 296.71751113366366 351.15576950468505 L 297.02922034707325 352.37017520438883 L 297.3331134024727 353.69865573805555 L 297.62337142213556 355.1415700759201 L 297.8941531046975 356.6990491539217 L 298.1396027168039 358.37099499223643 L 298.35385811428705 360.15708007699493 L 298.53105878454323 362.056747006091 L 298.66535390175443 364.0692083997369 L 298.75091038657837 366.1934470761563"/>
  <path d="M295.6921788267042 328.47974519440936 L 303.2919479808626 339.05261658764726 L 303.3245384060855 339.09631395579095 L 303.4253561367367 339.22507609181343 L 303.59886542735103 339.43527371771097 L 303.84938497236857 339.7231024749439 L 304.1810818095472 340.0845881190338 L 304.5979653971961 340.5155919130608 L 305.103881871457 341.0118162144763 L 305.70250848968544 341.56881024945983 L 306.3973482658048 342.1819760688628 L 307.19172480331883 342.8465746796042 L 308.0887773314804 343.55773234521007 L 309.09145594991435 344.3104470490208 L 310.20251708679655 345.09959511343044 L 311.42451917548055 345.919937968367 L 312.7598185542564 346.76612906207146 L 314.2105655937093 347.63272090709415 L 315.77870105592973 348.5141722542904 L 317.46595268959913 349.4048553874643 L 319.2738320647535 350.2990635311945 L 321.20363165079266 351.19101836425193"/>
  <path d="M295.6921788267042 95.28310772503775 A 143.59460346431806 143.59460346431806, 0, 0, 0, 287.5312402790304 89.83014292210996"/>
  <path d="M298.7509103865784 57.569405843290866 A 177.08333333333331 177.08333333333331, 0, 0, 0, 291.92508298775596 53.92092508654224"/>
  <path d="M262.26662611110976 346.3460753462048 L 266.835441869499 358.5390250820292 L 266.8536686331128 358.590399987256 L 266.9047191063202 358.7457632765879 L 266.98309544781455 359.006810523186 L 267.0832351109991 359.3750190018815 L 267.1995185502203 359.8516455060127 L 267.3262769958087 360.43772441929036 L 267.45780028982824 361.13406604476893 L 267.5883447743699 361.94125519274763 L 267.7121412241761 362.8596500291753 L 267.8234028153341 363.8893811858785 L 267.91633312173985 365.0303511336783 L 267.9851341310046 366.282233819205 L 268.02401427145196 367.64447456596395 L 268.0271964418406 369.116290239948 L 267.9889260354395 370.69666967983505 L 267.90347895008375 372.3843743915502 L 267.7651695758484 374.17793950671773 L 267.5683587519925 376.07567500426575 L 267.3074616848519 378.0756671941954 L 266.9769558183885 380.1757804622656"/>
  <path d="M271.33457517228936 342.59000786215586 L 276.72565200840853 354.44236590777297 L 276.74909128412685 354.49158171979207 L 276.8228515837731 354.6375382910138 L 276.95201941949745 354.8775470118486 L 277.1415726967699 355.20871915892826 L 277.3963737215213 355.6279698005056 L 277.72116233896213 356.1320219308428 L 278.1205492112753 356.7174108293264 L 278.59900924124537 357.3804886398283 L 279.1608751487453 358.11742916561786 L 279.8103312068557 358.9242328749151 L 280.55140714423777 359.7967321119717 L 281.38797222022015 360.73059650836126 L 282.3237294788982 361.7213385889669 L 283.3622101883683 362.7643195669584 L 284.50676847104523 363.85475532186535 L 285.76057613082713 364.9877225546719 L 287.12661768268526 366.158165113683 L 288.60768559005925 367.36090048473824 L 290.2063757152455 368.59062643919077 L 291.92508298775596 369.8419278329049"/>
  <path d="M271.33457517228936 81.17284505729128 A 143.59460346431806 143.59460346431806, 0, 0, 0, 262.26662611110976 77.41677757324231"/>
  <path d="M266.9769558183885 43.58707245718156 A 177.08333333333331 177.08333333333331, 0, 0, 0, 259.5705014933466 41.34034910039085"/>
  <path d="M235.06573697693187 353.59203964700885 L 237.1680377313459 366.4420370101384 L 237.17589152600348 366.4959806261496 L 237.19565120453768 366.6583181066985 L 237.2215937752069 366.9296398693523 L 237.24797537216512 367.31030960451386 L 237.26903923953554 367.8004636376185 L 237.27902373321723 368.4000105548841 L 237.27217033207387 369.10863109306837 L 237.24273165014307 369.92577829343384 L 237.18497944150258 370.85067791985756 L 237.0932125894333 371.8823291407717 L 236.96176507153248 373.01950547435797 L 236.7850138924504 374.2607559961667 L 236.55738697595248 375.60440680807324 L 236.27337100804345 377.04856276722944 L 235.92751922293496 378.59110947341406 L 235.51445912368806 380.22971551293404 L 235.02890012942132 381.96183495697767 L 234.46564114104135 383.78471011206915 L 233.8195780175263 385.69537452003203 L 233.08571095487395 387.6906562046182"/>
  <path d="M244.69222035456056 351.67721304882383 L 247.66742881317916 364.35357827400605 L 247.68081618117188 364.4064211938452 L 247.72468448286304 364.5639631710876 L 247.8045470162087 364.8245595863164 L 247.9258495995932 365.1863483633539 L 248.09396295143023 365.64725243538135 L 248.31417515423828 366.2049824613358 L 248.5916842110795 366.8570397898085 L 248.93159070216285 367.6007196674294 L 249.33889054931615 368.43311468848043 L 249.818467895929 369.3511184822461 L 250.37508810985813 370.3514296343765 L 251.01339091667003 371.43055583830886 L 251.73788367047166 372.5848182725674 L 252.55293476944956 373.81035619954 L 253.4627672231 375.1031317811118 L 254.47145237798895 376.45893510632084 L 255.58290380873171 377.87338942599587 L 256.8008713807224 379.34195658912444 L 258.1289354909853 380.8599426755079 L 259.5705014933467 382.42250381905626"/>
  <path d="M244.69222035456056 72.08563987062331 A 143.59460346431806 143.59460346431806, 0, 0, 0, 235.06573697693187 70.17081327243827"/>
  <path d="M233.085710954874 36.07219671482889 A 177.08333333333331 177.08333333333331, 0, 0, 0, 225.38325558973662 35.313571076620576"/>
  <path d="M206.9738877914888 355.392144555253 L 206.52888330291935 368.4053713533841 L 206.52606231169645 368.4598106572685 L 206.51377184219274 368.62288379069673 L 206.48628368359485 368.8940533262264 L 206.4378933843505 369.27255539341377 L 206.36292820725987 369.7574006108813 L 206.25575505054206 370.34737528033395 L 206.11078832659834 371.04104284134064 L 205.92249779023226 371.83674558544413 L 205.6854163081353 372.7326066279102 L 205.39414756150035 373.72653213517214 L 205.0433736736892 374.816213805781 L 204.6278627549492 375.99913160242 L 204.1424763562524 377.2725567323007 L 203.5821768244145 378.63355487301055 L 202.9420345507444 380.0789896406443 L 202.2172351055736 381.6055262968112 L 201.40308625112053 383.20963569088013 L 200.49502482526063 384.887598433585 L 199.48862348889153 386.6355092978961 L 198.37959732971052 388.44928184282657"/>
  <path d="M216.78896512795836 355.392144555253 L 217.23396961652782 368.4053713533841 L 217.23679060775072 368.4598106572685 L 217.24908107725443 368.62288379069673 L 217.27656923585232 368.8940533262264 L 217.32495953509664 369.27255539341377 L 217.39992471218727 369.7574006108813 L 217.50709786890508 370.34737528033395 L 217.65206459284883 371.04104284134064 L 217.8403551292149 371.83674558544413 L 218.07743661131187 372.7326066279102 L 218.36870535794682 373.72653213517214 L 218.71947924575795 374.816213805781 L 219.13499016449794 375.99913160242 L 219.62037656319475 377.2725567323007 L 220.18067609503268 378.63355487301055 L 220.82081836870276 380.0789896406443 L 221.54561781387355 381.6055262968112 L 222.35976666832664 383.20963569088013 L 223.2678280941865 384.887598433585 L 224.27422943055564 386.6355092978961 L 225.38325558973662 388.44928184282657"/>
  <path d="M216.78896512795836 68.37070836419414 A 143.59460346431806 143.59460346431806, 0, 0, 0, 206.9738877914888 68.37070836419414"/>
  <path d="M198.37959732971052 35.313571076620576 A 177.08333333333331 177.08333333333331, 0, 0, 0, 190.67714196457317 36.07219671482889"/>
  <path d="M179.07063256488658 351.67721304882383 L 176.095424106268 364.35357827400605 L 176.0820367382753 364.4064211938452 L 176.0381684365841 364.5639631710876 L 175.95830590323845 364.8245595863164 L 175.83700331985398 365.1863483633539 L 175.66888996801694 365.64725243538135 L 175.44867776520886 366.2049824613358 L 175.17116870836765 366.8570397898085 L 174.8312622172843 367.6007196674294 L 174.423962370131 368.43311468848043 L 173.94438502351818 369.3511184822461 L 173.38776480958904 370.3514296343765 L 172.74946200277714 371.43055583830886 L 172.0249692489755 372.5848182725674 L 171.2099181499976 373.81035619954 L 170.30008569634717 375.1031317811118 L 169.2914005414582 376.45893510632084 L 168.17994911071546 377.87338942599587 L 166.96198153872473 379.3419565891245 L 165.63391742846187 380.8599426755079 L 164.1923514261005 382.42250381905626"/>
  <path d="M188.69711594251527 353.5920396470089 L 186.59481518810128 366.4420370101384 L 186.5869613934437 366.4959806261496 L 186.5672017149095 366.6583181066985 L 186.54125914424026 366.9296398693523 L 186.51487754728203 367.31030960451386 L 186.49381367991163 367.8004636376185 L 186.4838291862299 368.4000105548841 L 186.49068258737327 369.10863109306837 L 186.5201212693041 369.92577829343384 L 186.57787347794456 370.85067791985756 L 186.66964033001383 371.8823291407717 L 186.8010878479147 373.01950547435797 L 186.97783902699678 374.2607559961667 L 187.2054659434947 375.60440680807324 L 187.4894819114037 377.04856276722944 L 187.8353336965122 378.59110947341406 L 188.2483937957591 380.22971551293404 L 188.73395279002585 381.9618349569777 L 189.29721177840582 383.78471011206915 L 189.94327490192086 385.69537452003203 L 190.67714196457322 387.6906562046182"/>
  <path d="M188.69711594251527 70.17081327243824 A 143.59460346431806 143.59460346431806, 0, 0, 0, 179.07063256488658 72.08563987062331"/>
  <path d="M164.19235142610052 41.34034910039085 A 177.08333333333331 177.08333333333331, 0, 0, 0, 156.78589710105868 43.58707245718156"/>
  <path d="M152.42827774715778 342.59000786215586 L 147.0372009110386 354.44236590777297 L 147.01376163532035 354.49158171979207 L 146.94000133567408 354.6375382910138 L 146.8108334999497 354.8775470118486 L 146.62128022267723 355.20871915892826 L 146.36647919792586 355.62796980050564 L 146.041690580485 356.1320219308429 L 145.64230370817185 356.7174108293264 L 145.1638436782018 357.3804886398283 L 144.60197777070192 358.11742916561786 L 143.9525217125914 358.9242328749151 L 143.21144577520937 359.7967321119717 L 142.374880699227 360.73059650836126 L 141.43912344054888 361.7213385889669 L 140.40064273107888 362.7643195669584 L 139.25608444840194 363.85475532186535 L 138.00227678862 364.9877225546719 L 136.63623523676188 366.158165113683 L 135.1551673293879 367.36090048473824 L 133.55647720420166 368.59062643919077 L 131.83776993169118 369.8419278329049"/>
  <path d="M161.49622680833738 346.3460753462048 L 156.92741104994818 358.5390250820292 L 156.90918428633438 358.590399987256 L 156.85813381312695 358.7457632765879 L 156.77975747163265 359.006810523186 L 156.67961780844803 359.3750190018816 L 156.56333436922688 359.8516455060127 L 156.43657592363846 360.43772441929036 L 156.30505262961896 361.13406604476893 L 156.17450814507728 361.94125519274763 L 156.05071169527105 362.8596500291753 L 155.93945010411306 363.8893811858785 L 155.8465197977073 365.0303511336783 L 155.77771878844254 366.28223381920503 L 155.7388386479952 367.64447456596395 L 155.73565647760654 369.116290239948 L 155.77392688400766 370.69666967983505 L 155.8593739693634 372.3843743915502 L 155.99768334359874 374.1779395067178 L 156.19449416745465 376.07567500426575 L 156.4553912345953 378.0756671941954 L 156.78589710105868 380.1757804622656"/>
  <path d="M161.49622680833738 77.41677757324231 A 143.59460346431806 143.59460346431806, 0, 0, 0, 152.42827774715778 81.17284505729125"/>
  <path d="M131.83776993169118 53.92092508654224 A 177.08333333333331 177.08333333333331, 0, 0, 0, 125.01194253286877 57.569405843290866"/>
  <path d="M128.07067409274293 328.47974519440936 L 120.47090493858454 339.05261658764726 L 120.43831451336173 339.096313955791 L 120.33749678271046 339.22507609181343 L 120.16398749209615 339.4352737177111 L 119.91346794707859 339.72310247494397 L 119.58177110989999 340.08458811903387 L 119.16488752225108 340.51559191306086 L 118.65897104799018 341.0118162144763 L 118.06034442976173 341.5688102494599 L 117.3655046536424 342.18197606886287 L 116.5711281161283 342.84657467960426 L 115.6740755879668 343.55773234521007 L 114.67139696953284 344.3104470490208 L 113.56033583265062 345.0995951134305 L 112.33833374396663 345.91993796836704 L 111.00303436519081 346.76612906207146 L 109.55228732573791 347.6327209070942 L 107.98415186351743 348.51417225429043 L 106.29690022984803 349.4048553874643 L 104.48902085469366 350.2990635311946 L 102.5592212686545 351.19101836425193"/>
  <path d="M136.2316126404168 333.9327099973372 L 129.37185890542594 345.00004388539367 L 129.34395961715984 345.0468757710395 L 129.26358019033512 345.18929434507413 L 129.13578203686538 345.4300351763268 L 128.96573261855164 345.7716323532138 L 128.75869831483647 346.2164148391129 L 128.52003717331837 346.7665030644422 L 128.25519155056608 347.42380575906077 L 127.96968065088268 348.19001702837284 L 127.6690929707699 349.06661367628226 L 127.35907865693669 350.05485277790234 L 127.04534178578355 351.15576950468505 L 126.73363257237395 352.37017520438883 L 126.42973951697452 353.6986557380556 L 126.13948149731164 355.1415700759201 L 125.86869981474966 356.6990491539217 L 125.62325020264329 358.3709949922365 L 125.40899480516019 360.157080076995 L 125.23179413490399 362.05674700609103 L 125.09749901769283 364.06920839973697 L 125.01194253286884 366.1934470761563"/>
  <path d="M136.2316126404168 89.83014292210991 A 143.59460346431806 143.59460346431806, 0, 0, 0, 128.07067409274293 95.28310772503775"/>
  <path d="M102.5592212686545 72.57183455519521 A 177.08333333333331 177.08333333333331, 0, 0, 0, 96.57633351502011 77.48186364251148"/>
  <path d="M106.93387065017973 309.88867452677937 L 97.41746404457679 318.7757497493305 L 97.37697490161372 318.8122494082469 L 97.25297410880721 318.91886885239325 L 97.0417912280361 319.09117760647064 L 96.7399327408955 319.32460187613253 L 96.34408701472469 319.61443083215613 L 95.85112905935007 319.95582305577807 L 95.2581250695261 320.3438131385079 L 94.56233674826407 320.7733184295746 L 93.76122540645095 321.23914592401866 L 92.85245583437842 321.73599928430457 L 91.83389994102181 322.2584859881923 L 90.70364015713405 322.801124595484 L 89.45997259844779 323.3583521261417 L 88.10140998551135 323.92453154216173 L 86.62668431691847 324.493959325482 L 85.03474929293245 325.060873144107 L 83.32478248674221 325.6194595985391 L 81.49618726083776 326.16386204052475 L 79.54859442623197 326.6881884560469 L 77.48186364251151 327.18651940442703"/>
  <path d="M113.87417839266776 316.82898226926744 L 104.98710317011668 326.34538887487037 L 104.95060351120028 326.3858780178334 L 104.8439840670539 326.50987881064 L 104.67167531297655 326.721061691411 L 104.43825104331461 327.02292017855166 L 104.14842208729105 327.4187659047225 L 103.80702986366907 327.9117238600971 L 103.4190397809392 328.5047278499211 L 102.98953448987255 329.2005161711831 L 102.52370699542848 330.0016275129962 L 102.02685363514257 330.9103970850687 L 101.50436693125482 331.92895297842534 L 100.96172832396319 333.0592127623131 L 100.40450079330544 334.30288032099935 L 99.83832137728544 335.66144293393586 L 99.26889359396512 337.1361686025287 L 98.70197977534015 338.7281036265147 L 98.14339332090806 340.438070432705 L 97.59899087892244 342.2666656586094 L 97.0746644634003 344.2142584932152 L 96.57633351502011 346.28098927693566"/>
  <path d="M113.87417839266776 106.93387065017971 A 143.59460346431806 143.59460346431806, 0, 0, 0, 106.93387065017973 113.87417839266774"/>
  <path d="M77.48186364251151 96.57633351502008 A 177.08333333333331 177.08333333333331, 0, 0, 0, 72.57183455519524 102.55922126865445"/>
  <path d="M89.83014292210993 287.5312402790303 L 78.76280903405345 294.3909940140212 L 78.71597714840766 294.41889330228736 L 78.57355857437301 294.499272729112 L 78.33281774312039 294.6270708825818 L 77.99122056623335 294.79712030089553 L 77.5464380803343 295.0041546046107 L 76.99634985500498 295.2428157461288 L 76.3390471603864 295.5076613688811 L 75.5728358910743 295.7931722685645 L 74.69623924316488 296.09375994867725 L 73.70800014154483 296.4037742625105 L 72.60708341476206 296.7175111336636 L 71.39267771505834 297.0292203470732 L 70.06419718139153 297.3331134024727 L 68.62128284352704 297.6233714221355 L 67.06380376552548 297.89415310469747 L 65.39185792721068 298.1396027168039 L 63.605772842452154 298.353858114287 L 61.70610591335614 298.5310587845432 L 59.693644519710205 298.6653539017543 L 57.56940584329084 298.7509103865783"/>
  <path d="M95.28310772503777 295.6921788267042 L 84.7102363317999 303.29194798086263 L 84.66653896365614 303.3245384060854 L 84.53777682763372 303.4253561367367 L 84.32757920173609 303.59886542735103 L 84.03975044450323 303.84938497236857 L 83.67826480041327 304.18108180954715 L 83.24726100638628 304.5979653971961 L 82.75103670497083 305.103881871457 L 82.19404266998725 305.70250848968544 L 81.5808768505843 306.39734826580474 L 80.91627823984294 307.19172480331883 L 80.20512057423704 308.0887773314804 L 79.45240587042633 309.09145594991435 L 78.6632578060167 310.20251708679655 L 77.8429149510801 311.42451917548055 L 76.99672385737568 312.75981855425636 L 76.13013201235293 314.21056559370925 L 75.24868066515677 315.77870105592973 L 74.35799753198285 317.46595268959913 L 73.4637893882526 319.2738320647535 L 72.57183455519524 321.20363165079266"/>
  <path d="M95.28310772503777 128.07067409274293 A 143.59460346431806 143.59460346431806, 0, 0, 0, 89.83014292210993 136.2316126404168"/>
  <path d="M57.56940584329084 125.0119425328688 A 177.08333333333331 177.08333333333331, 0, 0, 0, 53.92092508654221 131.83776993169124"/>
  <path d="M77.41677757324231 262.26662611110976 L 65.22382783741796 266.83544186949894 L 65.17245293219116 266.8536686331128 L 65.01708964285925 266.9047191063202 L 64.75604239626117 266.98309544781455 L 64.38783391756562 267.0832351109991 L 63.911207413434454 267.1995185502203 L 63.32512850015681 267.3262769958087 L 62.62878687467824 267.4578002898282 L 61.82159772669951 267.5883447743699 L 60.90320289027184 267.7121412241761 L 59.873471733568635 267.8234028153341 L 58.73250178576882 267.91633312173985 L 57.48061910024214 267.98513413100466 L 56.118378353483166 268.02401427145196 L 54.64656267949914 268.0271964418406 L 53.06618323961209 267.9889260354395 L 51.37847852789696 267.90347895008375 L 49.58491341272935 267.7651695758484 L 47.687177915181394 267.56835875199255 L 45.687185725251794 267.30746168485183 L 43.58707245718156 266.9769558183885"/>
  <path d="M81.17284505729131 271.3345751722894 L 69.3204870116742 276.7256520084086 L 69.27127119965505 276.7490912841268 L 69.1253146284333 276.8228515837731 L 68.88530590759851 276.95201941949745 L 68.55413376051891 277.1415726967699 L 68.13488311894153 277.3963737215213 L 67.63083098860426 277.72116233896213 L 67.04544209012073 278.1205492112754 L 66.38236427961886 278.59900924124537 L 65.6454237538293 279.1608751487453 L 64.83862004453206 279.8103312068558 L 63.96612080747545 280.5514071442378 L 63.03225641108588 281.38797222022015 L 62.041514330480254 282.32372947889826 L 60.99853335248875 283.3622101883683 L 59.908097597581815 284.50676847104523 L 58.77513036477521 285.7605761308272 L 57.604687805764115 287.12661768268526 L 56.4019524347089 288.6076855900593 L 55.17222648025637 290.2063757152455 L 53.92092508654224 291.92508298775596"/>
  <path d="M81.17284505729131 152.42827774715772 A 143.59460346431806 143.59460346431806, 0, 0, 0, 77.41677757324231 161.49622680833738"/>
  <path d="M43.58707245718156 156.78589710105865 A 177.08333333333331 177.08333333333331, 0, 0, 0, 41.34034910039085 164.19235142610052"/>
  <path d="M70.17081327243827 235.0657369769319 L 57.32081590930875 237.16803773134592 L 57.266872293297496 237.17589152600354 L 57.104534812748625 237.19565120453774 L 56.833213050094855 237.221593775207 L 56.45254331493331 237.24797537216517 L 55.96238928182862 237.26903923953563 L 55.36284236456308 237.27902373321731 L 54.65422182637877 237.2721703320739 L 53.83707462601333 237.24273165014313 L 52.91217499958958 237.18497944150263 L 51.88052377867547 237.09321258943334 L 50.7433474450892 236.96176507153248 L 49.50209692328045 236.78501389245045 L 48.15844611137388 236.55738697595248 L 46.71429015221773 236.2733710080435 L 45.17174344603308 235.92751922293502 L 43.533137406513106 235.5144591236881 L 41.801017962469444 235.02890012942134 L 39.97814280737799 234.4656411410414 L 38.06747839941511 233.81957801752634 L 36.07219671482889 233.085710954874"/>
  <path d="M72.08563987062331 244.69222035456062 L 59.40927464544109 247.66742881317924 L 59.356431725601965 247.68081618117188 L 59.198889748359505 247.7246844828631 L 58.93829333313073 247.80454701620872 L 58.57650455609328 247.92584959959322 L 58.115600484065766 248.09396295143023 L 57.55787045811135 248.31417515423828 L 56.90581312963869 248.59168421107958 L 56.162133252017725 248.9315907021629 L 55.32973823096671 249.3388905493162 L 54.41173443720109 249.81846789592907 L 53.41142328507067 250.3750881098582 L 52.33229708113831 251.01339091667006 L 51.17803464687978 251.73788367047175 L 49.95249671990709 252.5529347694496 L 48.65972113833533 253.46276722310006 L 47.303917813126304 254.471452377989 L 45.8894634934513 255.5829038087318 L 44.420896330322705 256.80087138072247 L 42.90291024393926 258.1289354909854 L 41.34034910039085 259.5705014933467"/>
  <path d="M72.08563987062331 179.07063256488652 A 143.59460346431806 143.59460346431806, 0, 0, 0, 70.17081327243827 188.69711594251524"/>
  <path d="M36.07219671482889 190.67714196457314 A 177.08333333333331 177.08333333333331, 0, 0, 0, 35.313571076620576 198.3795973297105"/>
  <path d="M68.37070836419414 206.97388779148878 L 55.357481566063 206.52888330291933 L 55.30304226217862 206.52606231169648 L 55.13996912875041 206.51377184219274 L 54.8687995932207 206.48628368359488 L 54.4902975260334 206.43789338435053 L 54.00545230856588 206.36292820725993 L 53.41547763911316 206.25575505054212 L 52.72181007810653 206.1107883265983 L 51.92610733400301 205.92249779023228 L 51.03024629153697 205.6854163081353 L 50.036320784275006 205.39414756150032 L 48.94663911366618 205.04337367368916 L 47.76372131702712 204.62786275494923 L 46.49029618714647 204.14247635625236 L 45.12929804643659 203.5821768244145 L 43.683863278802875 202.9420345507444 L 42.157326622635935 202.21723510557362 L 40.55321722856701 201.4030862511205 L 38.87525448586209 200.49502482526066 L 37.12734362155106 199.4886234888915 L 35.313571076620576 198.37959732971055"/>
  <path d="M68.37070836419414 216.7889651279584 L 55.357481566063 217.23396961652787 L 55.30304226217862 217.2367906077507 L 55.13996912875041 217.24908107725443 L 54.8687995932207 217.2765692358523 L 54.4902975260334 217.32495953509667 L 54.00545230856588 217.39992471218724 L 53.41547763911316 217.50709786890508 L 52.72181007810653 217.65206459284886 L 51.92610733400301 217.8403551292149 L 51.03024629153697 218.07743661131187 L 50.036320784275006 218.36870535794685 L 48.94663911366618 218.719479245758 L 47.76372131702715 219.13499016449796 L 46.49029618714647 219.6203765631948 L 45.12929804643659 220.18067609503268 L 43.683863278802875 220.8208183687028 L 42.157326622635935 221.54561781387358 L 40.55321722856701 222.35976666832667 L 38.87525448586209 223.26782809418654 L 37.12734362155106 224.2742294305557 L 35.313571076620576 225.38325558973665"/>
  <path d="M68.37070836419414 206.97388779148875 A 143.59460346431806 143.59460346431806, 0, 0, 0, 68.37070836419414 216.78896512795836"/>
  <path d="M35.313571076620576 225.3832555897366 A 177.08333333333331 177.08333333333331, 0, 0, 0, 36.07219671482889 233.08571095487395"/>
  <path d="M72.08563987062331 179.07063256488655 L 59.40927464544109 176.09542410626793 L 59.35643172560194 176.0820367382753 L 59.198889748359505 176.0381684365841 L 58.9382933331307 175.95830590323845 L 58.576504556093255 175.83700331985395 L 58.115600484065766 175.66888996801694 L 57.55787045811135 175.44867776520886 L 56.90581312963869 175.1711687083676 L 56.162133252017696 174.8312622172843 L 55.32973823096671 174.423962370131 L 54.41173443720106 173.94438502351812 L 53.41142328507067 173.387764809589 L 52.33229708113828 172.7494620027771 L 51.17803464687978 172.02496924897545 L 49.95249671990709 171.20991814999758 L 48.65972113833533 170.30008569634714 L 47.303917813126276 169.29140054145816 L 45.889463493451274 168.1799491107154 L 44.420896330322705 166.96198153872473 L 42.90291024393926 165.63391742846179 L 41.34034910039085 164.19235142610046"/>
  <path d="M70.17081327243824 188.6971159425153 L 57.32081590930875 186.59481518810128 L 57.266872293297496 186.58696139344363 L 57.104534812748625 186.56720171490946 L 56.833213050094855 186.5412591442402 L 56.45254331493328 186.51487754728203 L 55.96238928182862 186.49381367991157 L 55.36284236456308 186.48382918622985 L 54.654221826378745 186.4906825873733 L 53.83707462601333 186.52012126930407 L 52.91217499958958 186.57787347794454 L 51.88052377867547 186.66964033001386 L 50.7433474450892 186.8010878479147 L 49.50209692328045 186.97783902699675 L 48.15844611137388 187.2054659434947 L 46.71429015221773 187.48948191140366 L 45.17174344603308 187.83533369651218 L 43.533137406513106 188.24839379575909 L 41.801017962469416 188.73395279002585 L 39.97814280737799 189.2972117784058 L 38.06747839941511 189.94327490192086 L 36.07219671482889 190.6771419645732"/>
  <path d="M70.17081327243824 235.06573697693184 A 143.59460346431806 143.59460346431806, 0, 0, 0, 72.08563987062331 244.6922203545606"/>
  <path d="M41.34034910039085 259.5705014933467 A 177.08333333333331 177.08333333333331, 0, 0, 0, 43.58707245718156 266.97695581838855"/>
  <path d="M81.17284505729128 152.42827774715775 L 69.32048701167417 147.0372009110386 L 69.27127119965505 147.01376163532038 L 69.1253146284333 146.94000133567408 L 68.88530590759848 146.81083349994975 L 68.55413376051888 146.62128022267726 L 68.13488311894153 146.36647919792588 L 67.63083098860423 146.04169058048504 L 67.04544209012073 145.64230370817182 L 66.38236427961886 145.16384367820183 L 65.6454237538293 144.60197777070192 L 64.83862004453204 143.95252171259142 L 63.96612080747542 143.21144577520937 L 63.03225641108588 142.374880699227 L 62.041514330480254 141.4391234405489 L 60.99853335248872 140.40064273107888 L 59.908097597581815 139.25608444840196 L 58.77513036477521 138.00227678862 L 57.60468780576409 136.63623523676188 L 56.401952434708875 135.1551673293879 L 55.17222648025637 133.55647720420166 L 53.92092508654221 131.8377699316912"/>
  <path d="M77.41677757324229 161.4962268083374 L 65.22382783741793 156.92741104994823 L 65.17245293219113 156.90918428633435 L 65.01708964285922 156.85813381312695 L 64.75604239626117 156.77975747163262 L 64.38783391756559 156.67961780844806 L 63.911207413434454 156.56333436922685 L 63.32512850015678 156.43657592363843 L 62.62878687467821 156.30505262961898 L 61.82159772669951 156.1745081450773 L 60.903202890271814 156.05071169527105 L 59.873471733568635 155.93945010411312 L 58.73250178576879 155.84651979770734 L 57.48061910024211 155.77771878844254 L 56.118378353483166 155.73883864799524 L 54.64656267949914 155.73565647760657 L 53.06618323961206 155.77392688400766 L 51.37847852789693 155.85937396936342 L 49.58491341272935 155.9976833435988 L 47.687177915181394 156.19449416745465 L 45.687185725251766 156.45539123459534 L 43.587072457181534 156.78589710105868"/>
  <path d="M77.41677757324229 262.2666261111097 A 143.59460346431806 143.59460346431806, 0, 0, 0, 81.17284505729128 271.33457517228936"/>
  <path d="M53.92092508654221 291.9250829877559 A 177.08333333333331 177.08333333333331, 0, 0, 0, 57.569405843290866 298.75091038657837"/>
  <path d="M95.28310772503774 128.07067409274293 L 84.71023633179988 120.47090493858457 L 84.66653896365611 120.43831451336173 L 84.53777682763369 120.33749678271047 L 84.32757920173609 120.16398749209618 L 84.0397504445032 119.91346794707859 L 83.67826480041327 119.58177110989999 L 83.24726100638628 119.16488752225109 L 82.75103670497077 118.65897104799018 L 82.19404266998725 118.06034442976174 L 81.58087685058427 117.3655046536424 L 80.91627823984291 116.57112811612832 L 80.20512057423701 115.6740755879668 L 79.45240587042633 114.67139696953285 L 78.66325780601667 113.56033583265062 L 77.84291495108008 112.33833374396664 L 76.99672385737566 111.00303436519081 L 76.1301320123529 109.55228732573792 L 75.24868066515671 107.98415186351743 L 74.35799753198282 106.29690022984803 L 73.46378938825256 104.48902085469368 L 72.57183455519521 102.5592212686545"/>
  <path d="M89.83014292210991 136.2316126404168 L 78.76280903405345 129.37185890542594 L 78.71597714840766 129.34395961715984 L 78.57355857437298 129.26358019033515 L 78.33281774312039 129.1357820368654 L 77.99122056623335 128.96573261855167 L 77.5464380803343 128.75869831483647 L 76.99634985500495 128.52003717331837 L 76.33904716038637 128.25519155056608 L 75.5728358910743 127.96968065088268 L 74.69623924316485 127.66909297076992 L 73.7080001415448 127.35907865693669 L 72.60708341476206 127.04534178578355 L 71.39267771505828 126.73363257237395 L 70.06419718139153 126.42973951697452 L 68.62128284352704 126.13948149731164 L 67.06380376552545 125.86869981474969 L 65.39185792721065 125.6232502026433 L 63.605772842452154 125.40899480516019 L 61.70610591335611 125.231794134904 L 59.693644519710176 125.09749901769284 L 57.56940584329081 125.01194253286884"/>
  <path d="M89.83014292210991 287.5312402790303 A 143.59460346431806 143.59460346431806, 0, 0, 0, 95.28310772503774 295.6921788267042"/>
  <path d="M72.57183455519521 321.20363165079266 A 177.08333333333331 177.08333333333331, 0, 0, 0, 77.48186364251148 327.18651940442703"/>
  <path d="M113.87417839266774 106.93387065017973 L 104.98710317011667 97.41746404457679 L 104.95060351120026 97.37697490161375 L 104.84398406705388 97.25297410880721 L 104.67167531297652 97.0417912280361 L 104.4382510433146 96.7399327408955 L 104.14842208729101 96.34408701472469 L 103.80702986366904 95.85112905935007 L 103.41903978093919 95.2581250695261 L 102.98953448987253 94.56233674826407 L 102.52370699542846 93.76122540645096 L 102.02685363514254 92.85245583437842 L 101.5043669312548 91.83389994102181 L 100.96172832396316 90.70364015713405 L 100.40450079330543 89.45997259844779 L 99.8383213772854 88.10140998551135 L 99.2688935939651 86.62668431691847 L 98.70197977534013 85.03474929293247 L 98.14339332090802 83.32478248674224 L 97.59899087892241 81.49618726083776 L 97.07466446340027 79.548594426232 L 96.57633351502002 77.48186364251157"/>
  <path d="M106.93387065017968 113.87417839266779 L 97.41746404457675 104.9871031701167 L 97.37697490161369 104.95060351120028 L 97.25297410880718 104.84398406705391 L 97.04179122803609 104.67167531297657 L 96.73993274089547 104.43825104331462 L 96.34408701472466 104.14842208729105 L 95.85112905935003 103.80702986366907 L 95.25812506952606 103.41903978093923 L 94.56233674826406 102.98953448987257 L 93.76122540645093 102.5237069954285 L 92.85245583437839 102.02685363514257 L 91.83389994102178 101.50436693125484 L 90.70364015713403 100.9617283239632 L 89.45997259844778 100.40450079330547 L 88.10140998551131 99.83832137728544 L 86.62668431691841 99.26889359396515 L 85.03474929293242 98.70197977534016 L 83.32478248674218 98.14339332090806 L 81.49618726083776 97.59899087892245 L 79.54859442623194 97.07466446340031 L 77.48186364251148 96.57633351502012"/>
  <path d="M106.93387065017968 309.88867452677937 A 143.59460346431806 143.59460346431806, 0, 0, 0, 113.87417839266774 316.8289822692674"/>
  <path d="M96.57633351502002 346.28098927693554 A 177.08333333333331 177.08333333333331, 0, 0, 0, 102.5592212686544 351.1910183642518"/>
  <path d="M136.23161264041676 89.83014292210996 L 129.37185890542585 78.7628090340535 L 129.34395961715984 78.71597714840763 L 129.26358019033506 78.57355857437307 L 129.1357820368654 78.33281774312036 L 128.9657326185516 77.99122056623335 L 128.7586983148365 77.54643808033427 L 128.52003717331831 76.99634985500498 L 128.255191550566 76.33904716038643 L 127.96968065088271 75.57283589107428 L 127.66909297076988 74.69623924316488 L 127.35907865693665 73.70800014154483 L 127.0453417857835 72.60708341476206 L 126.73363257237392 71.39267771505834 L 126.42973951697448 70.06419718139156 L 126.13948149731166 68.62128284352701 L 125.86869981474956 67.0638037655255 L 125.62325020264325 65.39185792721068 L 125.40899480516008 63.60577284245221 L 125.23179413490395 61.70610591335614 L 125.09749901769273 59.69364451971023 L 125.01194253286873 57.569405843290866"/>
  <path d="M128.07067409274296 95.28310772503771 L 120.47090493858458 84.71023633179985 L 120.43831451336165 84.6665389636562 L 120.33749678271049 84.53777682763369 L 120.16398749209607 84.32757920173614 L 119.91346794707856 84.03975044450323 L 119.5817711098999 83.67826480041333 L 119.16488752225105 83.24726100638628 L 118.65897104799019 82.75103670497077 L 118.06034442976164 82.19404266998731 L 117.36550465364236 81.5808768505843 L 116.57112811612826 80.91627823984294 L 115.67407558796675 80.20512057423704 L 114.67139696953282 79.45240587042633 L 113.56033583265058 78.6632578060167 L 112.33833374396653 77.84291495108016 L 111.00303436519083 76.99672385737563 L 109.5522873257379 76.13013201235293 L 107.98415186351744 75.24868066515671 L 106.296900229848 74.35799753198285 L 104.48902085469368 73.46378938825254 L 102.55922126865453 72.57183455519521"/>
  <path d="M128.07067409274296 328.4797451944094 A 143.59460346431806 143.59460346431806, 0, 0, 0, 136.23161264041676 333.93270999733716"/>
  <path d="M125.01194253286873 366.1934470761563 A 177.08333333333331 177.08333333333331, 0, 0, 0, 131.83776993169118 369.84192783290484"/>
  <path d="M161.49622680833727 77.41677757324234 L 156.92741104994803 65.22382783741801 L 156.9091842863343 65.17245293219116 L 156.85813381312678 65.0170896428593 L 156.77975747163256 64.7560423962612 L 156.67961780844794 64.38783391756562 L 156.5633343692268 63.911207413434454 L 156.43657592363832 63.325128500156836 L 156.3050526296188 62.6287868746783 L 156.17450814507725 61.82159772669951 L 156.05071169527093 60.90320289027187 L 155.939450104113 59.87347173356869 L 155.84651979770723 58.73250178576885 L 155.77771878844243 57.48061910024214 L 155.73883864799512 56.118378353483195 L 155.7356564776065 54.64656267949917 L 155.7739268840075 53.066183239612144 L 155.8593739693633 51.37847852789699 L 155.9976833435986 49.584913412729406 L 156.19449416745454 47.68717791518145 L 156.45539123459514 45.68718572525185 L 156.78589710105848 43.58707245718162"/>
  <path d="M152.42827774715772 81.17284505729131 L 147.03720091103855 69.3204870116742 L 147.0137616353202 69.27127119965513 L 146.94000133567403 69.1253146284333 L 146.81083349994958 68.88530590759856 L 146.62128022267714 68.55413376051894 L 146.3664791979257 68.13488311894162 L 146.04169058048495 67.63083098860429 L 145.64230370817177 67.04544209012073 L 145.16384367820166 66.38236427961894 L 144.6019777707018 65.64542375382936 L 143.9525217125913 64.83862004453206 L 143.21144577520926 63.96612080747548 L 142.3748806992269 63.03225641108594 L 141.4391234405488 62.04151433048028 L 140.4006427310787 60.998533352488835 L 139.2560844484019 59.90809759758184 L 138.0022767886199 58.775130364775265 L 136.63623523676185 57.604687805764115 L 135.15516732938778 56.40195243470893 L 133.55647720420163 55.17222648025637 L 131.83776993169118 53.92092508654227"/>
  <path d="M152.42827774715772 342.59000786215586 A 143.59460346431806 143.59460346431806, 0, 0, 0, 161.49622680833727 346.34607534620477"/>
  <path d="M156.78589710105848 380.1757804622655 A 177.08333333333331 177.08333333333331, 0, 0, 0, 164.19235142610034 382.42250381905626"/>
  <path d="M188.69711594251518 70.17081327243827 L 186.59481518810117 57.32081590930875 L 186.58696139344366 57.266872293297496 L 186.56720171490934 57.104534812748625 L 186.5412591442402 56.833213050094855 L 186.51487754728197 56.45254331493331 L 186.4938136799116 55.96238928182862 L 186.4838291862298 55.36284236456308 L 186.49068258737316 54.65422182637877 L 186.52012126930407 53.83707462601333 L 186.5778734779445 52.91217499958958 L 186.6696403300138 51.88052377867547 L 186.80108784791463 50.7433474450892 L 186.9778390269967 49.50209692328045 L 187.20546594349463 48.15844611137388 L 187.4894819114037 46.71429015221773 L 187.83533369651207 45.171743446033105 L 188.24839379575903 43.533137406513106 L 188.7339527900257 41.801017962469444 L 189.29721177840574 39.97814280737799 L 189.94327490192074 38.06747839941511 L 190.67714196457305 36.07219671482892"/>
  <path d="M179.07063256488658 72.08563987062331 L 176.09542410626796 59.40927464544106 L 176.08203673827518 59.356431725601965 L 176.0381684365841 59.198889748359505 L 175.95830590323834 58.93829333313076 L 175.8370033198539 58.57650455609328 L 175.66888996801683 58.115600484065794 L 175.44867776520883 57.55787045811135 L 175.17116870836762 56.90581312963866 L 174.83126221728418 56.16213325201775 L 174.42396237013094 55.32973823096671 L 173.94438502351807 54.41173443720109 L 173.38776480958893 53.41142328507067 L 172.74946200277705 52.33229708113831 L 172.0249692489754 51.17803464687978 L 171.20991814999746 49.952496719907145 L 170.30008569634717 48.65972113833533 L 169.29140054145813 47.303917813126304 L 168.17994911071543 45.889463493451274 L 166.96198153872467 44.420896330322705 L 165.6339174284618 42.90291024393923 L 164.1923514261005 41.34034910039085"/>
  <path d="M179.07063256488658 351.67721304882383 A 143.59460346431806 143.59460346431806, 0, 0, 0, 188.69711594251518 353.59203964700885"/>
  <path d="M190.67714196457305 387.6906562046182 A 177.08333333333331 177.08333333333331, 0, 0, 0, 198.3795973297104 388.4492818428265"/>
  <path d="M216.78896512795828 68.37070836419414 L 217.23396961652773 55.357481566063 L 217.23679060775072 55.30304226217862 L 217.24908107725432 55.13996912875041 L 217.27656923585232 54.86879959322073 L 217.3249595350966 54.4902975260334 L 217.39992471218727 54.00545230856588 L 217.50709786890502 53.41547763911316 L 217.65206459284875 52.72181007810653 L 217.84035512921494 51.92610733400301 L 218.07743661131184 51.03024629153697 L 218.36870535794682 50.036320784275006 L 218.71947924575795 48.94663911366618 L 219.1349901644979 47.76372131702712 L 219.62037656319475 46.49029618714647 L 220.1806760950327 45.12929804643659 L 220.82081836870265 43.683863278802875 L 221.54561781387352 42.157326622635935 L 222.35976666832656 40.55321722856701 L 223.26782809418648 38.87525448586209 L 224.27422943055555 37.12734362155106 L 225.3832555897365 35.313571076620576"/>
  <path d="M206.9738877914888 68.37070836419414 L 206.52888330291935 55.357481566063 L 206.52606231169636 55.30304226217862 L 206.51377184219277 55.13996912875041 L 206.48628368359476 54.86879959322073 L 206.43789338435047 54.4902975260334 L 206.3629282072598 54.00545230856588 L 206.25575505054206 53.41547763911316 L 206.11078832659834 52.72181007810653 L 205.92249779023214 51.92610733400301 L 205.68541630813525 51.03024629153697 L 205.39414756150026 50.036320784275006 L 205.04337367368913 48.94663911366618 L 204.62786275494918 47.76372131702715 L 204.14247635625233 46.49029618714647 L 203.58217682441438 45.12929804643659 L 202.94203455074444 43.683863278802875 L 202.21723510557356 42.157326622635935 L 201.40308625112053 40.55321722856701 L 200.4950248252606 38.87525448586209 L 199.48862348889153 37.12734362155106 L 198.37959732971058 35.313571076620576"/>
  <path d="M206.9738877914888 355.392144555253 A 143.59460346431806 143.59460346431806, 0, 0, 0, 216.78896512795828 355.392144555253"/>
  <path d="M225.3832555897365 388.44928184282657 A 177.08333333333331 177.08333333333331, 0, 0, 0, 233.08571095487386 387.6906562046183"/>
  <path d="M244.69222035456053 72.08563987062331 L 247.66742881317913 59.40927464544106 L 247.6808161811719 59.356431725601965 L 247.72468448286298 59.198889748359505 L 247.80454701620874 58.93829333313073 L 247.9258495995932 58.576504556093255 L 248.09396295143026 58.115600484065766 L 248.31417515423826 57.55787045811135 L 248.59168421107947 56.90581312963866 L 248.9315907021629 56.162133252017725 L 249.33889054931615 55.32973823096671 L 249.81846789592902 54.41173443720106 L 250.37508810985815 53.41142328507067 L 251.01339091667003 52.33229708113828 L 251.7378836704717 51.17803464687978 L 252.55293476944962 49.95249671990712 L 253.46276722309992 48.6597211383353 L 254.47145237798895 47.303917813126276 L 255.58290380873166 45.889463493451274 L 256.8008713807224 44.420896330322705 L 258.12893549098527 42.9029102439392 L 259.57050149334657 41.340349100390824"/>
  <path d="M235.0657369769319 70.17081327243827 L 237.16803773134592 57.32081590930875 L 237.17589152600343 57.266872293297496 L 237.19565120453774 57.104534812748625 L 237.22159377520688 56.83321305009483 L 237.24797537216512 56.45254331493328 L 237.2690392395355 55.96238928182862 L 237.2790237332173 55.36284236456308 L 237.27217033207393 54.65422182637877 L 237.24273165014299 53.837074626013305 L 237.18497944150258 52.91217499958958 L 237.09321258943328 51.88052377867547 L 236.96176507153245 50.74334744508917 L 236.7850138924504 49.50209692328045 L 236.55738697595243 48.15844611137388 L 236.2733710080434 46.7142901522177 L 235.92751922293502 45.17174344603308 L 235.51445912368806 43.533137406513106 L 235.02890012942134 41.801017962469444 L 234.46564114104135 39.97814280737799 L 233.81957801752634 38.06747839941511 L 233.08571095487403 36.07219671482889"/>
  <path d="M235.0657369769319 353.59203964700885 A 143.59460346431806 143.59460346431806, 0, 0, 0, 244.69222035456053 351.67721304882383"/>
  <path d="M259.57050149334657 382.4225038190563 A 177.08333333333331 177.08333333333331, 0, 0, 0, 266.97695581838843 380.1757804622656"/>
  <path d="M271.33457517228936 81.17284505729125 L 276.72565200840853 69.32048701167417 L 276.74909128412685 69.2712711996551 L 276.82285158377306 69.1253146284333 L 276.9520194194975 68.88530590759854 L 277.1415726967699 68.55413376051894 L 277.3963737215214 68.13488311894159 L 277.72116233896213 67.63083098860426 L 278.1205492112753 67.04544209012073 L 278.5990092412454 66.38236427961891 L 279.1608751487453 65.64542375382933 L 279.8103312068558 64.83862004453206 L 280.5514071442378 63.96612080747548 L 281.38797222022015 63.03225641108588 L 282.32372947889826 62.041514330480254 L 283.3622101883684 60.99853335248878 L 284.5067684710452 59.908097597581815 L 285.7605761308272 58.77513036477524 L 287.12661768268526 57.60468780576409 L 288.6076855900593 56.4019524347089 L 290.2063757152455 55.17222648025637 L 291.9250829877559 53.92092508654221"/>
  <path d="M262.2666261111098 77.41677757324231 L 266.83544186949905 65.22382783741796 L 266.85366863311276 65.17245293219113 L 266.90471910632033 65.01708964285928 L 266.98309544781455 64.75604239626114 L 267.08323511099917 64.38783391756562 L 267.1995185502203 63.911207413434454 L 267.32627699580877 63.325128500156836 L 267.4578002898283 62.62878687467827 L 267.58834477436983 61.82159772669948 L 267.71214122417615 60.90320289027184 L 267.8234028153341 59.873471733568635 L 267.91633312173985 58.73250178576882 L 267.98513413100466 57.48061910024214 L 268.02401427145196 56.118378353483195 L 268.0271964418406 54.64656267949911 L 267.9889260354396 53.066183239612116 L 267.9034789500838 51.37847852789696 L 267.76516957584846 49.584913412729406 L 267.56835875199255 47.68717791518142 L 267.30746168485194 45.68718572525182 L 266.9769558183886 43.58707245718159"/>
  <path d="M262.2666261111098 346.3460753462048 A 143.59460346431806 143.59460346431806, 0, 0, 0, 271.33457517228936 342.59000786215586"/>
  <path d="M291.9250829877559 369.84192783290496 A 177.08333333333331 177.08333333333331, 0, 0, 0, 298.75091038657837 366.1934470761563"/>
  <path d="M295.69217882670415 95.2831077250377 L 303.2919479808625 84.71023633179982 L 303.3245384060855 84.66653896365614 L 303.4253561367366 84.53777682763364 L 303.59886542735103 84.32757920173611 L 303.8493849723685 84.0397504445032 L 304.1810818095472 83.6782648004133 L 304.59796539719605 83.24726100638625 L 305.1038818714569 82.75103670497074 L 305.70250848968544 82.19404266998728 L 306.39734826580474 81.58087685058427 L 307.19172480331883 80.91627823984288 L 308.08877733148034 80.20512057423701 L 309.0914559499143 79.45240587042633 L 310.20251708679655 78.66325780601665 L 311.42451917548055 77.8429149510801 L 312.75981855425624 76.99672385737563 L 314.21056559370925 76.1301320123529 L 315.7787010559297 75.24868066515668 L 317.4659526895991 74.35799753198282 L 319.2738320647534 73.46378938825251 L 321.20363165079254 72.57183455519515"/>
  <path d="M287.5312402790304 89.83014292210994 L 294.39099401402126 78.76280903405348 L 294.41889330228724 78.7159771484076 L 294.499272729112 78.57355857437301 L 294.6270708825817 78.33281774312033 L 294.7971203008955 77.99122056623332 L 295.00415460461056 77.54643808033427 L 295.24281574612877 76.99634985500495 L 295.5076613688811 76.3390471603864 L 295.7931722685644 75.57283589107425 L 296.0937599486772 74.69623924316485 L 296.4037742625104 73.7080001415448 L 296.7175111336636 72.60708341476203 L 297.0292203470732 71.39267771505828 L 297.3331134024726 70.06419718139153 L 297.62337142213545 68.62128284352698 L 297.8941531046975 67.06380376552548 L 298.13960271680384 65.39185792721065 L 298.353858114287 63.60577284245218 L 298.5310587845431 61.70610591335611 L 298.6653539017544 59.693644519710205 L 298.75091038657837 57.569405843290866"/>
  <path d="M287.5312402790304 333.9327099973372 A 143.59460346431806 143.59460346431806, 0, 0, 0, 295.69217882670415 328.4797451944095"/>
  <path d="M321.20363165079254 351.191018364252 A 177.08333333333331 177.08333333333331, 0, 0, 0, 327.186519404427 346.2809892769357"/>
  <path d="M316.8289822692674 113.87417839266769 L 326.3453888748703 104.9871031701166 L 326.3858780178334 104.95060351120031 L 326.50987881063986 104.84398406705381 L 326.7210616914111 104.67167531297657 L 327.02292017855166 104.43825104331457 L 327.4187659047225 104.14842208729107 L 327.9117238600971 103.80702986366904 L 328.504727849921 103.41903978093912 L 329.2005161711831 102.98953448987257 L 330.00162751299615 102.52370699542846 L 330.91039708506867 102.02685363514254 L 331.9289529784253 101.50436693125478 L 333.0592127623131 100.96172832396314 L 334.30288032099935 100.40450079330542 L 335.66144293393586 99.83832137728545 L 337.13616860252864 99.26889359396503 L 338.72810362651467 98.7019797753401 L 340.4380704327049 98.14339332090796 L 342.2666656586093 97.5989908789224 L 344.2142584932151 97.0746644634002 L 346.28098927693554 96.57633351502"/>
  <path d="M309.8886745267794 106.93387065017973 L 318.7757497493305 97.41746404457679 L 318.81224940824677 97.37697490161365 L 318.9188688523933 97.25297410880722 L 319.0911776064705 97.04179122803602 L 319.32460187613253 96.73993274089547 L 319.614430832156 96.34408701472461 L 319.95582305577807 95.85112905935003 L 320.343813138508 95.25812506952612 L 320.7733184295745 94.562336748264 L 321.23914592401866 93.76122540645092 L 321.7359992843045 92.85245583437839 L 322.2584859881923 91.83389994102178 L 322.80112459548394 90.703640157134 L 323.35835212614165 89.45997259844778 L 323.9245315421616 88.10140998551125 L 324.493959325482 86.62668431691847 L 325.06087314410695 85.03474929293242 L 325.61945959853915 83.32478248674224 L 326.1638620405247 81.49618726083773 L 326.6881884560469 79.548594426232 L 327.1865194044271 77.48186364251151"/>
  <path d="M309.8886745267794 316.8289822692674 A 143.59460346431806 143.59460346431806, 0, 0, 0, 316.8289822692674 309.8886745267795"/>
  <path d="M346.28098927693554 327.18651940442714 A 177.08333333333331 177.08333333333331, 0, 0, 0, 351.1910183642518 321.2036316507928"/>
  <path d="M333.93270999733716 136.2316126404167 L 345.00004388539367 129.37185890542582 L 345.0468757710395 129.34395961715984 L 345.1892943450741 129.26358019033506 L 345.4300351763268 129.1357820368654 L 345.7716323532138 128.9657326185516 L 346.2164148391129 128.75869831483647 L 346.76650306444213 128.52003717331831 L 347.4238057590607 128.255191550566 L 348.19001702837284 127.9696806508827 L 349.06661367628226 127.66909297076987 L 350.0548527779023 127.35907865693665 L 351.15576950468505 127.04534178578349 L 352.37017520438883 126.7336325723739 L 353.69865573805555 126.42973951697446 L 355.1415700759201 126.13948149731164 L 356.69904915392164 125.86869981474955 L 358.37099499223643 125.62325020264325 L 360.15708007699493 125.40899480516008 L 362.056747006091 125.23179413490394 L 364.0692083997369 125.09749901769271 L 366.19344707615625 125.01194253286872"/>
  <path d="M328.4797451944094 128.07067409274293 L 339.05261658764726 120.47090493858457 L 339.09631395579095 120.43831451336163 L 339.22507609181343 120.33749678271047 L 339.43527371771097 120.16398749209607 L 339.7231024749439 119.91346794707856 L 340.0845881190338 119.58177110989988 L 340.5155919130608 119.16488752225104 L 341.01181621447637 118.65897104799019 L 341.56881024945983 118.06034442976164 L 342.1819760688628 117.36550465364236 L 342.8465746796042 116.57112811612826 L 343.55773234521007 115.67407558796674 L 344.3104470490208 114.6713969695328 L 345.09959511343044 113.56033583265057 L 345.919937968367 112.33833374396653 L 346.7661290620715 111.00303436519083 L 347.6327209070942 109.55228732573786 L 348.51417225429043 107.98415186351744 L 349.4048553874643 106.296900229848 L 350.29906353119463 104.48902085469368 L 351.19101836425193 102.55922126865453"/>
  <path d="M328.4797451944094 295.6921788267042 A 143.59460346431806 143.59460346431806, 0, 0, 0, 333.93270999733716 287.53124027903044"/>
  <path d="M366.19344707615625 298.7509103865784 A 177.08333333333331 177.08333333333331, 0, 0, 0, 369.84192783290484 291.925082987756"/>
  <path d="M346.34607534620477 161.49622680833727 L 358.5390250820291 156.92741104994803 L 358.590399987256 156.9091842863343 L 358.7457632765878 156.85813381312676 L 359.00681052318595 156.77975747163256 L 359.37501900188147 156.67961780844792 L 359.8516455060127 156.5633343692268 L 360.4377244192903 156.43657592363832 L 361.1340660447688 156.30505262961879 L 361.94125519274763 156.17450814507725 L 362.85965002917527 156.05071169527093 L 363.88938118587845 155.93945010411298 L 365.0303511336783 155.8465197977072 L 366.282233819205 155.77771878844243 L 367.64447456596395 155.73883864799512 L 369.11629023994794 155.73565647760648 L 370.696669679835 155.7739268840075 L 372.3843743915502 155.85937396936328 L 374.17793950671773 155.99768334359857 L 376.0756750042657 156.19449416745454 L 378.07566719419526 156.45539123459514 L 380.1757804622655 156.78589710105848"/>
  <path d="M342.59000786215586 152.4282777471577 L 354.4423659077729 147.03720091103855 L 354.491581719792 147.0137616353202 L 354.6375382910138 146.94000133567403 L 354.8775470118486 146.81083349994955 L 355.2087191589282 146.62128022267714 L 355.6279698005055 146.36647919792568 L 356.1320219308428 146.04169058048495 L 356.71741082932635 145.64230370817177 L 357.3804886398282 145.16384367820163 L 358.11742916561775 144.60197777070178 L 358.92423287491505 143.9525217125913 L 359.79673211197166 143.21144577520926 L 360.7305965083612 142.37488069922688 L 361.7213385889669 141.4391234405488 L 362.7643195669583 140.40064273107868 L 363.8547553218653 139.2560844484019 L 364.9877225546719 138.0022767886199 L 366.158165113683 136.63623523676182 L 367.3609004847382 135.15516732938778 L 368.59062643919077 133.5564772042016 L 369.84192783290484 131.83776993169116"/>
  <path d="M342.59000786215586 271.3345751722894 A 143.59460346431806 143.59460346431806, 0, 0, 0, 346.34607534620477 262.2666261111099"/>
  <path d="M380.1757804622655 266.97695581838866 A 177.08333333333331 177.08333333333331, 0, 0, 0, 382.42250381905626 259.5705014933468"/>
  <path d="M353.59203964700885 188.69711594251515 L 366.4420370101384 186.59481518810114 L 366.4959806261496 186.58696139344363 L 366.6583181066985 186.56720171490934 L 366.9296398693523 186.5412591442402 L 367.3103096045138 186.51487754728197 L 367.8004636376185 186.49381367991157 L 368.40001055488403 186.4838291862298 L 369.10863109306837 186.49068258737316 L 369.92577829343384 186.52012126930407 L 370.85067791985756 186.57787347794448 L 371.8823291407717 186.6696403300138 L 373.01950547435797 186.80108784791463 L 374.2607559961667 186.9778390269967 L 375.60440680807324 187.20546594349463 L 377.04856276722944 187.4894819114037 L 378.591109473414 187.83533369651204 L 380.22971551293404 188.24839379575903 L 381.96183495697767 188.7339527900257 L 383.7847101120691 189.29721177840574 L 385.69537452003203 189.94327490192072 L 387.6906562046182 190.67714196457305"/>
  <path d="M351.67721304882383 179.07063256488655 L 364.35357827400605 176.09542410626796 L 364.4064211938452 176.08203673827518 L 364.5639631710876 176.0381684365841 L 364.82455958631635 175.95830590323834 L 365.1863483633539 175.8370033198539 L 365.64725243538135 175.66888996801683 L 366.2049824613358 175.44867776520883 L 366.8570397898085 175.17116870836762 L 367.6007196674294 174.83126221728415 L 368.43311468848043 174.42396237013094 L 369.3511184822461 173.94438502351807 L 370.3514296343765 173.3877648095889 L 371.4305558383088 172.74946200277705 L 372.5848182725673 172.02496924897537 L 373.81035619954 171.20991814999746 L 375.1031317811118 170.30008569634714 L 376.45893510632084 169.2914005414581 L 377.87338942599587 168.1799491107154 L 379.34195658912444 166.96198153872464 L 380.8599426755079 165.6339174284618 L 382.42250381905626 164.1923514261005"/>
  <path d="M351.67721304882383 244.6922203545606 A 143.59460346431806 143.59460346431806, 0, 0, 0, 353.59203964700885 235.065736976932"/>
  <path d="M387.6906562046182 233.0857109548741 A 177.08333333333331 177.08333333333331, 0, 0, 0, 388.4492818428265 225.38325558973673"/>
  <circle cx="211.88142645972357" cy="211.88142645972357" r="31.25"/>
</svg>
