<?xml version="1.0" encoding="utf-8" ?>
<svg baseProfile="tiny" height="100%" version="1.2" width="100%" xmlns="http://www.w3.org/2000/svg" xmlns:ev="http://www.w3.org/2001/xml-events" xmlns:xlink="http://www.w3.org/1999/xlink"><defs /><rect fill="white" height="150" rx="0" ry="0" stroke="red" stroke-width="1" width="300" x="110" y="110" /><polyline fill="white" points="110,110 143.33333333333331,110 143.33333333333331,120 176.66666666666666,120 176.66666666666666,110 210.0,110 210.0,120 243.33333333333331,120 243.33333333333331,110 276.6666666666667,110 276.6666666666667,120 310.0,120 310.0,110 343.33333333333337,110 343.33333333333337,120 376.66666666666663,120 376.66666666666663,110 410,110" stroke="blue" stroke-width="1" /><polyline fill="white" points="110,260 143.33333333333331,260 143.33333333333331,250 176.66666666666666,250 176.66666666666666,260 210.0,260 210.0,250 243.33333333333331,250 243.33333333333331,260 276.6666666666667,260 276.6666666666667,250 310.0,250 310.0,260 343.33333333333337,260 343.33333333333337,250 376.66666666666663,250 376.66666666666663,260 410,260" stroke="blue" stroke-width="1" /><polyline fill="white" points="110,110 110,126.66666666666666 120,126.66666666666666 120,143.33333333333331 110,143.33333333333331 110,160.0 120,160.0 120,176.66666666666666 110,176.66666666666666 110,193.33333333333334 120,193.33333333333334 120,210.0 110,210.0 110,226.66666666666669 120,226.66666666666669 120,243.33333333333331 110,243.33333333333331 110,260" stroke="blue" stroke-width="1" /><polyline fill="white" points="410,110 410,126.66666666666666 400,126.66666666666666 400,143.33333333333331 410,143.33333333333331 410,160.0 400,160.0 400,176.66666666666666 410,176.66666666666666 410,193.33333333333334 400,193.33333333333334 400,210.0 410,210.0 410,226.66666666666669 400,226.66666666666669 400,243.33333333333331 410,243.33333333333331 410,260" stroke="blue" stroke-width="1" /><rect fill="white" height="150" rx="0" ry="0" stroke="red" stroke-width="1" width="300" x="530" y="110" /><polyline fill="white" points="530,110 563.3333333333334,110 563.3333333333334,120 596.6666666666666,120 596.6666666666666,110 630.0,110 630.0,120 663.3333333333333,120 663.3333333333333,110 696.6666666666667,110 696.6666666666667,120 730.0,120 730.0,110 763.3333333333334,110 763.3333333333334,120 796.6666666666666,120 796.6666666666666,110 830,110" stroke="blue" stroke-width="1" /><polyline fill="white" points="530,260 563.3333333333334,260 563.3333333333334,250 596.6666666666666,250 596.6666666666666,260 630.0,260 630.0,250 663.3333333333333,250 663.3333333333333,260 696.6666666666667,260 696.6666666666667,250 730.0,250 730.0,260 763.3333333333334,260 763.3333333333334,250 796.6666666666666,250 796.6666666666666,260 830,260" stroke="blue" stroke-width="1" /><polyline fill="white" points="530,110 530,126.66666666666666 540,126.66666666666666 540,143.33333333333331 530,143.33333333333331 530,160.0 540,160.0 540,176.66666666666666 530,176.66666666666666 530,193.33333333333334 540,193.33333333333334 540,210.0 530,210.0 530,226.66666666666669 540,226.66666666666669 540,243.33333333333331 530,243.33333333333331 530,260" stroke="blue" stroke-width="1" /><polyline fill="white" points="830,110 830,126.66666666666666 820,126.66666666666666 820,143.33333333333331 830,143.33333333333331 830,160.0 820,160.0 820,176.66666666666666 830,176.66666666666666 830,193.33333333333334 820,193.33333333333334 820,210.0 830,210.0 830,226.66666666666669 820,226.66666666666669 820,243.33333333333331 830,243.33333333333331 830,260" stroke="blue" stroke-width="1" /><rect fill="white" height="100" rx="0" ry="0" stroke="red" stroke-width="1" width="300" x="110" y="270" /><polyline fill="white" points="110,280 143.33333333333331,280 143.33333333333331,270 176.66666666666666,270 176.66666666666666,280 210.0,280 210.0,270 243.33333333333331,270 243.33333333333331,280 276.6666666666667,280 276.6666666666667,270 310.0,270 310.0,280 343.33333333333337,280 343.33333333333337,270 376.66666666666663,270 376.66666666666663,280 410,280" stroke="blue" stroke-width="1" /><polyline fill="white" points="110,360 143.33333333333331,360 143.33333333333331,370 176.66666666666666,370 176.66666666666666,360 210.0,360 210.0,370 243.33333333333331,370 243.33333333333331,360 276.6666666666667,360 276.6666666666667,370 310.0,370 310.0,360 343.33333333333337,360 343.33333333333337,370 376.66666666666663,370 376.66666666666663,360 410,360" stroke="blue" stroke-width="1" /><polyline fill="white" points="120,270 120,303.3333333333333 110,303.3333333333333 110,336.66666666666663 120,336.66666666666663 120,370" stroke="blue" stroke-width="1" /><polyline fill="white" points="400,270 400,303.3333333333333 410,303.3333333333333 410,336.66666666666663 400,336.66666666666663 400,370" stroke="blue" stroke-width="1" /><rect fill="white" height="100" rx="0" ry="0" stroke="red" stroke-width="1" width="300" x="110" y="0" /><polyline fill="white" points="110,10 143.33333333333331,10 143.33333333333331,0 176.66666666666666,0 176.66666666666666,10 210.0,10 210.0,0 243.33333333333331,0 243.33333333333331,10 276.6666666666667,10 276.6666666666667,0 310.0,0 310.0,10 343.33333333333337,10 343.33333333333337,0 376.66666666666663,0 376.66666666666663,10 410,10" stroke="blue" stroke-width="1" /><polyline fill="white" points="110,90 143.33333333333331,90 143.33333333333331,100 176.66666666666666,100 176.66666666666666,90 210.0,90 210.0,100 243.33333333333331,100 243.33333333333331,90 276.6666666666667,90 276.6666666666667,100 310.0,100 310.0,90 343.33333333333337,90 343.33333333333337,100 376.66666666666663,100 376.66666666666663,90 410,90" stroke="blue" stroke-width="1" /><polyline fill="white" points="120,0 120,33.33333333333333 110,33.33333333333333 110,66.66666666666666 120,66.66666666666666 120,100" stroke="blue" stroke-width="1" /><polyline fill="white" points="400,0 400,33.33333333333333 410,33.33333333333333 410,66.66666666666666 400,66.66666666666666 400,100" stroke="blue" stroke-width="1" /><rect fill="white" height="150" rx="0" ry="0" stroke="red" stroke-width="1" width="100" x="0" y="110" /><polyline fill="white" points="0,110 33.33333333333333,110 33.33333333333333,120 66.66666666666666,120 66.66666666666666,110 100,110" stroke="blue" stroke-width="1" /><polyline fill="white" points="0,260 33.33333333333333,260 33.33333333333333,250 66.66666666666666,250 66.66666666666666,260 100,260" stroke="blue" stroke-width="1" /><polyline fill="white" points="10,110 10,126.66666666666666 0,126.66666666666666 0,143.33333333333331 10,143.33333333333331 10,160.0 0,160.0 0,176.66666666666666 10,176.66666666666666 10,193.33333333333334 0,193.33333333333334 0,210.0 10,210.0 10,226.66666666666669 0,226.66666666666669 0,243.33333333333331 10,243.33333333333331 10,260" stroke="blue" stroke-width="1" /><polyline fill="white" points="90,110 90,126.66666666666666 100,126.66666666666666 100,143.33333333333331 90,143.33333333333331 90,160.0 100,160.0 100,176.66666666666666 90,176.66666666666666 90,193.33333333333334 100,193.33333333333334 100,210.0 90,210.0 90,226.66666666666669 100,226.66666666666669 100,243.33333333333331 90,243.33333333333331 90,260" stroke="blue" stroke-width="1" /><rect fill="white" height="150" rx="0" ry="0" stroke="red" stroke-width="1" width="100" x="420" y="110" /><polyline fill="white" points="420,110 453.3333333333333,110 453.3333333333333,120 486.66666666666663,120 486.66666666666663,110 520,110" stroke="blue" stroke-width="1" /><polyline fill="white" points="420,260 453.3333333333333,260 453.3333333333333,250 486.66666666666663,250 486.66666666666663,260 520,260" stroke="blue" stroke-width="1" /><polyline fill="white" points="430,110 430,126.66666666666666 420,126.66666666666666 420,143.33333333333331 430,143.33333333333331 430,160.0 420,160.0 420,176.66666666666666 430,176.66666666666666 430,193.33333333333334 420,193.33333333333334 420,210.0 430,210.0 430,226.66666666666669 420,226.66666666666669 420,243.33333333333331 430,243.33333333333331 430,260" stroke="blue" stroke-width="1" /><polyline fill="white" points="510,110 510,126.66666666666666 520,126.66666666666666 520,143.33333333333331 510,143.33333333333331 510,160.0 520,160.0 520,176.66666666666666 510,176.66666666666666 510,193.33333333333334 520,193.33333333333334 520,210.0 510,210.0 510,226.66666666666669 520,226.66666666666669 520,243.33333333333331 510,243.33333333333331 510,260" stroke="blue" stroke-width="1" /></svg>