<?xml version="1.0" encoding="utf-8" ?>
<svg baseProfile="tiny" height="100%" version="1.2" width="100%" xmlns="http://www.w3.org/2000/svg" xmlns:ev="http://www.w3.org/2001/xml-events" xmlns:xlink="http://www.w3.org/1999/xlink"><defs /><rect fill="white" height="60" rx="0" ry="0" stroke="red" stroke-width="1" width="120" x="40" y="40" /><polyline fill="white" points="40,40 53.33333333333333,40 53.33333333333333,50 66.66666666666666,50 66.66666666666666,40 80.0,40 80.0,50 93.33333333333333,50 93.33333333333333,40 106.66666666666667,40 106.66666666666667,50 120.0,50 120.0,40 133.33333333333331,40 133.33333333333331,50 146.66666666666666,50 146.66666666666666,40 160,40" stroke="blue" stroke-width="1" /><polyline fill="white" points="40,100 53.33333333333333,100 53.33333333333333,90 66.66666666666666,90 66.66666666666666,100 80.0,100 80.0,90 93.33333333333333,90 93.33333333333333,100 106.66666666666667,100 106.66666666666667,90 120.0,90 120.0,100 133.33333333333331,100 133.33333333333331,90 146.66666666666666,90 146.66666666666666,100 160,100" stroke="blue" stroke-width="1" /><polyline fill="white" points="40,40 40,46.666666666666664 50,46.666666666666664 50,53.33333333333333 40,53.33333333333333 40,60.0 50,60.0 50,66.66666666666666 40,66.66666666666666 40,73.33333333333334 50,73.33333333333334 50,80.0 40,80.0 40,86.66666666666666 50,86.66666666666666 50,93.33333333333333 40,93.33333333333333 40,100" stroke="blue" stroke-width="1" /><polyline fill="white" points="160,40 160,46.666666666666664 150,46.666666666666664 150,53.33333333333333 160,53.33333333333333 160,60.0 150,60.0 150,66.66666666666666 160,66.66666666666666 160,73.33333333333334 150,73.33333333333334 150,80.0 160,80.0 160,86.66666666666666 150,86.66666666666666 150,93.33333333333333 160,93.33333333333333 160,100" stroke="blue" stroke-width="1" /><rect fill="white" height="60" rx="0" ry="0" stroke="red" stroke-width="1" width="120" x="210" y="40" /><polyline fill="white" points="210,40 223.33333333333334,40 223.33333333333334,50 236.66666666666666,50 236.66666666666666,40 250.0,40 250.0,50 263.3333333333333,50 263.3333333333333,40 276.6666666666667,40 276.6666666666667,50 290.0,50 290.0,40 303.3333333333333,40 303.3333333333333,50 316.66666666666663,50 316.66666666666663,40 330,40" stroke="blue" stroke-width="1" /><polyline fill="white" points="210,100 223.33333333333334,100 223.33333333333334,90 236.66666666666666,90 236.66666666666666,100 250.0,100 250.0,90 263.3333333333333,90 263.3333333333333,100 276.6666666666667,100 276.6666666666667,90 290.0,90 290.0,100 303.3333333333333,100 303.3333333333333,90 316.66666666666663,90 316.66666666666663,100 330,100" stroke="blue" stroke-width="1" /><polyline fill="white" points="210,40 210,46.666666666666664 220,46.666666666666664 220,53.33333333333333 210,53.33333333333333 210,60.0 220,60.0 220,66.66666666666666 210,66.66666666666666 210,73.33333333333334 220,73.33333333333334 220,80.0 210,80.0 210,86.66666666666666 220,86.66666666666666 220,93.33333333333333 210,93.33333333333333 210,100" stroke="blue" stroke-width="1" /><polyline fill="white" points="330,40 330,46.666666666666664 320,46.666666666666664 320,53.33333333333333 330,53.33333333333333 330,60.0 320,60.0 320,66.66666666666666 330,66.66666666666666 330,73.33333333333334 320,73.33333333333334 320,80.0 330,80.0 330,86.66666666666666 320,86.66666666666666 320,93.33333333333333 330,93.33333333333333 330,100" stroke="blue" stroke-width="1" /><rect fill="white" height="30" rx="0" ry="0" stroke="red" stroke-width="1" width="120" x="40" y="110" /><polyline fill="white" points="40,120 53.33333333333333,120 53.33333333333333,110 66.66666666666666,110 66.66666666666666,120 80.0,120 80.0,110 93.33333333333333,110 93.33333333333333,120 106.66666666666667,120 106.66666666666667,110 120.0,110 120.0,120 133.33333333333331,120 133.33333333333331,110 146.66666666666666,110 146.66666666666666,120 160,120" stroke="blue" stroke-width="1" /><polyline fill="white" points="40,130 53.33333333333333,130 53.33333333333333,140 66.66666666666666,140 66.66666666666666,130 80.0,130 80.0,140 93.33333333333333,140 93.33333333333333,130 106.66666666666667,130 106.66666666666667,140 120.0,140 120.0,130 133.33333333333331,130 133.33333333333331,140 146.66666666666666,140 146.66666666666666,130 160,130" stroke="blue" stroke-width="1" /><polyline fill="white" points="50,110 50,120.0 40,120.0 40,130.0 50,130.0 50,140" stroke="blue" stroke-width="1" /><polyline fill="white" points="150,110 150,120.0 160,120.0 160,130.0 150,130.0 150,140" stroke="blue" stroke-width="1" /><rect fill="white" height="30" rx="0" ry="0" stroke="red" stroke-width="1" width="120" x="40" y="0" /><polyline fill="white" points="40,10 53.33333333333333,10 53.33333333333333,0 66.66666666666666,0 66.66666666666666,10 80.0,10 80.0,0 93.33333333333333,0 93.33333333333333,10 106.66666666666667,10 106.66666666666667,0 120.0,0 120.0,10 133.33333333333331,10 133.33333333333331,0 146.66666666666666,0 146.66666666666666,10 160,10" stroke="blue" stroke-width="1" /><polyline fill="white" points="40,20 53.33333333333333,20 53.33333333333333,30 66.66666666666666,30 66.66666666666666,20 80.0,20 80.0,30 93.33333333333333,30 93.33333333333333,20 106.66666666666667,20 106.66666666666667,30 120.0,30 120.0,20 133.33333333333331,20 133.33333333333331,30 146.66666666666666,30 146.66666666666666,20 160,20" stroke="blue" stroke-width="1" /><polyline fill="white" points="50,0 50,10.0 40,10.0 40,20.0 50,20.0 50,30" stroke="blue" stroke-width="1" /><polyline fill="white" points="150,0 150,10.0 160,10.0 160,20.0 150,20.0 150,30" stroke="blue" stroke-width="1" /><rect fill="white" height="60" rx="0" ry="0" stroke="red" stroke-width="1" width="30" x="0" y="40" /><polyline fill="white" points="0,40 10.0,40 10.0,50 20.0,50 20.0,40 30,40" stroke="blue" stroke-width="1" /><polyline fill="white" points="0,100 10.0,100 10.0,90 20.0,90 20.0,100 30,100" stroke="blue" stroke-width="1" /><polyline fill="white" points="10,40 10,46.666666666666664 0,46.666666666666664 0,53.33333333333333 10,53.33333333333333 10,60.0 0,60.0 0,66.66666666666666 10,66.66666666666666 10,73.33333333333334 0,73.33333333333334 0,80.0 10,80.0 10,86.66666666666666 0,86.66666666666666 0,93.33333333333333 10,93.33333333333333 10,100" stroke="blue" stroke-width="1" /><polyline fill="white" points="20,40 20,46.666666666666664 30,46.666666666666664 30,53.33333333333333 20,53.33333333333333 20,60.0 30,60.0 30,66.66666666666666 20,66.66666666666666 20,73.33333333333334 30,73.33333333333334 30,80.0 20,80.0 20,86.66666666666666 30,86.66666666666666 30,93.33333333333333 20,93.33333333333333 20,100" stroke="blue" stroke-width="1" /><rect fill="white" height="60" rx="0" ry="0" stroke="red" stroke-width="1" width="30" x="170" y="40" /><polyline fill="white" points="170,40 180.0,40 180.0,50 190.0,50 190.0,40 200,40" stroke="blue" stroke-width="1" /><polyline fill="white" points="170,100 180.0,100 180.0,90 190.0,90 190.0,100 200,100" stroke="blue" stroke-width="1" /><polyline fill="white" points="180,40 180,46.666666666666664 170,46.666666666666664 170,53.33333333333333 180,53.33333333333333 180,60.0 170,60.0 170,66.66666666666666 180,66.66666666666666 180,73.33333333333334 170,73.33333333333334 170,80.0 180,80.0 180,86.66666666666666 170,86.66666666666666 170,93.33333333333333 180,93.33333333333333 180,100" stroke="blue" stroke-width="1" /><polyline fill="white" points="190,40 190,46.666666666666664 200,46.666666666666664 200,53.33333333333333 190,53.33333333333333 190,60.0 200,60.0 200,66.66666666666666 190,66.66666666666666 190,73.33333333333334 200,73.33333333333334 200,80.0 190,80.0 190,86.66666666666666 200,86.66666666666666 200,93.33333333333333 190,93.33333333333333 190,100" stroke="blue" stroke-width="1" /></svg>