<?xml version='1.0' encoding='ASCII'?>
<svg version="1.1" xmlns="http://www.w3.org/2000/svg" width="185.91208968527184" height="187.12230511396126">
  <path d="M146.45737362538895 99.80998401057926 L 159.38809979649182 101.3391737902992 L 159.42019994368962 101.34365061327028 L 159.51608854793673 101.3597533968221 L 159.67500711484269 101.3914667771565 L 159.89601065394345 101.44273736434087 L 160.17796937620653 101.51746598683104 L 160.51957069379193 101.6195000068742 L 160.919321519238 101.75262571809724 L 161.37555086082875 101.92056083647633 L 161.88641271049164 102.12694709575912 L 162.44988922017498 102.37534295827231 L 163.06379416225522 102.6692164518942 L 163.72577666913298 103.01193814380457 L 164.43332524679278 103.4067742614435 L 165.18377205672186 103.8568799709152 L 165.97429746021191 104.36529282286553 L 166.80193481870486 104.93492637563992 L 167.66357554348656 105.56856400529422 L 168.55597438768638 106.26885291178385 L 169.47575497320082 107.03829833039786 L 170.4194155448325 107.87925795723233"/>
  <path d="M146.45737362538895 87.31232110338206 L 159.38809979649182 85.78313132366212 L 159.42019994368962 85.77865450069103 L 159.51608854793673 85.76255171713922 L 159.67500711484269 85.73083833680482 L 159.89601065394345 85.67956774962045 L 160.17796937620653 85.60483912713028 L 160.51957069379193 85.50280510708711 L 160.919321519238 85.36967939586408 L 161.37555086082875 85.20174427748499 L 161.88641271049164 84.9953580182022 L 162.44988922017498 84.746962155689 L 163.06379416225522 84.45308866206712 L 163.72577666913298 84.11036697015675 L 164.43332524679278 83.71553085251782 L 165.18377205672186 83.26542514304612 L 165.97429746021191 82.75701229109579 L 166.80193481870486 82.1873787383214 L 167.66357554348656 81.5537411086671 L 168.55597438768638 80.85345220217746 L 169.47575497320082 80.08400678356345 L 170.4194155448325 79.24304715672899"/>
  <path d="M146.45737362538895 99.80998401057926 A 53.20791046635142 53.20791046635142, 0, 0, 0, 146.45737362538895 87.31232110338206"/>
  <path d="M170.41941554483253 79.24304715672899 A 78.125 78.125, 0, 0, 0, 168.27619420688086 70.54765637563642"/>
  <path d="M137.50092766840956 123.65005077534612 L 148.2398671475959 131.01328916323075 L 148.26620993298474 131.0321708753351 L 148.3436317387559 131.09099083838942 L 148.4696091987057 131.19292478260954 L 148.6414714841843 131.34102809869452 L 148.85640541131153 131.53822975956274 L 149.11146078288778 131.78732644531416 L 149.4035559572387 132.0909768801144 L 149.72948363591934 132.45169638940544 L 150.08591686189953 132.8718516855509 L 150.46941521956302 133.3536558897127 L 150.8764312275707 133.89916379743684 L 151.30331691536983 134.51026739509467 L 151.74633057387445 135.1886916339887 L 152.2016436705977 135.9359904685817 L 152.6653479192837 136.7535431649517 L 153.1334624938691 137.64255088521082 L 153.60194137639604 138.6040335532515 L 154.0666808283078 139.63882700680554 L 154.52352697437755 140.74758044041315 L 154.96828348835692 141.93075414350608"/>
  <path d="M143.308881217776 112.58391984758575 L 155.46912054713906 117.23909762582971 L 155.4996242992715 117.25005127818301 L 155.59201277834453 117.28035462778584 L 155.74746612370478 117.3261269645841 L 155.96698166900114 117.38343457994674 L 156.25137184110054 117.44829842266955 L 156.60126235957844 117.51670183268332 L 157.0170907395297 117.58459834113995 L 157.49910510003167 117.64791952545588 L 158.04736328017214 117.7025829078134 L 158.661732264135 117.74449988555595 L 159.34188791641378 117.76958368186557 L 160.0873150277985 117.77375730507518 L 160.89730767235636 117.75296150495139 L 161.770969875201 117.70316271427915 L 162.70721659041934 117.62036096409125 L 163.7047749881005 117.50059776091368 L 164.76218604898594 117.33996391443833 L 165.87780646483952 117.13460730409372 L 167.04981084221498 116.88074057305523 L 168.27619420688086 116.5746487383249"/>
  <path d="M143.308881217776 74.53838526637557 A 53.20791046635142 53.20791046635142, 0, 0, 0, 137.50092766840956 63.4722543386152"/>
  <path d="M154.96828348835692 45.19155097045522 A 78.125 78.125, 0, 0, 0, 149.02960565440964 38.48816942649221"/>
  <path d="M118.49135717870718 140.59711356881772 L 124.57834834954566 152.1075713868447 L 124.59289895845794 152.13653241538853 L 124.63411756308486 152.22459461326702 L 124.69829399819702 152.3733972831892 L 124.78164345161535 152.5844046432982 L 124.8803138111365 152.85890281857715 L 124.99039312482587 153.1979971212717 L 125.10791716376632 153.60260962442084 L 125.22887707620545 154.0734770321866 L 125.34922712191691 154.61114885026797 L 125.46489247547605 155.21598585927507 L 125.57177708705125 155.8881588935248 L 125.6657715892272 156.62764792730337 L 125.74276123830657 157.4342414702203 L 125.79863387848232 158.30753627285657 L 125.82928791723234 159.24693734348597 L 125.83064030026486 160.25165827622286 L 125.79863447433266 161.32072189052403 L 125.7292483262409 162.4529611815463 L 125.6185020863943 163.6470205804353 L 125.4624661852657 164.90135752319702"/>
  <path d="M128.77673211270806 133.49763185470937 L 137.38072031674454 143.2707320628954 L 137.40263963180814 143.29460684082477 L 137.47036289855333 143.3643741913832 L 137.58673853436179 143.4771463545701 L 137.7544777198754 143.62990368843177 L 137.97614898065626 143.81950047169383 L 138.25417299888124 144.04267091488083 L 138.590817662766 144.29603537117134 L 138.98819336109102 144.57610673795853 L 139.44824852986625 144.87929703982337 L 139.97276545783157 145.2019241833752 L 140.563356357136 145.54021887417431 L 141.22145970518 145.89033168572422 L 141.94833686323722 146.24834027030735 L 142.74506897709662 146.61025670123706 L 143.61255416458283 146.97203493591041 L 144.5515049944254 147.32957838887458 L 145.56244626055033 147.678747603958 L 146.64571305546917 148.01536801437288 L 147.80144914603278 148.3352377795651 L 149.0296056544096 148.6341356874691"/>
  <path d="M128.77673211270806 53.624673259251935 A 53.20791046635142 53.20791046635142, 0, 0, 0, 118.49135717870718 46.525191545143606"/>
  <path d="M125.46246618526573 22.220947590764297 A 78.125 78.125, 0, 0, 0, 117.08881137825378 19.045239211147745"/>
  <path d="M93.78352566531369 146.76880453925634 L 93.82411220676101 159.7895746173699 L 93.82353727004879 159.82198033973208 L 93.81910998794949 159.91911078416524 L 93.80678335034966 160.0806932813769 L 93.78252561639941 160.3062654422233 L 93.7423282180549 160.59517590801823 L 93.68221362969075 160.94658540943792 L 93.59824319221762 161.35946813257374 L 93.4865248802004 161.83261339026248 L 93.34322100054595 162.36462759640523 L 93.16455581141894 162.95393654057017 L 92.94682305014898 163.5987879597621 L 92.6863933590098 164.2972544038317 L 92.37972159788569 165.04723639059512 L 92.023354032988 165.846465846334 L 91.61393539094558 166.69250982695172 L 91.14821576777048 167.5827745146762 L 90.62305738238818 168.5145094848147 L 90.03544116462703 169.48481223669455 L 89.38247316777601 170.49063298255527 L 88.66139079605159 171.52877968779785"/>
  <path d="M106.19006653877443 145.2623777414727 L 109.26673360923783 157.91450090053064 L 109.27504703630792 157.94582738013474 L 109.30259050646775 158.03907587242355 L 109.35322817703914 158.19301311846482 L 109.43076397684516 158.40622530656333 L 109.53893411189092 158.67712069220818 L 109.68139967784023 159.00393250952968 L 109.86173939017056 159.38472217009058 L 110.08344244272861 159.81738274444393 L 110.349901505238 160.29964272149815 L 110.66440587012318 160.82907004035013 L 111.0301347588145 161.40307638886958 L 111.45015079748597 162.01892176295047 L 111.92739367195105 162.6737192799837 L 112.46467397120284 163.3644402397552 L 113.06466722883363 164.08791942562647 L 113.7299081713048 164.84086063852402 L 114.46278518176305 165.61984245593572 L 115.26553498781126 166.42132420779984 L 116.1402375813447 167.24165216086573 L 117.08881137825378 168.07706590281356"/>
  <path d="M106.19006653877443 41.85992737248861 A 53.20791046635142 53.20791046635142, 0, 0, 0, 93.78352566531369 40.353500574704974"/>
  <path d="M88.66139079605159 15.593525426163438 A 78.125 78.125, 0, 0, 0, 79.77106241878151 16.673006729228717"/>
  <path d="M69.03769956629904 140.75126366227354 L 63.02258359083048 152.2994444928679 L 63.007014819565754 152.32787114858647 L 62.95795588771463 152.4118184253035 L 62.87195006152487 152.54916414697365 L 62.74564229471663 152.73762524494674 L 62.575785878036065 152.97476209529253 L 62.35924891535328 153.25798311360572 L 62.09302061673822 153.58454960063403 L 61.77421739919619 153.95158083172774 L 61.400088786005654 154.35605938277072 L 60.96802309587259 154.79483668492804 L 60.475552913400186 155.26463880022732 L 59.920360332667855 155.76207240968472 L 59.30028196601841 156.28363100538994 L 58.6133137104706 156.82570127768068 L 57.8576152644982 157.38456968826247 L 57.031514388254976 157.95642921986942 L 56.133510900669044 158.53738629281014 L 55.16228040718446 159.12346783850774 L 54.11667775229022 159.7106285199174 L 52.9957401913474 160.29475808849386"/>
  <path d="M80.72321738013544 145.1829960057759 L 77.56773596904023 157.81569317457863 L 77.5605390021627 157.84729483690512 L 77.54159279865837 157.94266236510708 L 77.51489202391485 158.10249952607967 L 77.48446192068542 158.327322225607 L 77.4543504556485 158.61745734542677 L 77.42862042505938 158.97304188804372 L 77.4113415310695 159.39402243065342 L 77.40658244033096 159.88015488911373 L 77.41840283653342 160.43100459247694 L 77.45084547853173 161.04594666817087 L 77.50792827572168 161.72416673749132 L 77.59363639230298 162.46466192064256 L 77.71191439203606 163.26624215013908 L 77.8666584350512 164.12753179095864 L 78.06170853820595 165.04697156541408 L 78.30084091040803 166.02282078029546 L 78.587760374229 167.05315985341508 L 78.92609288502486 168.13589313627847 L 79.31937815865858 169.26875202919422 L 79.77106241878151 170.44929838473257"/>
  <path d="M80.72321738013544 41.939309108185434 A 53.20791046635142 53.20791046635142, 0, 0, 0, 69.03769956629904 46.37104145168778"/>
  <path d="M52.99574019134739 26.82754702546744 A 78.125 78.125, 0, 0, 0, 45.625405334980314 31.91492185384223"/>
  <path d="M49.92284942141454 123.92303703355705 L 39.23002150900416 131.35307955900882 L 39.203025521059665 131.37101494383703 L 39.12057374951962 131.42254774341637 L 38.98059163303741 131.50419243990572 L 38.781169420573356 131.61236830866233 L 38.52056604362651 131.74340634895367 L 38.19721271522242 131.89355636204803 L 37.809716250279344 132.05899416634344 L 37.356862102356125 132.23582893900442 L 36.837617112172914 132.42011067339865 L 36.251131963687214 132.60783774146378 L 35.59674334390777 132.79496454998463 L 34.87397580303211 132.977409279628 L 34.08254331190238 133.15106169546138 L 33.2223505141855 133.31179101757715 L 32.293493671101835 133.4554538403532 L 31.296261296943015 133.57790208880587 L 30.231134484044183 133.67499100042977 L 29.098786916297243 133.74258712087408 L 27.900084570718036 133.77657630177512 L 26.636085107006792 133.77287168904897"/>
  <path d="M58.210332870232534 133.27767204661345 L 49.54558574118724 142.99694454429277 L 49.524527118740885 143.02158182934403 L 49.46343158846874 143.09722084205137 L 49.36550919412484 143.226341150623 L 49.23408435778731 143.4112701905247 L 49.07258946642518 143.65417858507587 L 48.884558279225125 143.95707571953307 L 48.673619165294866 144.32180557524518 L 48.443488181594674 144.75004283011043 L 48.19796200117145 145.24328923120066 L 47.94091070197728 145.80287024505049 L 47.676270426751906 146.42993199072845 L 47.408035924629054 147.12543846042445 L 47.14025298529572 147.8901690318956 L 46.87701077668731 148.72471627671686 L 46.6224340973418 149.6294840678792 L 46.380675554660826 150.60468598987293 L 46.1559076804375 151.65034405398063 L 45.95231499510643 152.7662877210899 L 45.774086032252264 153.9521532339181 L 45.62540533498035 155.2073832601191"/>
  <path d="M58.210332870232534 53.84463306734787 A 53.20791046635142 53.20791046635142, 0, 0, 0, 49.92284942141454 63.199268080404266"/>
  <path d="M26.636085107006792 53.34943342491232 A 78.125 78.125, 0, 0, 0, 22.474198664972633 61.27924551492891"/>
  <path d="M40.81795703993697 100.13926857163021 L 27.897015202772323 101.74903959107759 L 27.864776453649213 101.75237492449611 L 27.767820549628496 101.75968770359171 L 27.605930358772554 101.76692755885982 L 27.379078926230008 101.77003641052832 L 27.08742968206424 101.76495640491403 L 26.7313363386462 101.74763785429349 L 26.311342477654918 101.7140471686336 L 25.82818082715559 101.66017476753522 L 25.28277222965022 101.58204296076664 L 24.67622430241775 101.47571378580228 L 24.00982979188491 101.33729679083507 L 23.28506462418747 101.16295675180046 L 22.50358565449976 100.94892131203305 L 21.667228118123774 100.69148853327542 L 20.7780027867409 100.38703434687243 L 19.838092833633368 100.0320198941117 L 18.849850412087164 99.62299874481401 L 17.81579295158116 99.15662398343278 L 16.738599176759905 98.62965515209474 L 15.62110485457164 98.03896504019613"/>
  <path d="M43.808843540614845 112.27377210832242 L 31.619819839361043 116.85305173559104 L 31.589723837964392 116.86508053827328 L 31.500475230628822 116.90366304922368 L 31.35376405713594 116.97248659876902 L 31.151452333854273 117.07515696464012 L 30.895570549553575 117.21519124809453 L 30.588313884708654 117.39601089119398 L 30.232038159747546 117.62093484553613 L 29.82925551807243 117.89317290253503 L 29.382629850047223 118.21581919512609 L 28.894971964502005 118.59184588054106 L 28.36923451465441 119.02409701355496 L 27.808506685687547 119.51528261934996 L 27.2160086515548 120.06797297487412 L 26.59508580890251 120.68459310729307 L 25.94920279631326 121.36741751784089 L 25.281937307371123 122.11856513907549 L 24.596973706341544 122.93999453322988 L 23.898096455535068 123.83349933902936 L 23.189183363691086 124.80070397400978 L 22.474198664972647 125.8430595990324"/>
  <path d="M43.808843540614845 74.8485330056389 A 53.20791046635142 53.20791046635142, 0, 0, 0, 40.81795703993697 86.9830365423311"/>
  <path d="M15.621104854571627 89.08334007376514 A 78.125 78.125, 0, 0, 0, 15.621104854571627 98.03896504019609"/>
  <path d="M43.80884354061483 74.84853300563893 L 31.61981983936102 70.26925337837031 L 31.589723837964378 70.2572245756881 L 31.50047523062881 70.21864206473768 L 31.35376405713592 70.14981851519234 L 31.15145233385425 70.04714814932125 L 30.89557054955356 69.90711386586683 L 30.58831388470864 69.7262942227674 L 30.232038159747532 69.50137026842523 L 29.829255518072415 69.22913221142633 L 29.38262985004721 68.90648591883527 L 28.89497196450199 68.5304592334203 L 28.369234514654394 68.0982081004064 L 27.808506685687547 67.6070224946114 L 27.216008651554787 67.05433213908724 L 26.595085808902482 66.43771200666829 L 25.949202796313244 65.75488759612048 L 25.28193730737111 65.00373997488589 L 24.596973706341544 64.18231058073145 L 23.89809645553504 63.288805774932 L 23.189183363691072 62.32160113995158 L 22.474198664972633 61.27924551492897"/>
  <path d="M40.81795703993697 86.98303654233113 L 27.897015202772323 85.37326552288377 L 27.864776453649213 85.36993018946526 L 27.767820549628496 85.36261741036965 L 27.605930358772554 85.35537755510154 L 27.379078926229994 85.35226870343304 L 27.087429682064226 85.35734870904733 L 26.731336338646187 85.37466725966787 L 26.311342477654904 85.40825794532776 L 25.82818082715559 85.46213034642614 L 25.282772229650206 85.54026215319472 L 24.676224302417737 85.64659132815908 L 24.009829791884897 85.78500832312629 L 23.28506462418747 85.95934836216091 L 22.503585654499744 86.17338380192832 L 21.667228118123774 86.43081658068594 L 20.778002786740885 86.73527076708895 L 19.838092833633354 87.09028521984966 L 18.849850412087164 87.49930636914739 L 17.81579295158116 87.9656811305286 L 16.738599176759905 88.49264996186663 L 15.62110485457164 89.08334007376524"/>
  <path d="M40.81795703993697 100.13926857163018 A 53.20791046635142 53.20791046635142, 0, 0, 0, 43.80884354061483 112.27377210832239"/>
  <path d="M22.474198664972604 125.84305959903233 A 78.125 78.125, 0, 0, 0, 26.63608510700675 133.77287168904894"/>
  <path d="M58.21033287023252 53.8446330673479 L 49.54558574118722 44.12536056966858 L 49.524527118740856 44.100723284617324 L 49.4634315884687 44.025084271909975 L 49.365509194124805 43.89596396333834 L 49.23408435778728 43.71103492343666 L 49.072589466425136 43.46812652888548 L 48.88455827922508 43.16522939442829 L 48.673619165294824 42.800499538716174 L 48.44348818159464 42.37226228385093 L 48.19796200117142 41.879015882760676 L 47.94091070197724 41.319434868910854 L 47.67627042675187 40.69237312323289 L 47.408035924629026 39.99686665353689 L 47.14025298529571 39.23213608206572 L 46.8770107766873 38.39758883724447 L 46.62243409734177 37.49282104608218 L 46.38067555466076 36.51761912408842 L 46.15590768043744 35.47196105998073 L 45.952314995106384 34.356017392871465 L 45.774086032252214 33.17015188004325 L 45.62540533498031 31.91492185384226"/>
  <path d="M49.92284942141452 63.199268080404295 L 39.23002150900414 55.76922555495253 L 39.20302552105964 55.75129017012433 L 39.1205737495196 55.699757370544965 L 38.980591633037385 55.618112674055624 L 38.781169420573335 55.509936805299034 L 38.520566043626474 55.378898765007676 L 38.19721271522239 55.228748751913315 L 37.809716250279315 55.06331094761791 L 37.3568621023561 54.886476174956925 L 36.83761711217288 54.70219444056269 L 36.25113196368719 54.51446737249758 L 35.59674334390774 54.32734056397672 L 34.87397580303209 54.14489583433336 L 34.08254331190234 53.97124341849998 L 33.22235051418547 53.81051409638422 L 32.293493671101814 53.66685127360817 L 31.296261296942987 53.54440302515548 L 30.231134484044183 53.44731411353157 L 29.09878691629723 53.379717993087276 L 27.900084570718022 53.345728812186245 L 26.636085107006764 53.3494334249124"/>
  <path d="M49.92284942141452 123.92303703355702 A 53.20791046635142 53.20791046635142, 0, 0, 0, 58.21033287023252 133.27767204661342"/>
  <path d="M45.62540533498029 155.20738326011906 A 78.125 78.125, 0, 0, 0, 52.99574019134738 160.29475808849386"/>
  <path d="M80.72321738013542 41.93930910818544 L 77.5677359690402 29.30661193938269 L 77.56053900216268 29.275010277056182 L 77.54159279865834 29.179642748854235 L 77.5148920239148 29.01980558788165 L 77.4844619206854 28.79498288835434 L 77.45435045564847 28.50484776853456 L 77.42862042505936 28.149263225917608 L 77.41134153106944 27.72828268330791 L 77.40658244033092 27.24215022484759 L 77.41840283653337 26.691300521484393 L 77.4508454785317 26.076358445790447 L 77.50792827572167 25.398138376469987 L 77.59363639230293 24.657643193318776 L 77.71191439203604 23.856062963822225 L 77.86665843505118 22.99477332300266 L 78.06170853820593 22.07533354854722 L 78.30084091040801 21.09948433366587 L 78.58776037422899 20.069145260546236 L 78.92609288502486 18.98641197768285 L 79.31937815865857 17.853553084767114 L 79.77106241878145 16.673006729228746"/>
  <path d="M69.03769956629901 46.371041451687795 L 63.022583590830436 34.822860621093426 L 63.00701481956571 34.794433965374864 L 62.95795588771462 34.710486688657824 L 62.871950061524856 34.57314096698768 L 62.74564229471659 34.38467986901461 L 62.57578587803602 34.14754301866879 L 62.359248915353234 33.86432200035563 L 62.09302061673821 33.537755513327305 L 61.774217399196175 33.17072428223359 L 61.40008878600564 32.766245731190594 L 60.96802309587254 32.32746842903332 L 60.47555291340014 31.857666313734036 L 59.92036033266783 31.360232704276605 L 59.3002819660184 30.83867410857139 L 58.613313710470585 30.296603836280653 L 57.857615264498165 29.737735425698872 L 57.03151438825493 29.16587589409191 L 56.133510900668995 28.58491882115122 L 55.16228040718442 27.99883727545364 L 54.11667775229017 27.41167659404391 L 52.99574019134739 26.827547025467467"/>
  <path d="M69.03769956629901 140.75126366227352 A 53.20791046635142 53.20791046635142, 0, 0, 0, 80.72321738013542 145.18299600577586"/>
  <path d="M79.77106241878145 170.44929838473257 A 78.125 78.125, 0, 0, 0, 88.66139079605153 171.52877968779785"/>
  <path d="M106.19006653877439 41.8599273724886 L 109.26673360923778 29.20780421343065 L 109.27504703630788 29.176477733826573 L 109.3025905064677 29.083229241537765 L 109.35322817703906 28.92929199549647 L 109.43076397684513 28.716079807397975 L 109.53893411189085 28.445184421753112 L 109.68139967784019 28.118372604431627 L 109.86173939017047 27.737582943870706 L 110.08344244272854 27.30492236951737 L 110.34990150523791 26.822662392463144 L 110.66440587012312 26.293235073611186 L 111.03013475881446 25.71922872509171 L 111.45015079748588 25.103383351010834 L 111.92739367195098 24.448585833977603 L 112.46467397120279 23.757864874206092 L 113.06466722883358 23.03438568833485 L 113.72990817130474 22.281444475437297 L 114.46278518176301 21.502462658025564 L 115.26553498781122 20.700980906161476 L 116.14023758134465 19.880652953095563 L 117.0888113782537 19.04523921114773"/>
  <path d="M93.78352566531363 40.353500574704974 L 93.82411220676096 27.332730496591395 L 93.82353727004872 27.300324774229253 L 93.81910998794943 27.203194329796062 L 93.80678335034962 27.041611832584394 L 93.78252561639933 26.816039671738025 L 93.74232821805484 26.527129205943098 L 93.68221362969068 26.175719704523402 L 93.5982431922176 25.762836981387593 L 93.48652488020036 25.289691723698837 L 93.3432210005459 24.757677517556104 L 93.16455581141886 24.16836857339115 L 92.94682305014891 23.523517154199226 L 92.68639335900976 22.82505071012963 L 92.37972159788563 22.0750687233662 L 92.02335403298794 21.27583926762732 L 91.6139353909455 20.42979528700961 L 91.1482157677704 19.539530599285115 L 90.6230573823881 18.607795629146608 L 90.03544116462693 17.63749287726675 L 89.38247316777593 16.63167213140605 L 88.66139079605153 15.593525426163453"/>
  <path d="M93.78352566531363 146.76880453925634 A 53.20791046635142 53.20791046635142, 0, 0, 0, 106.19006653877439 145.26237774147273"/>
  <path d="M117.0888113782537 168.0770659028136 A 78.125 78.125, 0, 0, 0, 125.46246618526564 164.90135752319705"/>
  <path d="M128.77673211270806 53.62467325925193 L 137.38072031674452 43.85157305106589 L 137.40263963180814 43.827698273136534 L 137.4703628985533 43.757930922578105 L 137.58673853436176 43.64515875939121 L 137.75447771987538 43.49240142552952 L 137.97614898065626 43.302804642267475 L 138.25417299888122 43.07963419908048 L 138.59081766276597 42.826269742789954 L 138.988193361091 42.546198376002785 L 139.44824852986622 42.243008074137926 L 139.97276545783154 41.92038093058609 L 140.563356357136 41.582086239787 L 141.22145970517994 41.23197342823708 L 141.94833686323722 40.873964843653944 L 142.7450689770966 40.51204841272422 L 143.61255416458283 40.1502701780509 L 144.55150499442536 39.792726725086716 L 145.56244626055033 39.44355751000333 L 146.64571305546917 39.10693709958843 L 147.80144914603278 38.78706733439623 L 149.02960565440958 38.488169426492185"/>
  <path d="M118.49135717870715 46.5251915451436 L 124.57834834954564 35.0147337271166 L 124.59289895845791 34.98577269857276 L 124.63411756308484 34.897710500694295 L 124.69829399819702 34.74890783077211 L 124.78164345161534 34.537900470663104 L 124.88031381113647 34.26340229538416 L 124.99039312482584 33.9243079926896 L 125.10791716376632 33.519695489540496 L 125.22887707620544 33.04882808177473 L 125.3492271219169 32.51115626369334 L 125.46489247547602 31.906319254686224 L 125.5717770870512 31.2341462204365 L 125.6657715892272 30.49465718665794 L 125.74276123830654 29.68806364374104 L 125.7986338784823 28.814768841104737 L 125.82928791723229 27.875367770475336 L 125.83064030026483 26.870646837738448 L 125.79863447433263 25.801583223437262 L 125.72924832624085 24.669343932415018 L 125.61850208639426 23.47528453352598 L 125.4624661852657 22.22094759076431"/>
  <path d="M118.49135717870715 140.59711356881772 A 53.20791046635142 53.20791046635142, 0, 0, 0, 128.77673211270806 133.4976318547094"/>
  <path d="M149.02960565440958 148.63413568746915 A 78.125 78.125, 0, 0, 0, 154.96828348835692 141.93075414350614"/>
  <path d="M143.308881217776 74.53838526637554 L 155.46912054713903 69.88320748813156 L 155.4996242992715 69.87225383577827 L 155.5920127783445 69.84195048617542 L 155.74746612370478 69.79617814937716 L 155.96698166900114 69.73887053401455 L 156.25137184110054 69.67400669129172 L 156.6012623595784 69.60560328127795 L 157.01709073952964 69.5377067728213 L 157.49910510003167 69.47438558850537 L 158.04736328017214 69.41972220614787 L 158.66173226413497 69.37780522840532 L 159.34188791641378 69.35272143209572 L 160.08731502779847 69.34854780888605 L 160.8973076723563 69.36934360900987 L 161.77096987520096 69.41914239968213 L 162.7072165904193 69.50194414987004 L 163.7047749881005 69.6217073530476 L 164.7621860489859 69.78234119952295 L 165.8778064648395 69.98769780986758 L 167.04981084221498 70.24156454090605 L 168.2761942068808 70.54765637563635"/>
  <path d="M137.50092766840953 63.47225433861517 L 148.23986714759587 56.10901595073054 L 148.2662099329847 56.090134238626156 L 148.34363173875587 56.03131427557186 L 148.4696091987057 55.92938033135176 L 148.64147148418428 55.78127701526674 L 148.8564054113115 55.58407535439855 L 149.11146078288772 55.3349786686471 L 149.40355595723867 55.031328233846914 L 149.72948363591934 54.670608724555855 L 150.0859168618995 54.25045342841042 L 150.46941521956296 53.768649224248556 L 150.87643122757066 53.22314131652442 L 151.3033169153698 52.61203771886663 L 151.74633057387442 51.93361347997257 L 152.20164367059766 51.186314645379575 L 152.66534791928365 50.36876194900954 L 153.13346249386905 49.47975422875045 L 153.601941376396 48.51827156070976 L 154.06668082830774 47.4834781071557 L 154.52352697437752 46.374724673548116 L 154.9682834883569 45.1915509704552"/>
  <path d="M137.50092766840953 123.65005077534614 A 53.20791046635142 53.20791046635142, 0, 0, 0, 143.308881217776 112.58391984758578"/>
  <path d="M168.27619420688083 116.57464873832497 A 78.125 78.125, 0, 0, 0, 170.41941554483253 107.8792579572324"/>
  <circle cx="93.61767414043932" cy="93.56115255698066" r="31.25"/>
</svg>
