<?xml version='1.0' encoding='ASCII'?>
<svg version="1.1" xmlns="http://www.w3.org/2000/svg" width="411.97502979307967" height="412.41168791388884">
  <path d="M350.9516851361848 213.09423216343282 L 363.957798823866 213.71318889661683 L 363.9941301491257 213.7154394958024 L 364.10297480713405 213.72427002310437 L 364.28403356640047 213.74279239545442 L 364.53690706812677 213.77410799702918 L 364.8610961559148 213.82130481606197 L 365.2560022822199 213.88745459128629 L 365.7209279912826 213.97560996998575 L 366.2550774782194 214.08880167961735 L 366.8575572239067 214.23003571496764 L 367.5273767052408 214.40229054279058 L 368.26344918030907 214.6085143258656 L 369.064592547959 214.85162216840223 L 369.92953028120405 215.1344933847043 L 370.85689243385605 215.45996879299264 L 371.84521671972834 215.8308480362688 L 372.8929496637047 216.24988693208684 L 373.99844782392483 216.71979485308105 L 375.15997908428835 217.24323214007939 L 376.3757240164367 217.8228075496113 L 377.643777310323 218.46107573759863"/>
  <path d="M350.9516851361848 199.31745575045602 L 363.957798823866 198.698499017272 L 363.9941301491257 198.69624841808644 L 364.10297480713405 198.68741789078447 L 364.28403356640047 198.66889551843443 L 364.53690706812677 198.63757991685966 L 364.8610961559148 198.59038309782687 L 365.2560022822199 198.52423332260256 L 365.7209279912826 198.4360779439031 L 366.2550774782194 198.3228862342715 L 366.8575572239067 198.1816521989212 L 367.5273767052408 198.00939737109826 L 368.26344918030907 197.80317358802324 L 369.064592547959 197.5600657454866 L 369.92953028120405 197.27719452918453 L 370.85689243385605 196.9517191208962 L 371.84521671972834 196.58083987762004 L 372.8929496637047 196.161800981802 L 373.99844782392483 195.69189306080779 L 375.15997908428835 195.16845577380946 L 376.3757240164367 194.58888036427754 L 377.643777310323 193.9506121762902"/>
  <path d="M350.9516851361848 213.09423216343282 A 144.9092480351457 144.9092480351457, 0, 0, 0, 350.9516851361848 199.31745575045602"/>
  <path d="M377.643777310323 193.9506121762902 A 171.875 171.875, 0, 0, 0, 376.60140112636503 183.70009038763232"/>
  <path d="M346.60211527457375 242.0902678348983 L 359.21739797660257 245.31466592482695 L 359.2525325552144 245.3241838961226 L 359.35737158460154 245.3547439305886 L 359.5309955342864 245.40933400917788 L 359.77238891632396 245.49091164021584 L 360.0804411846155 245.60240112119095 L 360.4539477074585 245.74669082542948 L 360.89161081267343 245.92663051553353 L 361.3920409045975 246.14502868544574 L 361.95375765219427 246.4046499329855 L 362.57519124747637 246.70821236468248 L 363.2546837333974 247.05838503471207 L 363.9904904003219 247.45778541971674 L 364.7807812501371 247.90897693127422 L 365.6236425270305 248.41446646774912 L 366.51707831390627 248.97670200724093 L 367.45901219338 249.59807024331468 L 368.447288972241 250.2808942651733 L 369.4796764682359 251.027431283904 L 370.55386735798265 251.83987040640093 L 371.6674810847866 252.72033045853638"/>
  <path d="M349.37535997809834 228.59550284444634 L 362.23983282890487 230.6073276293879 L 362.2758734920874 230.61243654210747 L 362.3842676656295 230.6256970447948 L 362.56534866759955 230.64400068678432 L 362.8193496181426 230.66422917908068 L 363.14640318608247 230.6832572653068 L 363.54654141263916 230.6979555986666 L 364.01969561239423 230.70519362293354 L 364.5656963515886 230.7018424554743 L 365.18427350378965 230.68477777031504 L 365.8750563829095 230.65088267925628 L 366.6375739535108 230.59705060904517 L 367.4712551182844 230.52018817261404 L 368.3754290825342 230.4172180323987 L 369.3493257954549 230.28508175375399 L 370.39207646793693 230.12074264648967 L 371.5027141665861 229.92118859255712 L 372.6801744835953 229.6834348579246 L 373.92329628205414 229.40452688668967 L 375.23082251623805 229.08154307548625 L 376.60140112636503 228.71159752625653"/>
  <path d="M349.3753599780983 183.8161850694425 A 144.9092480351457 144.9092480351457, 0, 0, 0, 346.6021152745737 170.32142007899057"/>
  <path d="M371.6674810847866 159.69135745535246 A 171.875 171.875, 0, 0, 0, 368.5830275363578 149.86049323310738"/>
  <path d="M336.5047222944522 269.6171909765595 L 348.21270285477476 275.3150231865805 L 348.2452022729623 275.3314188631231 L 348.341743551547 275.38245727335135 L 348.5008245067503 275.4708801339484 L 348.72085509567603 275.5993799966499 L 349.0001588484125 275.77059774711677 L 349.33697436686316 275.98712014292465 L 349.72945688927956 276.25147739237843 L 350.1756799194295 276.56614077583436 L 350.6736369192902 276.93352031118513 L 351.2212430641141 277.35596246513535 L 351.81633705867745 277.8357479118649 L 352.4566830134788 278.37508934064806 L 353.1399723796177 278.976129313965 L 353.8638259410443 279.6409381776107 L 354.6257958628347 280.3715120242715 L 355.42336779410755 281.16977071200836 L 356.2539630241654 282.03755593904805 L 357.11494069040515 282.97662937625 L 358.003600036512 283.9886708585794 L 358.9171827194142 285.07527663687887"/>
  <path d="M341.93767473749665 256.95691467290914 L 354.1338337214051 261.51715663290133 L 354.1681082135253 261.5294158980391 L 354.2716142324005 261.56422454417765 L 354.4453039995775 261.6186048472531 L 354.690033570178 261.68954927656915 L 355.0065620067712 261.7740232559684 L 355.3955506275701 261.8689679464176 L 355.8575623294862 261.971303048087 L 356.3930609865232 262.07792961998973 L 357.0024109239472 262.1857329152369 L 357.68587646861806 262.2915852299528 L 358.44362157582 262.392348763885 L 359.27570953287795 262.48487849073786 L 360.18210273980026 262.5660250362481 L 361.1626625671347 262.6326375620201 L 362.21714929117695 262.6815666531281 L 363.3452221066219 262.70966720749556 L 364.54643921669617 262.7138013250555 L 365.8202580007608 262.6908411946966 L 367.1660352593249 262.63767197700133 L 368.5830275363578 262.55119468078146"/>
  <path d="M341.93767473749665 155.4547732409797 A 144.9092480351457 144.9092480351457, 0, 0, 0, 336.5047222944522 142.7944969373293"/>
  <path d="M358.9171827194142 127.33641127700999 A 171.875 171.875, 0, 0, 0, 353.9169296971952 118.32768135751397"/>
  <path d="M321.0728946508197 294.5480461207208 L 331.3942469696671 302.48604253068896 L 331.4227806974312 302.5086446715544 L 331.5070718139251 302.5780719390335 L 331.6450969816496 302.6967075393362 L 331.8347566993003 302.8668688342242 L 332.0738772080281 303.0908051793614 L 332.3602124551868 303.370695814414 L 332.6914461142222 303.7086478063642 L 333.0651936593147 304.1066940474737 L 333.47900449335754 304.56679130929297 L 333.9303641278131 305.0908183540789 L 334.41669641296073 305.680574104947 L 334.9353658170121 306.3377758760443 L 335.48367975254166 307.0640576639939 L 336.0588909486476 307.86096850182093 L 336.6581998672268 308.7299708765297 L 337.2787571617218 309.6724392114624 L 337.917666176667 310.6896584145277 L 338.5719854863353 311.78282249334535 L 339.23873147075955 312.9530332383108 L 339.91488092738064 314.20129897453995"/>
  <path d="M328.94312912202105 283.24057170326273 L 339.9716620572423 290.1625339966578 L 340.0027671765656 290.1814417184586 L 340.0971474921998 290.23637343798566 L 340.25633514510776 290.3246040661497 L 340.481774078391 290.4433599592137 L 340.77481867225276 290.5898214571442 L 341.13673244745405 290.7611254579003 L 341.5686868381707 290.9543680258859 L 342.0717600351129 291.1666070327687 L 342.6469358997261 291.39486482884854 L 343.2951029502454 291.63613094313746 L 344.0170534203278 291.8873648102947 L 344.813482390942 292.1454985225423 L 345.6849869961487 292.40743960467074 L 346.6320657033549 292.6700738102276 L 347.6551176685782 292.930267936969 L 348.7544421672118 293.1848726596391 L 349.9302381007276 293.4307253781328 L 351.18260357971104 293.6646530790846 L 352.51153558356754 293.883475208917 L 353.9169296971952 294.0840065563749"/>
  <path d="M328.943129122021 129.17111621062614 A 144.9092480351457 144.9092480351457, 0, 0, 0, 321.0728946508197 117.86364179316803"/>
  <path d="M339.91488092738064 98.2103889393489 A 171.875 171.875, 0, 0, 0, 333.20353937760586 90.39261178398691"/>
  <path d="M300.93841318056934 315.86216112852907 L 309.4505798813006 325.71533923274535 L 309.47397974447404 325.74322250363093 L 309.542569810664 325.8281962678729 L 309.65388842432577 325.97218765246583 L 309.8054125795769 326.1770439561344 L 309.99456022257306 326.4445309156607 L 310.2186925997782 326.7763310344731 L 310.47511665051337 327.1740419746617 L 310.7610874421389 327.63917501354535 L 311.07381064619744 328.17315356587505 L 311.4104450538176 328.77731177271266 L 311.76810512865393 329.4528931579854 L 312.1438635956123 330.2010493536701 L 312.53475406358797 331.0228388945193 L 312.93777368042015 331.919226083194 L 313.34988581824575 332.8910799266267 L 313.7680227874138 333.9391731443877 L 314.1890885771061 335.06418124978694 L 314.60996162078567 336.2666817043922 L 315.0274975845857 337.54715314660086 L 315.43853217672734 338.9059746948535"/>
  <path d="M310.92372135596327 306.37041792848584 L 320.3331188083318 315.3707146056962 L 320.35978110761846 315.39549669980795 L 320.4411717788003 315.46830258167176 L 320.5793401562254 315.5867713626408 L 320.7762589557748 315.7484768392374 L 321.0338224268012 315.9509297047654 L 321.3538445639252 316.19157980991 L 321.738057379934 316.4678184707735 L 322.1881092409898 316.77698082275765 L 322.70556326531465 317.11634821867955 L 323.2918957864777 317.483150669475 L 323.9484948823698 317.874569325817 L 324.67665897090694 318.28773899895054 L 325.4775954734635 318.719750719018 L 326.3524195469914 319.16765432912615 L 327.30215288573606 319.62846111338064 L 328.3277225934189 320.0991464570924 L 329.429960126708 320.5766525373383 L 330.609600310754 321.0578910420384 L 331.86728042752213 321.53974591569266 L 333.20353937760586 322.0190761299019"/>
  <path d="M310.9237213559632 106.041269985403 A 144.9092480351457 144.9092480351457, 0, 0, 0, 300.93841318056934 96.54952678535977"/>
  <path d="M315.43853217672734 73.50571321903536 A 171.875 171.875, 0, 0, 0, 307.29086521099373 67.19894954309768"/>
  <path d="M276.9255859207943 332.6869336272625 L 283.2800778985443 344.05190315644097 L 283.2973859039793 344.08392601296055 L 283.3474668344967 344.1809674380733 L 283.427521496973 344.34441958275295 L 283.5347066731051 344.5755840540603 L 283.66613772364155 344.8756706804243 L 283.8188912250359 345.2457963471476 L 283.99000763670523 345.6869839029541 L 284.17649399705454 346.20016113834924 L 284.3753266464112 346.78615983651724 L 284.58345397499517 347.44571489743294 L 284.7977991940331 348.17946353581976 L 285.0152631281114 348.98794455353595 L 285.23272702684653 349.87159768692607 L 285.4470553939391 350.8307630296232 L 285.6550988316673 351.86568053124165 L 285.8536968988618 352.97648957235015 L 286.03968098039786 354.16322861606545 L 286.20987716623017 355.425834936559 L 286.3611091379896 356.76414442471787 L 286.490201061155 358.1778914711537"/>
  <path d="M288.6171681104562 325.39951472647635 L 296.0222082427148 336.1096725840471 L 296.0433361642994 336.139314468625 L 296.10840504738763 336.22701383146784 L 296.2198975197241 336.3708706394294 L 296.38023430674906 336.5689054583472 L 296.59177197617385 336.8190612473707 L 296.85680073132556 337.1192052133241 L 297.17754225479604 337.4671307238331 L 297.55614760389506 337.86055927790323 L 297.99469515937744 338.2971425326042 L 298.49518862887675 338.77446438447305 L 299.0595551064456 339.29004310421954 L 299.68964318956523 339.8413335232756 L 300.38722115495096 340.4257292707033 L 301.15397519444286 341.04056505893834 L 301.9915077122317 341.6831190168161 L 302.901335684632 342.3506150682948 L 303.8848890835742 343.04022535526303 L 304.94350936494595 343.74907270278595 L 306.0784480228742 344.4742331251191 L 307.29086521099373 345.21273837079116"/>
  <path d="M288.6171681104562 87.01217318741251 A 144.9092480351457 144.9092480351457, 0, 0, 0, 276.9255859207943 79.72475428662638"/>
  <path d="M286.490201061155 54.23379644273513 A 171.875 171.875, 0, 0, 0, 277.2397751223499 49.69624589212796"/>
  <path d="M250.0175008408971 344.33355545399604 L 253.95416444747562 356.745033220285 L 253.96467200339623 356.77988464293 L 253.99419347906127 356.88502084156767 L 254.03970674306436 357.061241996326 L 254.09816476637297 357.3092507346562 L 254.16649842179817 357.6296514461159 L 254.24161930108687 358.0229496724664 L 254.32042254769127 358.4895515735187 L 254.3997897032604 359.0297634691125 L 254.47659156588873 359.64379145756385 L 254.5476910581503 360.3317411108693 L 254.60994610293795 361.0936172469029 L 254.66021250512418 361.9293237787929 L 254.69534683705353 362.83866364161815 L 254.71220932587522 363.8213387965104 L 254.70766674072146 364.87695031220085 L 254.67859527773712 366.0049985239993 L 254.62188344096668 367.20488327014505 L 254.53443491710647 368.4759042054159 L 254.4131714421325 369.8172611918351 L 254.2550356578196 371.22805476626485"/>
  <path d="M262.9367022962797 339.54880863850053 L 268.0342218953584 351.5303525553526 L 268.0489504596488 351.56364068815924 L 268.0950336269246 351.66264310976214 L 268.1752856792551 351.82599843009575 L 268.2924762468561 352.0522550225802 L 268.4493277376384 352.3398723277046 L 268.64851280244244 352.68722222523525 L 268.8926518377182 353.0925904741099 L 269.18431052738407 353.55417821903666 L 269.5259974255753 354.0701035627727 L 269.92016158196407 354.6384032030166 L 270.3691902113078 355.25703413280314 L 270.8754064088548 355.9238754032517 L 271.44106691320485 356.6367299474764 L 272.0683599181942 357.3933264644279 L 272.759402935343 358.1913213613965 L 273.5162407083705 359.02830075386714 L 274.34084318125036 359.9017825213835 L 275.23510352124606 360.8092184180356 L 276.20083619832917 361.74799623615456 L 277.2397751223499 362.71544202176085"/>
  <path d="M262.9367022962797 72.86287927538831 A 144.9092480351457 144.9092480351457, 0, 0, 0, 250.0175008408971 68.07813245989283"/>
  <path d="M254.2550356578196 41.18363314762399 A 171.875 171.875, 0, 0, 0, 244.28056427075657 38.6010635750288"/>
  <path d="M221.31577810561453 350.3252125427233 L 222.67344587042996 363.2750711880841 L 222.6767227962621 363.3113243555168 L 222.6844762043925 363.42025103935396 L 222.69358475154647 363.6020266894101 L 222.70092234368877 363.8567261878761 L 222.70336101612082 364.1843237416588 L 222.69777381567945 364.5846928520392 L 222.68103768304397 365.057606361685 L 222.65003633315865 365.6027365789995 L 222.60166313177882 366.21965547974185 L 222.53282396615094 366.9078349858001 L 222.44044010784003 367.66664732095455 L 222.32145106572264 368.49536544341134 L 222.17281742716898 369.3931635548448 L 221.99152368544614 370.3591176856316 L 221.77458105138032 371.39220635591244 L 221.51903024732746 372.4913113120698 L 221.2219442815113 373.6552183381583 L 220.88043120080016 374.88261814177775 L 220.49163682000608 376.17210731383057 L 220.05274742580485 377.5221893615559"/>
  <path d="M234.93368520119276 348.2390259093288 L 237.51499121577217 361.0014300697344 L 237.52271743361575 361.0370016307017 L 237.5479282347963 361.14325394029186 L 237.5936543386692 361.3194199869897 L 237.66290089123936 361.56463538156044 L 237.75864468491724 361.8779391165203 L 237.88383139941726 362.2582744000114 L 238.04137286570895 362.70448956351413 L 238.23414435491836 363.21533904278573 L 238.46498189406012 363.78948443136585 L 238.73667961046337 364.4254956059408 L 239.051987106738 365.12185192281595 L 239.41360686810697 365.87694348469427 L 239.8241917039109 366.68907247691845 L 240.28634222506963 367.55645457228616 L 240.80260435926232 368.4772204035032 L 241.37546690556454 369.4494171022972 L 242.00735913025574 370.4710099041698 L 242.7006484054848 371.53988381772297 L 243.45763789245422 372.65384535745227 L 244.28056427075657 373.81062433886007"/>
  <path d="M234.93368520119276 64.1726620045601 A 144.9092480351457 144.9092480351457, 0, 0, 0, 221.31577810561453 62.08647537116556"/>
  <path d="M220.05274742580485 34.88949855233295 A 171.875 171.875, 0, 0, 0, 209.7625866210209 34.367640659490746"/>
  <path d="M191.9954696160383 350.416605748242 L 190.71855846127988 363.37467653818976 L 190.714470599295 363.41084724147584 L 190.70013851445086 363.51910493927795 L 190.67246943976505 363.69899316816077 L 190.6283861988566 363.94995599936954 L 190.56483004875957 364.2713385131323 L 190.47876350923067 364.66238734912224 L 190.36717317659185 365.1222513327115 L 190.22707252015888 365.6499821766 L 190.05550465931896 366.2445352573519 L 189.84954511933074 366.90477046632736 L 189.60630456393517 367.6294531344447 L 189.32293150287902 368.4172550301647 L 188.99661497246845 369.2667554300375 L 188.62458718728834 370.1764422611095 L 188.2041261612388 371.14471331443673 L 187.73255829606126 372.1698775289086 L 187.207260935546 373.2501563445385 L 186.62566488363436 374.38368512433317 L 185.98525688465125 375.56851464380713 L 185.2835820639276 376.80261264716626"/>
  <path d="M205.754563635283 351.114388022836 L 205.7139770938357 364.13515810094964 L 205.71438465296617 364.1715567861919 L 205.71769095488898 364.28070900173054 L 205.72701907823915 364.4624735161423 L 205.74548665378006 364.71660856573396 L 205.77620298819102 365.04277203880844 L 205.82226619358656 365.4405217370663 L 205.88676032475385 365.90931571397516 L 205.97275252608884 366.44851268988816 L 206.08329019020636 367.05737254364453 L 206.22139813019146 367.7350568803354 L 206.39007576745252 368.4806296748678 L 206.59229433712443 369.2930579909131 L 206.8309941129628 370.17121277477406 L 207.1090816536543 371.1138697236606 L 207.42942707245874 372.11971022781074 L 207.7948613320816 373.18732238585113 L 208.20817356666112 374.31520209273924 L 208.67210843273756 375.5017541995852 L 209.1893634910543 376.7452937446035 L 209.7625866210209 378.0440472543981"/>
  <path d="M205.754563635283 61.29729989105283 A 144.9092480351457 144.9092480351457, 0, 0, 0, 191.9954696160383 61.99508216564686"/>
  <path d="M185.2835820639276 35.609075266722584 A 171.875 171.875, 0, 0, 0, 175.0990122338131 37.16929397708205"/>
  <path d="M163.25695224672157 344.6039934219799 L 159.39773906509583 357.0397714158655 L 159.38645377284388 357.07437882216254 L 159.3506229522627 357.1775354510619 L 159.28730903090573 357.348171613545 L 159.19360973000886 357.58512332969985 L 159.06666075363526 357.8871333655685 L 158.90363844925957 358.2528523418762 L 158.70176243794688 358.68083991388914 L 158.45829821230183 359.16956602159695 L 158.17055970038294 359.7174122093755 L 157.8359117938007 360.32267301423826 L 157.45177283823793 360.98355742173936 L 157.01561708465758 361.69819038854894 L 156.52497709948568 362.46461443067824 L 155.97744613208496 363.2807912762877 L 155.37068043786024 364.14460358197107 L 154.7024015553653 365.05385671136526 L 153.97039853581026 366.00628057489735 L 153.172530123398 366.9995315294384 L 152.30672688494897 368.0311943365947 L 151.37099328730662 369.09878417832977"/>
  <path d="M176.59393426386004 348.05717731625475 L 173.9331167841615 360.80324145520274 L 173.9261889990602 360.8389770982696 L 173.90745544133608 360.9465605152278 L 173.88000368969756 361.1264820367769 L 173.84693622349678 361.3791324225996 L 173.81136756830097 361.70480246287843 L 173.77642143155094 362.10368265652284 L 173.74522783028613 362.5758629663423 L 173.72092021292042 363.12133265134975 L 173.70663257705706 363.73998017633164 L 173.70549658533406 364.43159319876963 L 173.72063868129322 365.1958586331501 L 173.75517720726606 366.0323627926473 L 173.81221952627004 366.940591608115 L 173.89485914990448 367.9199309242754 L 174.00617287423586 368.9696668729374 L 174.1492179256537 370.088986323035 L 174.32702911867568 371.2769774072183 L 174.54261602767235 372.5326301246889 L 174.798960174474 373.85483701991336 L 175.0990122338131 375.2423939368068"/>
  <path d="M176.59393426386004 64.35451059763409 A 144.9092480351457 144.9092480351457, 0, 0, 0, 163.25695224672157 67.80769449190893"/>
  <path d="M151.37099328730662 43.312903735559075 A 171.875 171.875, 0, 0, 0, 141.70897191734264 46.89132351180021"/>
  <path d="M136.2767842753966 333.12534459552717 L 129.99326570799758 344.5297075811392 L 129.97524500666935 344.561334859167 L 129.91938236835566 344.65516717465607 L 129.82301567970694 344.80956540619854 L 129.68353637920956 345.02280517619954 L 129.49839188256797 345.29307840782076 L 129.26508796564093 345.6184949465861 L 128.981191103277 345.9970842455382 L 128.64433076242352 346.4267971127928 L 128.2522016479115 346.90550752030117 L 127.80256589935017 347.43101447258505 L 127.29325523759533 348.0010439341761 L 126.72217305928852 348.6132508144483 L 126.087296477996 349.2652210084983 L 125.38667831051225 349.9544734926893 L 124.61844900692577 350.6784624734405 L 123.78081852308223 351.43457958780687 L 122.8720781341147 352.22015615436305 L 121.89060218775148 353.0324654728696 L 120.83484979614623 353.868725171168 L 119.70336646501667 354.7260995977218"/>
  <path d="M148.6456366796183 339.19255635511934 L 143.47352244192024 351.14208919145415 L 143.45954293692313 351.1756987709197 L 143.41953647360646 351.27730891156665 L 143.35642872491673 351.44802143202105 L 143.27318000292578 351.6888436175941 L 143.17278254304603 352.00068725536363 L 143.05825776309499 352.3843677424003 L 142.93265349909896 352.8406032677675 L 142.7990412197435 353.3700140688753 L 142.66051322139026 353.973121762722 L 142.52017980559376 354.6503487525074 L 142.38116644106336 355.40201771005513 L 142.24661091202572 356.2283511344292 L 142.11966045495302 357.129470987086 L 142.0034688856291 358.1053984038491 L 141.90119371853444 359.15605348394615 L 141.81599328053517 360.2812551562994 L 141.75102382086538 361.4807211232086 L 141.7094366193976 362.7540678815176 L 141.6943750951949 364.1008108213049 L 141.70897191734264 365.5203644020886"/>
  <path d="M148.6456366796183 73.21913155876953 A 144.9092480351457 144.9092480351457, 0, 0, 0, 136.2767842753966 79.28634331836169"/>
  <path d="M119.70336646501667 57.685588316166985 A 171.875 171.875, 0, 0, 0, 110.95945784532891 63.13570823220391"/>
  <path d="M112.15953694884462 316.45059650052275 L 103.70896098410374 326.3566485172743 L 103.68494264332894 326.3840008425546 L 103.61133521025887 326.46466733861234 L 103.48586101787426 326.59650655747384 L 103.3063120167269 326.7773043200825 L 103.07055183726341 327.004775729598 L 102.77651779755604 327.27656723948917 L 102.42222285504248 327.5902587749988 L 102.00575750091457 327.94336590652586 L 101.52529159583074 328.3333420734345 L 100.97907614566638 328.7575808567685 L 100.36544501605319 329.21341829931634 L 99.68281658449908 329.69813527144163 L 98.92969532891885 330.20895988106463 L 98.10467335144796 330.7430699261507 L 97.20643183645177 331.29759538803273 L 96.23374244168552 331.8696209638691 L 95.1854686216023 332.45618863651333 L 94.06056688185082 333.0543002800433 L 92.85808796404727 333.6609202991792 L 91.57717795995062 334.2729783007915"/>
  <path d="M123.05387746944226 324.8834437631274 L 115.58221343833364 335.54723001851914 L 115.56175453601784 335.577337554251 L 115.50211303641733 335.66881448748995 L 115.40593292932265 335.8233290162043 L 115.27591116400113 336.04246371295494 L 115.1147951832412 336.32771403304486 L 114.9253804180364 336.680486889254 L 114.71050774463498 337.10209929415504 L 114.47306090570537 337.59377707096263 L 114.21596389739119 338.15665363382584 L 113.94217832405238 338.79176883842615 L 113.65470072250967 339.50006790370173 L 113.35655985762992 340.2824004054687 L 113.05081399110917 341.1395193426698 L 112.74054812532692 342.0720802769267 L 112.42887122416398 343.08064054603295 L 112.11891341268982 344.1656585519701 L 111.81382315764074 345.3274931239885 L 111.51676443062289 346.56640295723895 L 111.23091385598642 347.88254612739877 L 110.95945784532891 349.27597968168493"/>
  <path d="M123.05387746944227 87.52824415076147 A 144.9092480351457 144.9092480351457, 0, 0, 0, 112.15953694884463 95.96109141336609"/>
  <path d="M91.57717795995062 78.13870961309732 A 171.875 171.875, 0, 0, 0, 84.10935873679468 85.23740111920566"/>
  <path d="M91.89257320627088 295.2624152831758 L 81.62090741708514 303.26460139758944 L 81.59187475055711 303.28655896271147 L 81.50353601968907 303.35075714351143 L 81.35409125174739 303.45463983658124 L 81.1418233071531 303.5955937101535 L 80.8650994943156 303.77095059133103 L 80.52237311996107 303.97798989599886 L 80.11218497387229 304.21394109974517 L 79.63316474700052 304.4759862480915 L 79.08403238195137 304.76126250430696 L 78.46359935489133 305.0668647330556 L 77.77076988796475 305.38984811810366 L 77.00454209135657 305.72723081229134 L 76.16400903418008 306.07599661795007 L 75.2483597434157 306.4330976959301 L 74.25688013017262 306.79545730137943 L 73.18895384259159 307.15997254440106 L 72.04406304475378 307.52351717369635 L 70.8217891210098 307.8829443812886 L 69.52181330518815 308.2350896264037 L 68.1439172341926 308.5767734765747"/>
  <path d="M100.86638626230054 305.7156562910444 L 91.40106324109819 314.6571193032556 L 91.37496253132836 314.6824921892035 L 91.29812772544518 314.76009083863954 L 91.17281288483069 314.89208153265366 L 91.00134118252778 315.0805573403496 L 90.78610278807024 315.32753616113996 L 90.52955270035449 315.6349588243393 L 90.23420853004323 316.00468724738016 L 89.90264823302407 316.4385026539354 L 89.53750779647692 316.9381038531963 L 89.14147887913674 317.50510558151234 L 88.71730640736605 318.14103690756167 L 88.26778612868246 318.8473397021792 L 87.79576212441265 319.62536717392834 L 87.30412428317187 320.47638247145943 L 86.7958057368947 321.4015573536567 L 86.27378026116597 322.40197092853055 L 85.7410596416259 323.47860846177 L 85.20069100824493 324.63236025582285 L 84.65575413928633 325.86402060032856 L 84.10935873679468 327.1742867946832"/>
  <path d="M100.86638626230055 106.69603162284444 A 144.9092480351457 144.9092480351457, 0, 0, 0, 91.8925732062709 117.14927263071304"/>
  <path d="M68.1439172341926 103.83491443731413 A 171.875 171.875, 0, 0, 0, 62.257920803995944 112.29155626917296"/>
  <path d="M76.30562492456346 270.42824757203016 L 64.6333925152116 276.1989573443649 L 64.60053412370917 276.21462120403254 L 64.50108069306427 276.25972278850975 L 64.3337836359241 276.331395986128 L 64.09748702247504 276.4267353025184 L 63.791128681674735 276.542798524039 L 63.41374123070773 276.6766094100243 L 62.964453031939655 276.8251604120028 L 62.44248907669467 276.98541541800614 L 61.84717179522562 277.15431252008045 L 61.17792179229551 277.32876680309187 L 60.434258507835466 277.50567315290743 L 59.61580080219434 277.68190908201666 L 58.72226746554088 277.85433757064925 L 57.75347765103112 278.01980992143314 L 56.7093512314012 278.17516862562724 L 55.589909078694916 278.31725023895603 L 54.39527326688503 278.4428882650645 L 53.125667197197714 278.5489160446092 L 51.78141564599832 278.6321696479932 L 50.362944735146414 278.68949076975076"/>
  <path d="M82.99152155513302 282.4739254100969 L 71.9200509804532 289.3270006328303 L 71.88937702935402 289.34660010006235 L 71.79849454316877 289.4071435678701 L 71.64917537333307 289.5112067126628 L 71.44327380568811 289.6613074095921 L 71.18272488269153 289.8599033891409 L 70.86954266319921 290.1093899393785 L 70.50581842101215 290.41209765547853 L 70.09371878342006 290.7702902380659 L 69.63548381101438 291.1861623419262 L 69.13342502008015 291.66183747658073 L 68.58992334891394 292.19936596019664 L 68.0074270694522 292.800722928266 L 67.38844964562861 293.4678063984554 L 66.73556753991471 294.2024353929896 L 66.05141796953276 295.00634811989744 L 65.33869661386117 295.88120021440903 L 64.60015527458609 296.8285630417592 L 63.83859949018327 297.84992206260574 L 63.05688610634505 298.9466752622394 L 62.257920803995944 300.1201316447159"/>
  <path d="M82.99152155513305 129.93776250379196 A 144.9092480351457 144.9092480351457, 0, 0, 0, 76.30562492456349 141.98344034185874"/>
  <path d="M50.362944735146414 133.72219714413808 A 171.875 171.875, 0, 0, 0, 46.299744483336525 143.19057339153787"/>
  <path d="M66.03682359776417 242.96480711107083 L 53.441887134514076 246.26778700521766 L 53.4065482444461 246.27651587917575 L 53.30005174916022 246.3006744031626 L 53.121751563997435 246.3372037961974 L 52.87110029281183 246.38302535259115 L 52.5476497705167 246.43504327252884 L 52.15105152952097 246.49014750643727 L 51.68105718972026 246.54521661117295 L 51.137518771757954 246.59712061605842 L 50.52038893331917 246.64272389678808 L 49.82972112827244 246.67888805521832 L 49.06566968852155 246.70247480305426 L 48.22848982848109 246.7103488474405 L 47.318537572138894 246.6993807764628 L 46.33626960271775 246.66644994256725 L 45.282243035000306 246.6084473419026 L 44.15711511042949 246.52227848759497 L 42.961642815146746 246.4048662749658 L 41.696682421181464 246.25315383671077 L 40.3631889510533 246.06410738605922 L 38.96221556609851 245.83471904594361"/>
  <path d="M70.16108240925857 256.10977031333823 L 57.936731587271254 260.5938920417731 L 57.90274019000472 260.6069156857979 L 57.801530763180125 260.6479253152918 L 57.634320408480505 260.7198005534883 L 57.40241860986529 260.82538099948255 L 57.1072260618503 260.96746359505306 L 56.75023342744487 261.1488000236487 L 56.33302002659289 261.3720941433442 L 55.85725245601057 261.63999945554673 L 55.32468314135696 261.95511661121145 L 54.73714882271889 262.3199909563023 L 54.09656897443347 262.7371101182087 L 53.404944160315125 263.20890163480067 L 52.66435432539586 263.7377306277818 L 51.87695702532716 264.32589752196776 L 51.044985594636046 264.9756358120907 L 50.170747255063986 265.6891098787 L 49.256621165258736 266.46841285469867 L 48.30505641312655 267.31556454402096 L 47.318569952190416 268.2325093939265 L 46.299744483336525 269.22111452235094"/>
  <path d="M70.1610824092586 156.3019176005506 A 144.9092480351457 144.9092480351457, 0, 0, 0, 66.0368235977642 169.44688080281801"/>
  <path d="M38.96221556609851 166.57696886794523 A 171.875 171.875, 0, 0, 0, 36.88815938839028 176.66944309483046"/>
  <path d="M61.50657515872501 213.9964503795868 L 48.50457282022444 214.69647601059566 L 48.46820020990242 214.6979125377188 L 48.35902062900533 214.70013894840469 L 48.17701694634991 214.70002901921328 L 47.92227270992038 214.69445687570771 L 47.59497210851697 214.68029987430847 L 47.19539985607719 214.65444148232933 L 46.723940998737305 214.61377415420398 L 46.181080644752086 214.55520220191306 L 45.56740361743891 214.47564465762682 L 44.883594031364254 214.37203812658066 L 44.1304347920381 214.2413396282093 L 43.308807019432834 214.08052942357017 L 42.41968939569145 213.8866138270967 L 41.46415743743859 213.65662800073062 L 40.44338269315884 213.38763872849344 L 39.35863186615231 213.07674716956916 L 38.2112658636276 212.72109158798278 L 37.00273877253983 212.31785005697557 L 35.73459676282877 211.86424313619017 L 34.40847691875862 211.35753651979775"/>
  <path d="M62.900348510821914 227.70254260808645 L 50.0235838004794 229.63413037179856 L 49.98766656884354 229.64004500309963 L 49.88027372720529 229.65984185522976 L 49.702017799209585 229.6965866061334 L 49.45360985650677 229.7533243253284 L 49.135858901072766 229.83307665876396 L 48.74967117215155 229.9388390310248 L 48.29604937828606 230.07357786681953 L 47.77609185495345 230.24022783367812 L 47.19099164836808 230.44168910776958 L 46.542035526063614 230.68082466473786 L 45.830602914912674 230.96045759743683 L 45.058164767290236 231.28336846242897 L 44.22628235613246 231.65229265709445 L 43.33660599968903 232.06991782917743 L 42.39087371681373 232.53888132057685 L 41.39090981368196 233.06176764716722 L 40.33862340286839 233.64110601641292 L 39.23600685576318 234.279367884514 L 38.0851341893472 234.97896455479975 L 36.88815938839028 235.74224481905839"/>
  <path d="M62.900348510821914 184.7091453058024 A 144.9092480351457 144.9092480351457, 0, 0, 0, 61.50657515872504 198.41523753430204"/>
  <path d="M34.40847691875862 201.0541513940911 A 171.875 171.875, 0, 0, 0, 34.408476918758595 211.35753651979772"/>
  <path d="M62.900348510821914 184.70914530580242 L 50.0235838004794 182.7775575420903 L 49.98766656884354 182.77164291078924 L 49.880273727205264 182.7518460586591 L 49.702017799209585 182.71510130775548 L 49.45360985650677 182.65836358856046 L 49.135858901072766 182.5786112551249 L 48.74967117215155 182.4728488828641 L 48.29604937828603 182.33811004706934 L 47.77609185495345 182.17146008021075 L 47.19099164836808 181.9699988061193 L 46.542035526063614 181.730863249151 L 45.830602914912646 181.45123031645204 L 45.05816476729021 181.12831945145993 L 44.22628235613246 180.75939525679445 L 43.33660599968903 180.34177008471144 L 42.3908737168137 179.87280659331202 L 41.39090981368196 179.34992026672165 L 40.33862340286839 178.77058189747595 L 39.23600685576318 178.13232002937488 L 38.0851341893472 177.43272335908912 L 36.88815938839028 176.66944309483048"/>
  <path d="M61.50657515872501 198.41523753430207 L 48.50457282022444 197.7152119032932 L 48.46820020990242 197.71377537617008 L 48.35902062900533 197.71154896548418 L 48.17701694634991 197.7116588946756 L 47.92227270992035 197.71723103818115 L 47.59497210851697 197.7313880395804 L 47.19539985607719 197.75724643155954 L 46.723940998737305 197.79791375968492 L 46.181080644752086 197.8564857119758 L 45.56740361743891 197.93604325626205 L 44.883594031364254 198.03964978730824 L 44.1304347920381 198.1703482856796 L 43.308807019432834 198.3311584903187 L 42.41968939569145 198.5250740867922 L 41.46415743743859 198.75505991315825 L 40.44338269315884 199.02404918539543 L 39.35863186615231 199.3349407443197 L 38.2112658636276 199.69059632590609 L 37.00273877253983 200.0938378569133 L 35.73459676282877 200.5474447776987 L 34.408476918758595 201.05415139409112"/>
  <path d="M61.50657515872504 213.99645037958678 A 144.9092480351457 144.9092480351457, 0, 0, 0, 62.900348510821914 227.70254260808642"/>
  <path d="M36.88815938839028 235.74224481905836 A 171.875 171.875, 0, 0, 0, 38.96221556609851 245.8347190459436"/>
  <path d="M70.16108240925857 156.3019176005506 L 57.936731587271225 151.81779587211582 L 57.90274019000472 151.804772228091 L 57.8015307631801 151.7637625985971 L 57.63432040848048 151.69188736040056 L 57.40241860986529 151.5863069144063 L 57.10722606185027 151.4442243188358 L 56.75023342744487 151.26288789024022 L 56.33302002659286 151.03959377054466 L 55.85725245601054 150.7716884583421 L 55.32468314135696 150.45657130267747 L 54.73714882271889 150.09169695758658 L 54.09656897443347 149.6745777956802 L 53.404944160315125 149.20278627908823 L 52.664354325395834 148.67395728610708 L 51.87695702532713 148.08579039192114 L 51.04498559463602 147.43605210179823 L 50.170747255063986 146.72257803518892 L 49.25662116525871 145.9432750591902 L 48.30505641312652 145.09612336986788 L 47.318569952190416 144.17917851996242 L 46.2997444833365 143.1905733915379"/>
  <path d="M66.03682359776417 169.44688080281804 L 53.441887134514076 166.14390090867124 L 53.4065482444461 166.13517203471312 L 53.30005174916022 166.11101351072628 L 53.121751563997435 166.07448411769147 L 52.87110029281183 166.02866256129772 L 52.54764977051667 165.97664464136002 L 52.15105152952094 165.9215404074516 L 51.681057189720235 165.86647130271592 L 51.137518771757954 165.81456729783045 L 50.52038893331914 165.7689640171008 L 49.82972112827244 165.73279985867057 L 49.06566968852155 165.7092131108346 L 48.22848982848109 165.70133906644838 L 47.318537572138865 165.71230713742608 L 46.33626960271775 165.74523797132161 L 45.282243035000306 165.80324057198627 L 44.15711511042949 165.88940942629392 L 42.96164281514672 166.00682163892307 L 41.696682421181464 166.1585340771781 L 40.363188951053274 166.34758052782968 L 38.96221556609851 166.57696886794525"/>
  <path d="M66.0368235977642 242.9648071110708 A 144.9092480351457 144.9092480351457, 0, 0, 0, 70.1610824092586 256.10977031333823"/>
  <path d="M46.2997444833365 269.22111452235094 A 171.875 171.875, 0, 0, 0, 50.362944735146414 278.6894907697507"/>
  <path d="M82.991521555133 129.937762503792 L 71.92005098045317 123.08468728105858 L 71.889377029354 123.06508781382652 L 71.79849454316877 123.00454434601878 L 71.64917537333307 122.90048120122606 L 71.44327380568811 122.75038050429677 L 71.1827248826915 122.55178452474797 L 70.86954266319921 122.30229797451041 L 70.50581842101212 121.99959025841035 L 70.09371878342003 121.64139767582297 L 69.63548381101438 121.2255255719627 L 69.13342502008015 120.74985043730814 L 68.58992334891391 120.2123219536922 L 68.00742706945218 119.61096498562286 L 67.38844964562858 118.94388151543346 L 66.73556753991468 118.20925252089921 L 66.05141796953276 117.40533979399144 L 65.33869661386115 116.53048769947985 L 64.60015527458609 115.58312487212967 L 63.83859949018324 114.56176585128311 L 63.05688610634502 113.46501265164949 L 62.257920803995944 112.29155626917299"/>
  <path d="M76.30562492456346 141.98344034185874 L 64.63339251521157 136.212730569524 L 64.60053412370917 136.19706670985636 L 64.50108069306427 136.1519651253791 L 64.3337836359241 136.08029192776092 L 64.09748702247501 135.98495261137046 L 63.791128681674735 135.86888938984987 L 63.41374123070773 135.7350785038646 L 62.96445303193963 135.5865275018861 L 62.44248907669464 135.4262724958827 L 61.84717179522562 135.2573753938084 L 61.17792179229548 135.082921110797 L 60.434258507835466 134.90601476098144 L 59.61580080219434 134.72977883187218 L 58.72226746554085 134.55735034323962 L 57.75347765103109 134.39187799245576 L 56.70935123140117 134.23651928826163 L 55.58990907869489 134.09443767493286 L 54.395273266885 133.96879964882442 L 53.125667197197714 133.86277186927967 L 51.781415645998294 133.7795182658957 L 50.362944735146414 133.72219714413814"/>
  <path d="M76.30562492456349 270.4282475720301 A 144.9092480351457 144.9092480351457, 0, 0, 0, 82.99152155513303 282.47392541009685"/>
  <path d="M62.257920803995944 300.12013164471585 A 171.875 171.875, 0, 0, 0, 68.14391723419257 308.57677347657466"/>
  <path d="M100.8663862623005 106.69603162284446 L 91.40106324109814 97.75456861063327 L 91.37496253132832 97.72919572468535 L 91.29812772544517 97.65159707524933 L 91.17281288483066 97.51960638123518 L 91.00134118252777 97.33113057353923 L 90.78610278807022 97.0841517527489 L 90.52955270035446 96.77672908954955 L 90.2342085300432 96.40700066650872 L 89.90264823302405 95.97318525995348 L 89.53750779647687 95.47358406069256 L 89.14147887913673 94.90658233237654 L 88.71730640736604 94.27065100632721 L 88.26778612868245 93.56434821170966 L 87.79576212441262 92.78632073996053 L 87.30412428317184 91.93530544242944 L 86.79580573689468 91.01013056023218 L 86.27378026116592 90.00971698535832 L 85.74105964162588 88.93307945211886 L 85.20069100824489 87.77932765806605 L 84.65575413928629 86.54766731356032 L 84.10935873679463 85.23740111920569"/>
  <path d="M91.89257320627087 117.14927263071306 L 81.62090741708512 109.1470865162994 L 81.59187475055707 109.1251289511774 L 81.50353601968902 109.06093077037745 L 81.35409125174738 108.95704807730765 L 81.1418233071531 108.81609420373537 L 80.86509949431557 108.64073732255783 L 80.52237311996102 108.43369801789004 L 80.11218497387226 108.19774681414373 L 79.63316474700049 107.93570166579737 L 79.08403238195135 107.65042540958189 L 78.4635993548913 107.3448231808333 L 77.77076988796472 107.0218397957852 L 77.00454209135654 106.68445710159754 L 76.16400903418008 106.33569129593879 L 75.24835974341568 105.97859021795875 L 74.25688013017259 105.61623061250945 L 73.18895384259156 105.25171536948783 L 72.04406304475376 104.88817074019249 L 70.82178912100977 104.52874353260027 L 69.52181330518812 104.17659828748518 L 68.14391723419257 103.83491443731417"/>
  <path d="M91.89257320627088 295.26241528317576 A 144.9092480351457 144.9092480351457, 0, 0, 0, 100.86638626230052 305.71565629104435"/>
  <path d="M84.10935873679463 327.17428679468316 A 171.875 171.875, 0, 0, 0, 91.57717795995057 334.2729783007915"/>
  <path d="M123.05387746944234 87.52824415076141 L 115.58221343833372 76.86445789536967 L 115.56175453601793 76.83435035963777 L 115.50211303641741 76.74287342639883 L 115.40593292932269 76.58835889768449 L 115.2759111640011 76.36922420093393 L 115.11479518324116 76.08397388084401 L 114.92538041803635 75.73120102463486 L 114.71050774463497 75.30958861973383 L 114.47306090570547 74.81791084292618 L 114.2159638973912 74.255034280063 L 113.94217832405235 73.61991907546269 L 113.65470072250965 72.91162001018719 L 113.35655985762996 72.1292875084201 L 113.05081399110925 71.27216857121897 L 112.740548125327 70.33960763696203 L 112.42887122416396 69.33104736785592 L 112.1189134126899 68.24602936191866 L 111.81382315764078 67.08419478990027 L 111.51676443062284 65.84528495664992 L 111.23091385598646 64.52914178649004 L 110.95945784532896 63.13570823220388"/>
  <path d="M112.15953694884459 95.9610914133661 L 103.70896098410371 86.05503939661456 L 103.6849426433289 86.02768707133424 L 103.61133521025883 85.9470205752765 L 103.48586101787429 85.815181356415 L 103.30631201672698 85.63438359380629 L 103.07055183726348 85.40691218429076 L 102.77651779755611 85.13512067439962 L 102.42222285504255 84.82142913888998 L 102.00575750091453 84.46832200736303 L 101.52529159583077 84.07834584045432 L 100.97907614566645 83.65410705712023 L 100.36544501605327 83.19826961457241 L 99.68281658449911 82.71355264244717 L 98.92969532891888 82.20272803282417 L 98.10467335144799 81.66861798773807 L 97.20643183645178 81.11409252585611 L 96.23374244168556 80.54206695001967 L 95.18546862160234 79.95549927737548 L 94.06056688185086 79.35738763384549 L 92.85808796404731 78.75076761470963 L 91.57717795995063 78.13870961309726"/>
  <path d="M112.1595369488446 316.4505965005227 A 144.9092480351457 144.9092480351457, 0, 0, 0, 123.05387746944236 324.8834437631274"/>
  <path d="M110.95945784532896 349.27597968168493 A 171.875 171.875, 0, 0, 0, 119.70336646501683 354.72609959772194"/>
  <path d="M148.64563667961838 73.21913155876948 L 143.47352244192032 61.26959872243461 L 143.4595429369232 61.23598914296909 L 143.4195364736065 61.134379002322135 L 143.35642872491678 60.96366648186776 L 143.27318000292576 60.72284429629477 L 143.17278254304603 60.41100065852524 L 143.05825776309499 60.027320171488526 L 142.93265349909893 59.571084646121335 L 142.7990412197436 59.04167384501349 L 142.6605132213903 58.43856615116687 L 142.52017980559376 57.761339161381414 L 142.38116644106336 57.00967020383371 L 142.24661091202574 56.18333677945964 L 142.11966045495308 55.28221692680282 L 142.00346888562916 54.30628951003973 L 141.90119371853444 53.25563442994266 L 141.81599328053525 52.13043275758943 L 141.7510238208654 50.93096679068029 L 141.70943661939756 49.657620032371256 L 141.69437509519497 48.310877092583894 L 141.7089719173427 46.89132351180021"/>
  <path d="M136.27678427539655 79.28634331836166 L 129.99326570799758 67.88198033274969 L 129.97524500666935 67.85035305472181 L 129.91938236835563 67.75652073923283 L 129.82301567970697 67.6021225076903 L 129.68353637920967 67.38888273768927 L 129.49839188256806 67.11860950606805 L 129.26508796564102 66.79319296730267 L 128.98119110327707 66.41460366835062 L 128.6443307624235 65.98489080109604 L 128.25220164791153 65.50618039358767 L 127.80256589935026 64.98067344130374 L 127.29325523759543 64.41064397971269 L 126.72217305928855 63.79843709944049 L 126.08729647799596 63.146466905390554 L 125.38667831051221 62.45721442119955 L 124.61844900692587 61.73322544044831 L 123.78081852308219 60.977108326081975 L 122.87207813411473 60.19153175952576 L 121.89060218775157 59.37922244101921 L 120.83484979614626 58.54296274272082 L 119.70336646501669 57.68558831616696"/>
  <path d="M136.27678427539658 333.12534459552717 A 144.9092480351457 144.9092480351457, 0, 0, 0, 148.64563667961838 339.19255635511934"/>
  <path d="M141.7089719173427 365.5203644020886 A 171.875 171.875, 0, 0, 0, 151.37099328730673 369.09878417832977"/>
  <path d="M176.5939342638601 64.35451059763406 L 173.9331167841616 51.60844645868613 L 173.92618899906023 51.57271081561922 L 173.90745544133614 51.46512739866105 L 173.88000368969756 51.285205877111935 L 173.8469362234967 51.03255549128926 L 173.8113675683009 50.706885451010436 L 173.7764214315509 50.308005257366034 L 173.74522783028607 49.83582494754654 L 173.72092021292048 49.290355262539066 L 173.70663257705706 48.6717077375572 L 173.705496585334 47.980094715119236 L 173.72063868129317 47.21582928073869 L 173.75517720726606 46.37932512124155 L 173.81221952627004 45.47109630577381 L 173.8948591499045 44.49175698961349 L 174.0061728742358 43.44202104095143 L 174.14921792565374 42.32270159085388 L 174.32702911867568 41.13471050667053 L 174.54261602767232 39.87905778919992 L 174.79896017447405 38.55685089397551 L 175.09901223381314 37.16929397708205"/>
  <path d="M163.2569522467215 67.80769449190893 L 159.39773906509578 55.371916498023296 L 159.38645377284385 55.337309091726354 L 159.35062295226265 55.23415246282701 L 159.28730903090573 55.06351630034385 L 159.19360973000892 54.82656458418893 L 159.0666607536353 54.52455454832037 L 158.9036384492596 54.158835572012634 L 158.70176243794694 53.73084799999961 L 158.45829821230174 53.24212189229192 L 158.1705597003829 52.69427570451336 L 157.83591179380073 52.08901489965058 L 157.45177283823796 51.42813049214948 L 157.01561708465758 50.713497525339875 L 156.52497709948562 49.94707348321063 L 155.97744613208494 49.130896637601126 L 155.37068043786027 48.267084331917744 L 154.7024015553652 47.35783120252364 L 153.97039853581026 46.405407338991495 L 153.17253012339802 45.41215638445044 L 152.30672688494894 44.380493577294146 L 151.3709932873066 43.312903735559104"/>
  <path d="M163.2569522467215 344.6039934219799 A 144.9092480351457 144.9092480351457, 0, 0, 0, 176.5939342638601 348.05717731625475"/>
  <path d="M175.09901223381314 375.2423939368068 A 171.875 171.875, 0, 0, 0, 185.28358206392772 376.80261264716626"/>
  <path d="M205.7545636352831 61.2972998910528 L 205.71397709383575 48.27652981293923 L 205.7143846529662 48.24013112769691 L 205.71769095488904 48.13097891215827 L 205.72701907823915 47.949214397746516 L 205.74548665378 47.695079348154906 L 205.77620298819096 47.368915875080404 L 205.8222661935865 46.97116617682255 L 205.8867603247538 46.50237219991365 L 205.97275252608893 45.96317522400068 L 206.08329019020636 45.35431537024431 L 206.22139813019143 44.67663103355349 L 206.39007576745246 43.93105823902104 L 206.59229433712443 43.118629922975714 L 206.83099411296283 42.24047513911475 L 207.10908165365433 41.29781819022824 L 207.4294270724587 40.29197768607813 L 207.79486133208167 39.22436552803771 L 208.2081735666611 38.09648582114963 L 208.67210843273753 36.909933714303634 L 209.18936349105434 35.66639416928538 L 209.76258662102092 34.367640659490746"/>
  <path d="M191.9954696160382 61.995082165646835 L 190.71855846127983 49.03701137569908 L 190.71447059929497 49.000840672413034 L 190.7001385144508 48.89258297461089 L 190.67246943976505 48.71269474572807 L 190.62838619885667 48.461731914519305 L 190.5648300487596 48.14034940075652 L 190.47876350923073 47.7493005647666 L 190.3671731765919 47.289436581177284 L 190.22707252015883 46.76170573728885 L 190.05550465931896 46.167152656536956 L 189.84954511933077 45.506917447561506 L 189.60630456393523 44.78223477944411 L 189.32293150287902 43.9944328837241 L 188.99661497246842 43.144932483851335 L 188.62458718728828 42.23524565277933 L 188.20412616123883 41.266974599452084 L 187.7325582960612 40.241810384980255 L 187.207260935546 39.16153156935033 L 186.62566488363439 38.02800278955564 L 185.98525688465122 36.843173270081735 L 185.28358206392755 35.609075266722584"/>
  <path d="M191.9954696160382 350.416605748242 A 144.9092480351457 144.9092480351457, 0, 0, 0, 205.7545636352831 351.114388022836"/>
  <path d="M209.76258662102092 378.0440472543981 A 171.875 171.875, 0, 0, 0, 220.05274742580494 377.5221893615559"/>
  <path d="M234.93368520119282 64.1726620045601 L 237.51499121577226 51.410257844154444 L 237.5227174336158 51.374686283187145 L 237.54792823479636 51.26843397359704 L 237.5936543386692 51.092267926899126 L 237.66290089123927 50.847052532328405 L 237.75864468491721 50.53374879736853 L 237.88383139941723 50.15341351387747 L 238.04137286570887 49.70719835037474 L 238.2341443549184 49.19634887110311 L 238.46498189406012 48.62220348252302 L 238.73667961046334 47.986192307948045 L 239.05198710673798 47.28983599107286 L 239.41360686810697 46.5347444291946 L 239.82419170391094 45.722615436970415 L 240.2863422250697 44.855233341602656 L 240.8026043592623 43.93446751038559 L 241.37546690556462 42.96227081159165 L 242.00735913025574 41.94067800971902 L 242.70064840548474 40.871804096165874 L 243.45763789245424 39.75784255643657 L 244.2805642707566 38.6010635750288"/>
  <path d="M221.31577810561447 62.086475371165534 L 222.6734458704299 49.13661672580474 L 222.67672279626206 49.10036355837207 L 222.6844762043924 48.991436874534855 L 222.69358475154647 48.80966122447879 L 222.70092234368883 48.55496172601275 L 222.70336101612085 48.22736417223004 L 222.69777381567948 47.82699506184966 L 222.68103768304405 47.354081552203866 L 222.6500363331586 46.808951334889315 L 222.6016631317788 46.19203243414702 L 222.53282396615097 45.50385292808875 L 222.44044010784006 44.745040592934316 L 222.3214510657226 43.916322470477496 L 222.17281742716892 43.01852435904402 L 221.9915236854461 42.05257022825725 L 221.77458105138038 41.019481557976434 L 221.51903024732738 39.92037660181907 L 221.2219442815113 38.75646957573056 L 220.8804312008002 37.529069772111086 L 220.49163682000602 36.239580600058304 L 220.0527474258048 34.889498552332924"/>
  <path d="M221.31577810561447 350.3252125427233 A 144.9092480351457 144.9092480351457, 0, 0, 0, 234.93368520119282 348.2390259093287"/>
  <path d="M244.2805642707566 373.81062433886007 A 171.875 171.875, 0, 0, 0, 254.25503565781972 371.2280547662648"/>
  <path d="M262.93670229627975 72.86287927538831 L 268.0342218953585 60.88133535853635 L 268.04895045964884 60.8480472257296 L 268.09503362692465 60.749044804126754 L 268.1752856792551 60.58568948379303 L 268.29247624685604 60.359432891308614 L 268.4493277376383 60.071815586184215 L 268.6485128024424 59.72446568865357 L 268.89265183771806 59.319097439778886 L 269.1843105273841 58.85750969485227 L 269.5259974255753 58.341584351116154 L 269.920161581964 57.77328471087222 L 270.3691902113078 57.15465378108564 L 270.8754064088548 56.48781251063713 L 271.44106691320485 55.7749579664125 L 272.06835991819423 55.01836144946094 L 272.75940293534296 54.22036655249235 L 273.51624070837056 53.38338716002173 L 274.34084318125036 52.509905392505345 L 275.235103521246 51.60246949585323 L 276.2008361983292 50.66369167773428 L 277.2397751223499 49.69624589212799"/>
  <path d="M250.01750084089704 68.07813245989277 L 253.95416444747556 55.666654693603846 L 253.96467200339617 55.631803270958756 L 253.99419347906118 55.526667072321146 L 254.03970674306436 55.350445917562865 L 254.09816476637303 55.10243717923265 L 254.1664984217982 54.78203646777297 L 254.2416193010869 54.38873824142249 L 254.32042254769135 53.922136340370116 L 254.39978970326032 53.3819244447763 L 254.47659156588873 52.76789645632499 L 254.54769105815032 52.07994680301951 L 254.60994610293795 51.31807066698596 L 254.66021250512418 50.48236413509596 L 254.6953468370535 49.57302427227066 L 254.71220932587516 48.590349117378395 L 254.7076667407215 47.53473760168799 L 254.67859527773703 46.40668938988955 L 254.62188344096666 45.206804643743794 L 254.5344349171065 43.935783708473025 L 254.41317144213247 42.59442672205378 L 254.25503565781958 41.18363314762399"/>
  <path d="M250.01750084089701 344.33355545399604 A 144.9092480351457 144.9092480351457, 0, 0, 0, 262.93670229627975 339.54880863850053"/>
  <path d="M277.2397751223499 362.71544202176085 A 171.875 171.875, 0, 0, 0, 286.4902010611551 358.17789147115366"/>
  <path d="M288.61716811045625 87.01217318741251 L 296.02220824271484 76.3020153298418 L 296.04333616429943 76.2723734452639 L 296.1084050473877 76.18467408242103 L 296.2198975197241 76.04081727445947 L 296.380234306749 75.84278245554162 L 296.5917719761738 75.59262666651813 L 296.8568007313255 75.29248270056468 L 297.177542254796 74.94455719005569 L 297.5561476038951 74.5511286359856 L 297.99469515937744 74.11454538128464 L 298.4951886288767 73.63722352941573 L 299.0595551064456 73.12164480966928 L 299.68964318956523 72.57035439061326 L 300.38722115495096 71.9859586431856 L 301.15397519444286 71.3711228549505 L 301.9915077122316 70.72856889707273 L 302.90133568463204 70.06107284559408 L 303.88488908357414 69.37146255862578 L 304.94350936494595 68.66261521110283 L 306.0784480228742 67.93745478876974 L 307.29086521099373 67.19894954309768"/>
  <path d="M276.9255859207942 79.72475428662632 L 283.28007789854416 68.35978475744784 L 283.29738590397926 68.32776190092827 L 283.3474668344966 68.2307204758155 L 283.427521496973 68.06726833113589 L 283.53470667310523 67.83610385982854 L 283.6661377236416 67.53601723346452 L 283.81889122503594 67.16589156674127 L 283.9900076367053 66.7247040109348 L 284.1764939970545 66.21152677553957 L 284.3753266464112 65.6255280773716 L 284.58345397499517 64.96597301645593 L 284.79779919403313 64.23222437806913 L 285.0152631281114 63.42374336035286 L 285.2327270268465 62.54009022696272 L 285.4470553939391 61.58092488426561 L 285.6550988316674 60.54600738264716 L 285.85369689886176 59.43519834153864 L 286.03968098039786 58.24845929782336 L 286.20987716623017 56.98585297732987 L 286.36110913798956 55.64754348917094 L 286.49020106115495 54.23379644273507"/>
  <path d="M276.9255859207942 332.6869336272625 A 144.9092480351457 144.9092480351457, 0, 0, 0, 288.61716811045625 325.3995147264763"/>
  <path d="M307.29086521099373 345.21273837079116 A 171.875 171.875, 0, 0, 0, 315.4385321767274 338.9059746948534"/>
  <path d="M310.92372135596327 106.04126998540302 L 320.3331188083318 97.04097330819263 L 320.3597811076185 97.01619121408093 L 320.4411717788003 96.94338533221709 L 320.5793401562254 96.82491655124807 L 320.7762589557747 96.66321107465139 L 321.0338224268011 96.46075820912344 L 321.3538445639251 96.22010810397877 L 321.73805737993393 95.94386944311526 L 322.1881092409898 95.63470709113123 L 322.7055632653146 95.29533969520928 L 323.29189578647765 94.92853724441382 L 323.94849488236974 94.5371185880718 L 324.6766589709069 94.12394891493825 L 325.4775954734635 93.69193719487083 L 326.3524195469914 93.24403358476272 L 327.302152885736 92.78322680050816 L 328.3277225934189 92.31254145679648 L 329.429960126708 91.83503537655052 L 330.60960031075393 91.35379687185035 L 331.86728042752213 90.87194199819615 L 333.20353937760586 90.3926117839869"/>
  <path d="M300.93841318056934 96.54952678535972 L 309.45057988130054 86.69634868114346 L 309.4739797444739 86.66846541025785 L 309.54256981066396 86.58349164601589 L 309.6538884243257 86.43950026142296 L 309.8054125795769 86.23464395775446 L 309.99456022257306 85.96715699822812 L 310.2186925997782 85.63535687941571 L 310.4751166505134 85.23764593922719 L 310.76108744213883 84.77251290034343 L 311.07381064619744 84.23853434801373 L 311.4104450538176 83.63437614117618 L 311.768105128654 82.95879475590347 L 312.1438635956123 82.21063856021871 L 312.5347540635879 81.38884901936956 L 312.9377736804201 80.49246183069478 L 313.34988581824575 79.52060798726217 L 313.76802278741377 78.47251476950107 L 314.1890885771061 77.34750666410187 L 314.6099616207857 76.14500620949664 L 315.02749758458566 74.86453476728792 L 315.4385321767273 73.50571321903533"/>
  <path d="M300.9384131805693 315.8621611285291 A 144.9092480351457 144.9092480351457, 0, 0, 0, 310.92372135596327 306.37041792848584"/>
  <path d="M333.20353937760586 322.0190761299019 A 171.875 171.875, 0, 0, 0, 339.91488092738064 314.2012989745399"/>
  <path d="M328.94312912202105 129.17111621062614 L 339.9716620572423 122.24915391723104 L 340.0027671765656 122.23024619543027 L 340.09714749219984 122.17531447590325 L 340.25633514510776 122.08708384773914 L 340.48177407839097 121.9683279546751 L 340.77481867225276 121.82186645674463 L 341.13673244745405 121.65056245598852 L 341.5686868381707 121.45731988800289 L 342.0717600351129 121.24508088112019 L 342.64693589972603 121.01682308504027 L 343.29510295024534 120.7755569707513 L 344.01705342032767 120.52432310359407 L 344.81348239094194 120.26618939134649 L 345.6849869961487 120.00424830921813 L 346.6320657033549 119.74161410366122 L 347.6551176685782 119.48141997691974 L 348.7544421672118 119.22681525424977 L 349.9302381007276 118.98096253575598 L 351.182603579711 118.74703483480418 L 352.51153558356754 118.52821270497185 L 353.9169296971952 118.32768135751397"/>
  <path d="M321.07289465081965 117.86364179316796 L 331.3942469696671 109.92564538319982 L 331.42278069743116 109.9030432423344 L 331.50707181392505 109.83361597485529 L 331.64509698164954 109.71498037455257 L 331.8347566993004 109.54481907966469 L 332.0738772080281 109.32088273452743 L 332.3602124551868 109.04099209947489 L 332.6914461142222 108.70304010752469 L 333.0651936593147 108.30499386641505 L 333.4790044933575 107.84489660459586 L 333.9303641278131 107.32086955980992 L 334.41669641296073 106.73111380894183 L 334.9353658170121 106.07391203784454 L 335.48367975254166 105.34763024989489 L 336.05889094864756 104.55071941206783 L 336.6581998672268 103.68171703735914 L 337.2787571617217 102.73924870242637 L 337.917666176667 101.72202949936114 L 338.5719854863353 100.62886542054349 L 339.2387314707595 99.458654675578 L 339.9148809273805 98.21038893934886"/>
  <path d="M321.07289465081965 294.54804612072087 A 144.9092480351457 144.9092480351457, 0, 0, 0, 328.94312912202105 283.2405717032627"/>
  <path d="M353.9169296971952 294.0840065563749 A 171.875 171.875, 0, 0, 0, 358.91718271941426 285.07527663687875"/>
  <path d="M341.93767473749665 155.4547732409797 L 354.1338337214051 150.8945312809875 L 354.1681082135253 150.88227201584976 L 354.27161423240057 150.84746336971122 L 354.4453039995775 150.79308306663572 L 354.690033570178 150.72213863731957 L 355.0065620067711 150.63766465792034 L 355.39555062757006 150.54271996747116 L 355.8575623294862 150.44038486580175 L 356.3930609865232 150.33375829389917 L 357.0024109239472 150.22595499865193 L 357.68587646861806 150.120102683936 L 358.4436215758199 150.01933915000376 L 359.27570953287795 149.92680942315098 L 360.18210273980026 149.84566287764073 L 361.1626625671347 149.7790503518688 L 362.21714929117695 149.7301212607607 L 363.3452221066219 149.7020207063933 L 364.54643921669617 149.69788658883334 L 365.8202580007608 149.72084671919217 L 367.1660352593249 149.7740159368875 L 368.5830275363578 149.86049323310738"/>
  <path d="M336.50472229445216 142.79449693732923 L 348.21270285477476 137.09666472730825 L 348.2452022729623 137.0802690507657 L 348.3417435515469 137.0292306405374 L 348.5008245067503 136.94080777994037 L 348.72085509567603 136.81230791723897 L 349.0001588484126 136.6410901667721 L 349.33697436686316 136.4245677709642 L 349.7294568892796 136.16021052151046 L 350.1756799194295 135.84554713805443 L 350.6736369192902 135.4781676027037 L 351.2212430641141 135.0557254487535 L 351.81633705867745 134.5759400020239 L 352.4566830134788 134.03659857324075 L 353.1399723796177 133.43555859992375 L 353.8638259410443 132.7707497362781 L 354.6257958628347 132.04017588961733 L 355.4233677941075 131.24191720188037 L 356.2539630241654 130.37413197484076 L 357.11494069040515 129.43505853763884 L 358.00360003651195 128.4230170553094 L 358.9171827194142 127.33641127700994"/>
  <path d="M336.5047222944521 269.6171909765596 A 144.9092480351457 144.9092480351457, 0, 0, 0, 341.93767473749665 256.9569146729091"/>
  <path d="M368.5830275363578 262.55119468078146 A 171.875 171.875, 0, 0, 0, 371.66748108478663 252.7203304585363"/>
  <path d="M349.37535997809834 183.81618506944253 L 362.23983282890487 181.80436028450097 L 362.2758734920874 181.79925137178137 L 362.3842676656295 181.78599086909406 L 362.56534866759955 181.7676872271045 L 362.81934961814255 181.74745873480808 L 363.14640318608247 181.72843064858196 L 363.54654141263916 181.71373231522216 L 364.01969561239423 181.70649429095522 L 364.5656963515886 181.70984545841458 L 365.18427350378965 181.72691014357378 L 365.8750563829095 181.76080523463247 L 366.6375739535108 181.8146373048436 L 367.4712551182844 181.89149974127474 L 368.3754290825342 181.99446988149015 L 369.3493257954549 182.12660616013488 L 370.3920764679369 182.29094526739908 L 371.5027141665861 182.49049932133175 L 372.6801744835953 182.72825305596422 L 373.92329628205414 183.0071610271991 L 375.23082251623805 183.3301448384026 L 376.60140112636503 183.7000903876323"/>
  <path d="M346.6021152745737 170.32142007899046 L 359.21739797660257 167.0970219890618 L 359.2525325552143 167.08750401776615 L 359.3573715846015 167.0569439833002 L 359.5309955342864 167.0023539047109 L 359.77238891632396 166.92077627367303 L 360.0804411846155 166.80928679269792 L 360.4539477074585 166.66499708845936 L 360.89161081267343 166.48505739835534 L 361.3920409045975 166.26665922844302 L 361.9537576521942 166.0070379809033 L 362.57519124747637 165.7034755492064 L 363.2546837333974 165.3533028791768 L 363.9904904003219 164.95390249417207 L 364.7807812501371 164.50271098261453 L 365.6236425270304 163.99722144613963 L 366.51707831390627 163.4349859066479 L 367.45901219338 162.81361767057408 L 368.447288972241 162.13079364871555 L 369.4796764682359 161.38425662998483 L 370.55386735798265 160.57181750748785 L 371.6674810847866 159.6913574553524"/>
  <path d="M346.60211527457363 242.09026783489836 A 144.9092480351457 144.9092480351457, 0, 0, 0, 349.3753599780983 228.59550284444632"/>
  <path d="M376.60140112636503 228.71159752625655 A 171.875 171.875, 0, 0, 0, 377.643777310323 218.46107573759855"/>
  <circle cx="206.20625248275664" cy="206.20584395694442" r="31.25"/>
</svg>
