<?xml version='1.0' encoding='ASCII'?>
<svg version="1.1" xmlns="http://www.w3.org/2000/svg" width="134.86738004780338" height="136.76988446060344">
  <path d="M100.87930420803752 73.98497816978035 L 113.70930731011327 76.20604122497959 L 113.74085871830908 76.21231850664456 L 113.83483189200518 76.23429077360582 L 113.99000754284248 76.27662208363233 L 114.20490543797601 76.3439039079654 L 114.4777882484945 76.44064216309091 L 114.80666600173905 76.57124443347892 L 115.189301128448 76.74000741227553 L 115.62321409448153 76.95110458651457 L 116.10568960572769 77.20857419294812 L 116.63378337365833 77.51630747007847 L 117.20432942789517 77.87803723140912 L 117.81394796106166 78.29732678431992 L 118.45905369013894 78.77755921831434 L 119.13586471751572 79.32192708568326 L 119.84041187392444 79.93342249688335 L 120.56854852449044 80.61482765213997 L 121.31596081819063 81.36870582995438 L 122.0781783601221 82.19739285232635 L 122.85058528512523 83.10298904559656 L 123.62843171048644 84.08735171487011"/>
  <path d="M100.87930420803752 62.78490629082309 L 113.70930731011327 60.56384323562385 L 113.74085871830908 60.55756595395887 L 113.83483189200518 60.535593686997615 L 113.99000754284248 60.4932623769711 L 114.20490543797601 60.425980552638045 L 114.4777882484945 60.32924229751252 L 114.80666600173905 60.19864002712451 L 115.189301128448 60.0298770483279 L 115.62321409448153 59.81877987408886 L 116.10568960572769 59.56131026765532 L 116.63378337365833 59.253576990524955 L 117.20432942789517 58.89184722919431 L 117.81394796106166 58.472557676283515 L 118.45905369013894 57.99232524228909 L 119.13586471751572 57.44795737492018 L 119.84041187392444 56.83646196372009 L 120.56854852449044 56.15505680846347 L 121.31596081819063 55.401178630649056 L 122.0781783601221 54.57249160827709 L 122.85058528512523 53.66689541500687 L 123.62843171048644 52.68253274573333"/>
  <path d="M100.87930420803752 73.98497816978035 A 32.82983545106381 32.82983545106381, 0, 0, 0, 100.87930420803752 62.78490629082309"/>
  <path d="M123.62843171048644 52.68253274573333 A 57.291666666666664 57.291666666666664, 0, 0, 0, 120.83130557889305 44.99749185981405"/>
  <path d="M89.71151489523581 93.46815525297245 L 98.11219566456559 103.41655529047885 L 98.1323304866098 103.44164482147264 L 98.19019461316253 103.51888134617582 L 98.28185601660697 103.6510539966748 L 98.40322943197359 103.84072856866763 L 98.55008764081659 104.09024006094128 L 98.71807309495267 104.40168574931786 L 98.90270985576592 104.77691880990857 L 99.0994158241525 105.2175425054412 L 99.30351523559727 105.72490494732787 L 99.51025139433867 106.30009444501486 L 99.71479962009204 106.94393545301195 L 99.9122803803645 107.65698512483179 L 100.09777258100715 108.4395304818874 L 100.26632698731456 109.29158620419491 L 100.41297974769715 110.21289304851689 L 100.532765991719 111.20291689835634 L 100.62073347411467 112.2608484489776 L 100.67195623627035 113.38560352938973 L 100.68154825658223 114.57582406198219 L 100.64467706108313 115.82987965925409"/>
  <path d="M96.91078232662817 84.88840242756412 L 108.16680672038714 91.43393644256605 L 108.19501146018489 91.44940862008512 L 108.28112258865647 91.4929816787715 L 108.42720407527457 91.56029899963899 L 108.635073336718 91.64689183632531 L 108.90629584911576 91.74819172304709 L 109.24218034565652 91.85954312444478 L 109.64377460995829 91.97621630081278 L 110.11186187442625 92.09342036177753 L 110.64695783164372 92.20631648110331 L 111.2493082656404 92.3100312449733 L 111.91888730867018 92.39967010581418 L 112.65539632790677 92.47033091350373 L 113.45826344523186 92.51711749562547 L 114.32664369205173 92.53515325831201 L 115.2594197998335 92.51959477914883 L 116.25520362580633 92.46564536359435 L 117.31233821202633 92.36856853640884 L 118.42890047475947 92.22370143967525 L 119.60270451989814 92.026468109139 L 120.83130557889305 91.77239260078939"/>
  <path d="M96.91078232662817 51.88148203303932 A 32.82983545106381 32.82983545106381, 0, 0, 0, 89.71151489523581 43.30172920763098"/>
  <path d="M100.64467706108314 20.940004801349353 A 57.291666666666664 57.291666666666664, 0, 0, 0, 93.56210506986974 16.850879955667402"/>
  <path d="M68.63294712383592 101.2146181939961 L 68.67353366528324 114.23538827210967 L 68.67283059416776 114.26755038204118 L 68.66751040567497 114.36391133618932 L 68.65276817235188 114.52408027505692 L 68.62382513798627 114.747396754476 L 68.57594215708895 115.03293228365159 L 68.50443305117595 115.3794924910921 L 68.40467785369997 115.78561991417554 L 68.27213591568818 116.24959740687514 L 68.10235884440424 116.76945215895071 L 67.89100324766483 117.3429603187074 L 67.63384325680443 117.96765221023331 L 67.3267828016972 118.64081813485333 L 66.96586761170833 119.35951474538092 L 66.54729691696157 120.12057198061478 L 66.06743482487113 120.92060054641539 L 65.52282134749521 121.75599992860828 L 64.91018305592375 122.62296692190121 L 64.22644333861341 123.51750465796835 L 63.46873224132668 124.43543211485525 L 62.63439586711901 125.37239408888648"/>
  <path d="M79.66286474452704 99.26974612247653 L 84.07809151935275 111.51914909655272 L 84.08975227954029 111.54913112944058 L 84.1277090087569 111.63786119535465 L 84.19634318005234 111.78332862453355 L 84.29991947016674 111.98327837158155 L 84.4425736565904 112.23521705733069 L 84.62830080755562 112.5364195722671 L 84.86094378996032 112.8839362278992 L 85.14418211960766 113.2746004413643 L 85.48152117748523 113.70503693751625 L 85.87628181510149 114.17167045171061 L 86.33159037114847 114.67073491551062 L 86.85036912096837 115.19828310657516 L 87.43532717947076 115.75019674306336 L 88.08895187727526 116.32219700199914 L 88.8135006289473 116.90985544018656 L 89.61099331124979 117.50860529545315 L 90.48320516835503 118.11375314522539 L 91.43166025994971 118.72049089871027 L 92.45762546712467 119.32390809827021 L 93.56210506986974 119.91900450493603"/>
  <path d="M79.66286474452704 37.5001383381269 A 32.82983545106381 32.82983545106381, 0, 0, 0, 68.63294712383592 35.55526626660734"/>
  <path d="M62.63439586711901 11.397490371716955 A 57.291666666666664 57.291666666666664, 0, 0, 0, 54.58039216499414 12.817628527127432"/>
  <path d="M47.506497016262315 93.5997108904005 L 39.16799843601483 103.60028797983165 L 39.14678644652833 103.62447366002189 L 39.0807713183131 103.69487068223634 L 38.96652350303603 103.80809108289694 L 38.80080678638386 103.96055720713588 L 38.58058759466813 104.14851152573823 L 38.30304383409792 104.36802687959354 L 37.965573243887256 104.61501713030546 L 37.56580124531236 104.88524819480244 L 37.10158826981545 105.17434944102874 L 36.571036550265404 105.47782542107174 L 35.97249636052977 105.79106791740449 L 35.30457168958435 106.10936827728906 L 34.5661253374853 106.42793000979967 L 33.75628342165147 106.74188161938494 L 32.87443928305023 107.04628964939894 L 31.920256783045325 107.33617190858732 L 30.893672982849203 107.60651085312526 L 29.79490019872288 107.85226709646204 L 28.624427427278818 108.06839301893868 L 27.383021136470276 108.24984644890762"/>
  <path d="M57.20604378765101 99.19974682987913 L 52.71453926582276 111.4213869745095 L 52.70419984711344 111.45184993636474 L 52.676241801632564 111.54421922554044 L 52.63531396607235 111.69977093622757 L 52.586132787590984 111.91951888479956 L 52.533469168788216 112.20421145852742 L 52.482135176113886 112.55432908277075 L 52.43697063961562 112.97008231227927 L 52.40282967215697 113.4514105510153 L 52.38456713640771 113.99798140367514 L 52.387025088027116 114.6091906608485 L 52.41501922352592 115.2841629185119 L 52.473325361304845 116.02175283130727 L 52.56666598432661 116.82054699781229 L 52.699696872783655 117.6788664747665 L 52.87699385497619 118.59476991598058 L 53.103039704415096 119.56605733042555 L 53.38221121091101 120.59027445277792 L 53.718766453105886 121.66471771848667 L 54.1168322995468 122.78643983423353 L 54.58039216499415 123.95225593347601"/>
  <path d="M57.20604378765101 37.570137630724304 A 32.82983545106381 32.82983545106381, 0, 0, 0, 47.506497016262315 43.170173570202934"/>
  <path d="M27.383021136470276 28.52003801169581 A 57.291666666666664 57.291666666666664, 0, 0, 0, 22.126143565938797 34.784940742204626"/>
  <path d="M36.217465372188 74.1865330998058 L 23.40155782803251 76.4875360363756 L 23.36976224580075 76.49242853826968 L 23.273941390031403 76.50392207948056 L 23.11364581529154 76.51721685816047 L 22.888696109810503 76.52749203321564 L 22.599183714543862 76.52991922669113 L 22.245471109442555 76.51967605325095 L 21.8281913662246 76.49195964829235 L 21.34824706819068 76.44200016622482 L 20.80680859886833 76.36507422049011 L 20.205311802510685 76.25651823699748 L 19.545455020710342 76.11174169280041 L 18.829195510617964 75.92624021204509 L 18.058745251472928 75.69560849147769 L 17.236566147361017 75.41555302810596 L 16.365364635306406 75.0819046219714 L 15.448085708982056 74.69063062739855 L 14.48790636948113 74.2378469265495 L 13.488228515730789 73.71982959962224 L 12.452671288243941 73.13302626658974 L 11.385062880997957 72.47406707598368"/>
  <path d="M40.04811556148675 84.7111579967337 L 28.751504626280443 91.18639405984536 L 28.724002957598188 91.20308399225779 L 28.643212017619405 91.25587188771954 L 28.5118727643244 91.34872350571966 L 28.332946537246585 91.48544714845242 L 28.10960700574615 91.66968279090622 L 27.845231615118365 91.90489159694904 L 27.54339254829258 92.19434584366448 L 27.207847221836424 92.54111927539934 L 26.842528335902877 92.94807790814912 L 26.451533498645638 93.41787130403583 L 26.03911444647624 93.95292433472085 L 25.60966588234686 94.55542945165134 L 25.167713955010655 95.22733948005718 L 24.717904402937556 95.97036095260452 L 24.264990387246222 96.78594799756827 L 23.813820038649304 97.67529679531565 L 23.369323744000752 98.6393406157941 L 22.93650119857798 99.67874544859481 L 22.520408250726042 100.79390623601796 L 22.126143565938797 101.98494371839881"/>
  <path d="M40.04811556148675 52.05872646386973 A 32.82983545106381 32.82983545106381, 0, 0, 0, 36.217465372188 62.583351360797636"/>
  <path d="M11.385062880997957 64.29581738461975 A 57.291666666666664 57.291666666666664, 0, 0, 0, 11.385062880997957 72.47406707598367"/>
  <path d="M40.04811556148675 52.058726463869746 L 28.751504626280436 45.58349040075809 L 28.72400295759818 45.566800468345654 L 28.643212017619398 45.514012572883914 L 28.5118727643244 45.42116095488378 L 28.332946537246585 45.28443731215103 L 28.109607005746142 45.10020166969723 L 27.845231615118358 44.86499286365441 L 27.543392548292573 44.57553861693896 L 27.207847221836417 44.22876518520411 L 26.842528335902877 43.82180655245432 L 26.451533498645638 43.35201315656762 L 26.039114446476226 42.816960125882595 L 25.609665882346853 42.214455008952115 L 25.16771395501064 41.54254498054627 L 24.71790440293755 40.79952350799893 L 24.264990387246215 39.98393646303518 L 23.813820038649297 39.094587665287804 L 23.369323744000745 38.13054384480935 L 22.93650119857797 37.091139012008625 L 22.520408250726035 35.97597822458549 L 22.12614356593879 34.78494074220464"/>
  <path d="M36.217465372188 62.58335136079764 L 23.4015578280325 60.28234842422785 L 23.36976224580075 60.27745592233377 L 23.273941390031403 60.26596238112288 L 23.11364581529154 60.25266760244298 L 22.888696109810503 60.24239242738781 L 22.599183714543862 60.239965233912315 L 22.245471109442555 60.2502084073525 L 21.8281913662246 60.27792481231109 L 21.348247068190673 60.32788429437863 L 20.80680859886833 60.404810240113335 L 20.20531180251068 60.51336622360597 L 19.545455020710342 60.65814276780304 L 18.829195510617957 60.843644248558356 L 18.05874525147292 61.074275969125765 L 17.236566147361017 61.35433143249749 L 16.365364635306406 61.68797983863204 L 15.448085708982049 62.07925383320491 L 14.48790636948113 62.53203753405395 L 13.488228515730789 63.050054860981206 L 12.452671288243941 63.63685819401372 L 11.385062880997957 64.29581738461977"/>
  <path d="M36.217465372188 74.1865330998058 A 32.82983545106381 32.82983545106381, 0, 0, 0, 40.04811556148675 84.71115799673369"/>
  <path d="M22.12614356593879 101.9849437183988 A 57.291666666666664 57.291666666666664, 0, 0, 0, 27.38302113647027 108.24984644890762"/>
  <path d="M57.20604378765101 37.57013763072431 L 52.71453926582275 25.348497486093933 L 52.70419984711341 25.318034524238712 L 52.67624180163255 25.225665235062998 L 52.63531396607232 25.07011352437589 L 52.586132787590934 24.8503655758039 L 52.5334691687882 24.565673002076018 L 52.48213517611384 24.2155553778327 L 52.4369706396156 23.79980214832417 L 52.40282967215692 23.318473909588157 L 52.384567136407675 22.77190305692831 L 52.38702508802709 22.160693799754952 L 52.41501922352589 21.485721542091554 L 52.47332536130483 20.748131629296175 L 52.56666598432657 19.949337462791163 L 52.69969687278363 19.091017985836956 L 52.87699385497614 18.17511454462288 L 53.10303970441506 17.2038271301779 L 53.38221121091096 16.179610007825538 L 53.71876645310584 15.10516674211678 L 54.11683229954675 13.983444626369923 L 54.58039216499411 12.81762852712744"/>
  <path d="M47.50649701626229 43.17017357020296 L 39.167998436014784 33.16959648077183 L 39.14678644652831 33.14541080058156 L 39.08077131831307 33.07501377836712 L 38.966523503036015 32.96179337770649 L 38.800806786383845 32.809327253467565 L 38.5805875946681 32.62137293486524 L 38.30304383409791 32.4018575810099 L 37.96557324388722 32.154867330298 L 37.56580124531235 31.884636265801007 L 37.10158826981542 31.59553501957472 L 36.571036550265376 31.292059039531722 L 35.97249636052974 30.978816543198967 L 35.30457168958432 30.660516183314385 L 34.56612533748529 30.341954450803783 L 33.756283421651446 30.028002841218516 L 32.87443928305021 29.723594811204507 L 31.920256783045296 29.433712552016154 L 30.893672982849182 29.163373607478214 L 29.794900198722864 28.917617364141407 L 28.624427427278782 28.701491441664785 L 27.383021136470255 28.52003801169583"/>
  <path d="M47.50649701626229 93.59971089040047 A 32.82983545106381 32.82983545106381, 0, 0, 0, 57.20604378765101 99.19974682987913"/>
  <path d="M54.58039216499411 123.952255933476 A 57.291666666666664 57.291666666666664, 0, 0, 0, 62.63439586711893 125.37239408888647"/>
  <path d="M79.66286474452704 37.5001383381269 L 84.07809151935271 25.250735364050698 L 84.08975227954028 25.22075333116284 L 84.1277090087569 25.13202326524879 L 84.19634318005231 24.986555836069876 L 84.29991947016671 24.786606089021888 L 84.4425736565904 24.534667403272756 L 84.62830080755558 24.23346488833632 L 84.86094378996032 23.885948232704244 L 85.14418211960763 23.49528401923913 L 85.48152117748522 23.064847523087174 L 85.87628181510148 22.59821400889281 L 86.33159037114842 22.099149545092814 L 86.85036912096837 21.571601354028274 L 87.43532717947073 21.01968771754006 L 88.08895187727525 20.447687458604285 L 88.81350062894725 19.860029020416853 L 89.61099331124976 19.261279165150277 L 90.483205168355 18.656131315378033 L 91.43166025994968 18.04939356189316 L 92.45762546712464 17.44597636233322 L 93.56210506986973 16.850879955667388"/>
  <path d="M68.63294712383589 35.55526626660734 L 68.67353366528324 22.534496188493762 L 68.67283059416773 22.50233407856225 L 68.66751040567493 22.405973124414125 L 68.65276817235187 22.24580418554651 L 68.62382513798626 22.022487706127436 L 68.5759421570889 21.736952176951846 L 68.50443305117595 21.39039196951134 L 68.40467785369994 20.984264546427895 L 68.27213591568817 20.520287053728296 L 68.10235884440422 20.00043230165273 L 67.8910032476648 19.426924141896038 L 67.63384325680441 18.802232250370125 L 67.32678280169716 18.129066325750095 L 66.96586761170832 17.410369715222522 L 66.54729691696154 16.64931247998865 L 66.06743482487111 15.849283914188057 L 65.5228213474952 15.013884531995153 L 64.91018305592374 14.146917538702226 L 64.2264433386134 13.252379802635097 L 63.46873224132666 12.334452345748197 L 62.63439586711898 11.397490371716955"/>
  <path d="M68.63294712383589 101.2146181939961 A 32.82983545106381 32.82983545106381, 0, 0, 0, 79.66286474452704 99.26974612247653"/>
  <path d="M93.56210506986973 119.91900450493605 A 57.291666666666664 57.291666666666664, 0, 0, 0, 100.64467706108307 115.82987965925412"/>
  <path d="M96.91078232662817 51.88148203303932 L 108.16680672038714 45.3359480180374 L 108.19501146018487 45.3204758405183 L 108.28112258865647 45.276902781831936 L 108.42720407527456 45.20958546096442 L 108.63507333671797 45.122992624278105 L 108.90629584911576 45.021692737556336 L 109.24218034565652 44.91034133615862 L 109.64377460995829 44.79366815979066 L 110.11186187442624 44.676464098825875 L 110.64695783164372 44.563567979500114 L 111.24930826564038 44.459853215630126 L 111.91888730867018 44.37021435478924 L 112.65539632790677 44.299553547099705 L 113.45826344523185 44.25276696497794 L 114.32664369205173 44.23473120229143 L 115.25941979983348 44.25028968145458 L 116.25520362580633 44.30423909700906 L 117.31233821202633 44.40131592419456 L 118.42890047475946 44.546183020928154 L 119.60270451989813 44.743416351464404 L 120.83130557889304 44.997491859814026"/>
  <path d="M89.71151489523578 43.30172920763096 L 98.11219566456555 33.35332917012456 L 98.13233048660979 33.32823963913079 L 98.19019461316252 33.251003114427604 L 98.28185601660697 33.11883046392863 L 98.40322943197359 32.929155891935814 L 98.55008764081656 32.67964439966214 L 98.71807309495267 32.368198711285565 L 98.9027098557659 31.99296565069485 L 99.0994158241525 31.552341955162234 L 99.30351523559726 31.044979513275564 L 99.51025139433865 30.469790015588558 L 99.71479962009204 29.82594900759149 L 99.91228038036448 29.112899335771623 L 100.09777258100715 28.330353978716033 L 100.26632698731454 27.478298256408515 L 100.41297974769714 26.55699141208654 L 100.532765991719 25.5669675622471 L 100.62073347411467 24.50903601162583 L 100.67195623627033 23.384280931213702 L 100.68154825658223 22.194060398621254 L 100.64467706108312 20.940004801349346"/>
  <path d="M89.71151489523578 93.46815525297248 A 32.82983545106381 32.82983545106381, 0, 0, 0, 96.91078232662817 84.88840242756412"/>
  <path d="M120.83130557889304 91.7723926007894 A 57.291666666666664 57.291666666666664, 0, 0, 0, 123.62843171048641 84.08735171487017"/>
  <circle cx="68.53061500398361" cy="68.38494223030172" r="31.25"/>
</svg>
