<?xml version='1.0' encoding='ASCII'?>
<svg version="1.1" xmlns="http://www.w3.org/2000/svg" width="222.588524954983" height="222.588524954983">
  <path d="M179.4765187279945 117.79510450898472 L 192.43856841597201 119.0309720507733 L 192.47124505908124 119.03471329150489 L 192.56895937606342 119.04840844540482 L 192.73111969049663 119.07574793332292 L 192.95697739006766 119.12039510580671 L 193.24562802917785 119.1859803129326 L 193.59601264157305 119.2760950161268 L 194.00691926146834 119.3942859491149 L 194.47698465140127 119.54404933508525 L 195.0046962348154 119.72882516708962 L 195.588394231142 119.95199155863537 L 196.22627399091897 120.21685917134675 L 196.91638852825992 120.52666572648903 L 197.6566512477604 120.88457060705734 L 198.44483886270874 121.29364955703393 L 199.2785945012501 121.75688948431119 L 200.15543099693895 122.2771833736656 L 201.07273435990322 122.85732531604722 L 202.02776742463857 123.50000566032367 L 203.0176736702465 124.20780629348323 L 204.0394812087344 124.98319605516325"/>
  <path d="M179.4765187279945 104.79342044599828 L 192.43856841597201 103.5575529042097 L 192.47124505908124 103.55381166347811 L 192.56895937606342 103.54011650957818 L 192.73111969049663 103.51277702166009 L 192.95697739006766 103.4681298491763 L 193.24562802917785 103.4025446420504 L 193.59601264157305 103.3124299388562 L 194.00691926146834 103.1942390058681 L 194.47698465140127 103.04447561989775 L 195.0046962348154 102.85969978789338 L 195.588394231142 102.63653339634763 L 196.22627399091897 102.37166578363625 L 196.91638852825992 102.06185922849397 L 197.6566512477604 101.70395434792566 L 198.44483886270874 101.29487539794907 L 199.2785945012501 100.83163547067181 L 200.15543099693895 100.31134158131741 L 201.07273435990322 99.73119963893578 L 202.02776742463857 99.08851929465933 L 203.0176736702465 98.38071866149977 L 204.0394812087344 97.60532889981975"/>
  <path d="M179.4765187279945 117.79510450898472 A 68.49146672781714 68.49146672781714, 0, 0, 0, 179.4765187279945 104.79342044599828"/>
  <path d="M204.0394812087344 97.60532889981975 A 93.75 93.75, 0, 0, 0, 202.2181998884904 88.44912939228588"/>
  <path d="M171.7986889658959 143.39247722281576 L 183.30111533917238 149.49463161465133 L 183.32987291008772 149.51059288033267 L 183.41490825907965 149.56063920292934 L 183.55426248549452 149.64795366196694 L 183.74584205817678 149.7756342705071 L 183.98742210352165 149.94668891833533 L 184.27664987149558 150.16403043431407 L 184.61104837547992 150.43047177391327 L 184.98802020159513 150.7487213377864 L 185.40485148297103 151.12137842711775 L 185.85871603423976 151.55092884131017 L 186.34667964134616 152.03974062342698 L 186.86570450159292 152.59005995863544 L 187.41265380866446 153.2040072307288 L 187.98429647720877 153.88357324162945 L 188.57731200139398 154.63061559859366 L 189.1882954417031 155.44685527365206 L 189.81376253408 156.333873339629 L 190.45015491539925 157.2931078868884 L 191.09384545909384 158.32585112475192 L 191.74114371464808 159.43324667133197"/>
  <path d="M176.77421804964604 131.3804874288444 L 189.22253648860305 135.19905636717297 L 189.2541574812073 135.20810472137808 L 189.34967464720165 135.2328456992093 L 189.50995361176768 135.2696433716131 L 189.73570465087295 135.31482676246878 L 190.02748144056847 135.3646957492987 L 190.3856800163922 135.41552700555857 L 190.81053794419716 135.4635799773255 L 191.3021337034839 135.50510288716347 L 191.8603862840789 135.53633875791164 L 192.48505499675812 135.553531449117 L 193.17573949817404 135.55293169881548 L 193.93188003020288 135.5308031633564 L 194.75275787358663 135.4834284479638 L 195.63749601550163 135.4071151207353 L 196.58506003044485 135.2982017027926 L 197.59425917358743 135.15306362732053 L 198.66374768550347 134.968119160262 L 199.79202630694527 134.73983527547279 L 200.97744400209524 134.46473347718702 L 202.21819988849037 134.13939556269713"/>
  <path d="M176.77421804964604 91.20803752613861 A 68.49146672781714 68.49146672781714, 0, 0, 0, 171.7986889658959 79.19604773216724"/>
  <path d="M191.7411437146481 63.15527828365102 A 93.75 93.75, 0, 0, 0, 186.5545733249669 55.39302714998396"/>
  <path d="M154.90960874492964 164.1031877127124 L 163.20127165792846 174.14263126460534 L 163.22173207716605 174.16838259722567 L 163.28114259713112 174.2471609895748 L 163.37647531780516 174.38115758485094 L 163.50461051033093 174.5724334142249 L 163.66234158993532 174.82291598323778 L 163.84638020767017 175.1343960363991 L 164.0533614548419 175.50852450395212 L 164.2798491738715 175.9468096345679 L 164.52234136920464 176.45061431752038 L 164.77727571177724 177.02115359768288 L 165.04103513043225 177.65949238646772 L 165.3099534835843 178.36654337161406 L 165.5803213043331 179.1430651285021 L 165.8483916121412 179.9896604354484 L 166.1103857841122 180.90677479520764 L 166.3624994788332 181.89469516467346 L 166.6009086056817 182.95354889453955 L 166.82177533244027 184.08330288044448 L 167.0212541240133 185.28376292688802 L 167.19549780499904 186.5545733249669"/>
  <path d="M164.1031877127124 154.90960874492964 L 174.14263126460534 163.20127165792846 L 174.16838259722567 163.22173207716605 L 174.2471609895748 163.28114259713112 L 174.38115758485094 163.37647531780513 L 174.5724334142249 163.5046105103309 L 174.82291598323778 163.66234158993532 L 175.1343960363991 163.84638020767017 L 175.50852450395212 164.0533614548419 L 175.9468096345679 164.27984917387147 L 176.4506143175204 164.52234136920464 L 177.02115359768288 164.77727571177724 L 177.65949238646772 165.04103513043225 L 178.36654337161406 165.3099534835843 L 179.1430651285021 165.5803213043331 L 179.9896604354484 165.8483916121412 L 180.90677479520764 166.1103857841122 L 181.89469516467346 166.3624994788332 L 182.95354889453955 166.6009086056817 L 184.08330288044448 166.82177533244024 L 185.28376292688802 167.0212541240133 L 186.5545733249669 167.19549780499904"/>
  <path d="M164.1031877127124 67.67891621005336 A 68.49146672781714 68.49146672781714, 0, 0, 0, 154.90960874492964 58.48533724227059"/>
  <path d="M167.19549780499906 36.033951630016105 A 93.75 93.75, 0, 0, 0, 159.433246671332 30.84738124033491"/>
  <path d="M131.3804874288444 176.77421804964604 L 135.19905636717297 189.22253648860305 L 135.20810472137808 189.2541574812073 L 135.2328456992093 189.34967464720165 L 135.2696433716131 189.50995361176768 L 135.31482676246878 189.73570465087295 L 135.3646957492987 190.02748144056847 L 135.41552700555857 190.3856800163922 L 135.4635799773255 190.81053794419716 L 135.50510288716347 191.3021337034839 L 135.53633875791164 191.8603862840789 L 135.553531449117 192.48505499675812 L 135.55293169881548 193.17573949817404 L 135.5308031633564 193.93188003020288 L 135.4834284479638 194.75275787358663 L 135.4071151207353 195.63749601550163 L 135.2982017027926 196.58506003044485 L 135.15306362732056 197.59425917358743 L 134.96811916026203 198.66374768550347 L 134.73983527547279 199.79202630694527 L 134.46473347718702 200.97744400209524 L 134.13939556269713 202.21819988849037"/>
  <path d="M143.39247722281576 171.7986889658959 L 149.49463161465135 183.30111533917238 L 149.51059288033267 183.32987291008772 L 149.56063920292934 183.41490825907965 L 149.64795366196694 183.55426248549452 L 149.7756342705071 183.74584205817678 L 149.94668891833533 183.98742210352165 L 150.16403043431407 184.27664987149558 L 150.43047177391327 184.6110483754799 L 150.74872133778644 184.9880202015951 L 151.12137842711775 185.40485148297103 L 151.55092884131017 185.85871603423976 L 152.039740623427 186.34667964134616 L 152.59005995863544 186.86570450159292 L 153.2040072307288 187.41265380866446 L 153.88357324162945 187.98429647720877 L 154.63061559859364 188.57731200139398 L 155.44685527365206 189.1882954417031 L 156.333873339629 189.81376253408 L 157.2931078868884 190.45015491539925 L 158.32585112475195 191.09384545909384 L 159.43324667133197 191.74114371464808"/>
  <path d="M143.39247722281576 50.78983598908711 A 68.49146672781714 68.49146672781714, 0, 0, 0, 131.3804874288444 45.81430690533698"/>
  <path d="M134.13939556269713 20.37032506649261 A 93.75 93.75, 0, 0, 0, 124.98319605516326 18.549043746248586"/>
  <path d="M104.79342044599828 179.4765187279945 L 103.55755290420971 192.43856841597201 L 103.55381166347811 192.47124505908124 L 103.54011650957818 192.56895937606342 L 103.5127770216601 192.73111969049663 L 103.46812984917631 192.95697739006766 L 103.4025446420504 193.24562802917785 L 103.31242993885621 193.59601264157305 L 103.1942390058681 194.00691926146834 L 103.04447561989775 194.47698465140127 L 102.85969978789339 195.0046962348154 L 102.63653339634763 195.588394231142 L 102.37166578363625 196.22627399091897 L 102.06185922849399 196.91638852825992 L 101.70395434792567 197.6566512477604 L 101.29487539794907 198.44483886270874 L 100.83163547067183 199.2785945012501 L 100.31134158131742 200.15543099693895 L 99.73119963893578 201.07273435990322 L 99.08851929465933 202.02776742463857 L 98.38071866149978 203.0176736702465 L 97.60532889981975 204.0394812087344"/>
  <path d="M117.79510450898472 179.4765187279945 L 119.0309720507733 192.43856841597201 L 119.0347132915049 192.47124505908124 L 119.04840844540482 192.56895937606342 L 119.07574793332292 192.73111969049663 L 119.12039510580671 192.95697739006766 L 119.1859803129326 193.24562802917785 L 119.2760950161268 193.59601264157305 L 119.3942859491149 194.00691926146834 L 119.54404933508525 194.47698465140127 L 119.72882516708962 195.0046962348154 L 119.95199155863538 195.588394231142 L 120.21685917134677 196.22627399091897 L 120.52666572648903 196.91638852825992 L 120.88457060705734 197.6566512477604 L 121.29364955703394 198.44483886270874 L 121.75688948431119 199.2785945012501 L 122.2771833736656 200.15543099693895 L 122.85732531604722 201.07273435990322 L 123.50000566032368 202.02776742463857 L 124.20780629348323 203.0176736702465 L 124.98319605516326 204.0394812087344"/>
  <path d="M117.79510450898472 43.11200622698851 A 68.49146672781714 68.49146672781714, 0, 0, 0, 104.79342044599828 43.11200622698851"/>
  <path d="M97.60532889981975 18.549043746248586 A 93.75 93.75, 0, 0, 0, 88.4491293922859 20.37032506649261"/>
  <path d="M79.19604773216726 171.7986889658959 L 73.09389334033168 183.30111533917238 L 73.07793207465033 183.32987291008772 L 73.02788575205366 183.41490825907965 L 72.94057129301606 183.55426248549452 L 72.81289068447589 183.74584205817678 L 72.64183603664767 183.98742210352165 L 72.42449452066893 184.27664987149558 L 72.15805318106973 184.61104837547992 L 71.8398036171966 184.98802020159513 L 71.46714652786525 185.40485148297103 L 71.03759611367283 185.85871603423973 L 70.54878433155602 186.34667964134616 L 69.99846499634755 186.86570450159292 L 69.38451772425421 187.41265380866446 L 68.70495171335357 187.98429647720877 L 67.95790935638934 188.57731200139398 L 67.14166968133092 189.18829544170308 L 66.25465161535399 189.81376253408 L 65.2954170680946 190.45015491539925 L 64.26267383023108 191.09384545909387 L 63.15527828365103 191.7411437146481"/>
  <path d="M91.20803752613861 176.77421804964604 L 87.38946858781003 189.22253648860305 L 87.38042023360494 189.2541574812073 L 87.35567925577372 189.34967464720165 L 87.31888158336989 189.50995361176768 L 87.27369819251423 189.73570465087295 L 87.2238292056843 190.02748144056847 L 87.17299794942444 190.3856800163922 L 87.12494497765749 190.81053794419716 L 87.08342206781953 191.3021337034839 L 87.05218619707136 191.8603862840789 L 87.034993505866 192.48505499675812 L 87.03559325616752 193.17573949817404 L 87.05772179162659 193.93188003020288 L 87.1050965070192 194.75275787358663 L 87.1814098342477 195.63749601550163 L 87.29032325219042 196.58506003044485 L 87.43546132766247 197.59425917358743 L 87.62040579472098 198.66374768550347 L 87.84868967951022 199.79202630694527 L 88.12379147779598 200.97744400209524 L 88.4491293922859 202.21819988849037"/>
  <path d="M91.20803752613861 45.81430690533698 A 68.49146672781714 68.49146672781714, 0, 0, 0, 79.19604773216726 50.7898359890871"/>
  <path d="M63.15527828365105 30.847381240334897 A 93.75 93.75, 0, 0, 0, 55.39302714998396 36.033951630016105"/>
  <path d="M58.485337242270596 154.90960874492967 L 48.445893690377666 163.2012716579285 L 48.420142357757356 163.22173207716605 L 48.34136396540821 163.28114259713112 L 48.20736737013207 163.37647531780513 L 48.01609154075813 163.50461051033093 L 47.76560897174523 163.6623415899353 L 47.45412891858393 163.84638020767017 L 47.080000451030884 164.05336145484193 L 46.64171532041513 164.27984917387153 L 46.13791063746261 164.52234136920464 L 45.56737135730012 164.77727571177724 L 44.9290325685153 165.04103513043228 L 44.22198158336893 165.3099534835843 L 43.44545982648093 165.5803213043331 L 42.59886451953459 165.8483916121412 L 41.681750159775376 166.1103857841122 L 40.69382979030952 166.3624994788332 L 39.63497606044346 166.6009086056817 L 38.50522207453855 166.82177533244027 L 37.304762028095 167.0212541240133 L 36.03395163001612 167.19549780499904"/>
  <path d="M67.67891621005336 164.1031877127124 L 59.387253297054535 174.14263126460534 L 59.36679287781695 174.16838259722567 L 59.30738235785187 174.2471609895748 L 59.21204963717787 174.38115758485094 L 59.08391444465207 174.5724334142249 L 58.9261833650477 174.82291598323778 L 58.742144747312835 175.1343960363991 L 58.53516350014109 175.50852450395212 L 58.30867578111151 175.9468096345679 L 58.066183585778354 176.4506143175204 L 57.81124924320578 177.02115359768288 L 57.54748982455072 177.65949238646772 L 57.278571471398685 178.36654337161409 L 57.00820365064991 179.1430651285021 L 56.7401333428418 179.9896604354484 L 56.47813917087082 180.90677479520764 L 56.226025476149815 181.8946951646735 L 55.98761634930131 182.95354889453955 L 55.766749622542754 184.08330288044448 L 55.567270830969726 185.28376292688802 L 55.393027149983965 186.5545733249669"/>
  <path d="M67.67891621005339 58.485337242270575 A 68.49146672781714 68.49146672781714, 0, 0, 0, 58.48533724227058 67.67891621005336"/>
  <path d="M36.033951630016105 55.39302714998394 A 93.75 93.75, 0, 0, 0, 30.847381240334897 63.15527828365104"/>
  <path d="M45.81430690533698 131.38048742884442 L 33.365988466379974 135.199056367173 L 33.334367473775714 135.20810472137808 L 33.23885030778136 135.2328456992093 L 33.07857134321533 135.2696433716131 L 32.85282030411007 135.31482676246878 L 32.56104351441455 135.3646957492987 L 32.2028449385908 135.41552700555857 L 31.777987010785836 135.4635799773255 L 31.286391251499126 135.5051028871635 L 30.7281386709041 135.53633875791166 L 30.103469958224878 135.553531449117 L 29.412785456808976 135.5529316988155 L 28.656644924780124 135.5308031633564 L 27.835767081396384 135.4834284479638 L 26.951028939481375 135.4071151207353 L 26.003464924538136 135.2982017027926 L 24.99426578139557 135.15306362732053 L 23.924777269479534 134.96811916026203 L 22.796498648037726 134.73983527547279 L 21.611080952887775 134.46473347718705 L 20.370325066492626 134.13939556269713"/>
  <path d="M50.78983598908711 143.39247722281576 L 39.28740961581063 149.49463161465133 L 39.2586520448953 149.5105928803327 L 39.17361669590335 149.56063920292934 L 39.03426246948851 149.64795366196694 L 38.84268289680624 149.7756342705071 L 38.60110285146136 149.94668891833533 L 38.311875083487436 150.1640304343141 L 37.977476579503104 150.43047177391327 L 37.60050475338788 150.7487213377864 L 37.183673472011975 151.12137842711775 L 36.72980892074327 151.55092884131017 L 36.241845313636844 152.03974062342698 L 35.7228204533901 152.59005995863546 L 35.17587114631854 153.2040072307288 L 34.60422847777424 153.88357324162945 L 34.01121295358905 154.6306155985937 L 33.400229513279925 155.4468552736521 L 32.77476242090299 156.333873339629 L 32.13837003958376 157.2931078868884 L 31.494679495889145 158.32585112475192 L 30.847381240334926 159.43324667133197"/>
  <path d="M50.78983598908711 79.19604773216724 A 68.49146672781714 68.49146672781714, 0, 0, 0, 45.81430690533698 91.20803752613858"/>
  <path d="M20.37032506649261 88.44912939228583 A 93.75 93.75, 0, 0, 0, 18.5490437462486 97.60532889981974"/>
  <path d="M43.11200622698851 104.79342044599831 L 30.149956539010986 103.55755290420973 L 30.11727989590176 103.55381166347811 L 30.019565578919583 103.5401165095782 L 29.857405264486374 103.51277702166009 L 29.631547564915337 103.46812984917631 L 29.342896925805164 103.4025446420504 L 28.992512313409947 103.31242993885621 L 28.581605693514646 103.19423900586811 L 28.111540303581734 103.04447561989778 L 27.583828720167574 102.85969978789339 L 27.000130723840996 102.63653339634762 L 26.36225096406403 102.37166578363627 L 25.67213642672307 102.06185922849397 L 24.931873707222593 101.70395434792565 L 24.143686092274265 101.29487539794908 L 23.309930453732903 100.83163547067181 L 22.43309395804407 100.31134158131741 L 21.51579059507978 99.73119963893579 L 20.560757530344418 99.08851929465933 L 19.57085128473649 98.38071866149977 L 18.5490437462486 97.60532889981977"/>
  <path d="M43.11200622698851 117.7951045089847 L 30.149956539010986 119.03097205077329 L 30.11727989590176 119.0347132915049 L 30.019565578919583 119.04840844540483 L 29.857405264486374 119.07574793332293 L 29.631547564915337 119.12039510580671 L 29.342896925805164 119.18598031293263 L 28.992512313409947 119.27609501612682 L 28.581605693514646 119.3942859491149 L 28.111540303581734 119.54404933508523 L 27.583828720167574 119.72882516708964 L 27.000130723840996 119.9519915586354 L 26.36225096406403 120.21685917134675 L 25.67213642672307 120.52666572648906 L 24.931873707222593 120.88457060705737 L 24.143686092274265 121.29364955703394 L 23.309930453732917 121.75688948431122 L 22.43309395804407 122.27718337366562 L 21.515790595079793 122.85732531604724 L 20.560757530344418 123.50000566032368 L 19.57085128473649 124.20780629348326 L 18.549043746248614 124.98319605516326"/>
  <path d="M43.11200622698853 104.79342044599825 A 68.49146672781714 68.49146672781714, 0, 0, 0, 43.11200622698853 117.79510450898474"/>
  <path d="M18.549043746248586 124.98319605516323 A 93.75 93.75, 0, 0, 0, 20.37032506649261 134.13939556269716"/>
  <path d="M50.7898359890871 79.19604773216726 L 39.28740961581062 73.09389334033168 L 39.258652044895285 73.07793207465033 L 39.173616695903334 73.02788575205366 L 39.034262469488496 72.94057129301606 L 38.842682896806224 72.81289068447589 L 38.60110285146135 72.64183603664767 L 38.31187508348742 72.42449452066893 L 37.97747657950309 72.15805318106976 L 37.60050475338788 71.8398036171966 L 37.18367347201196 71.46714652786525 L 36.72980892074325 71.03759611367283 L 36.24184531363683 70.54878433155604 L 35.722820453390085 69.99846499634756 L 35.17587114631854 69.38451772425422 L 34.60422847777423 68.70495171335357 L 34.01121295358904 67.95790935638934 L 33.40022951327991 67.14166968133094 L 32.77476242090299 66.25465161535399 L 32.13837003958375 65.29541706809461 L 31.494679495889145 64.26267383023108 L 30.84738124033491 63.15527828365103"/>
  <path d="M45.81430690533698 91.2080375261386 L 33.36598846637996 87.38946858781001 L 33.334367473775714 87.38042023360494 L 33.23885030778136 87.35567925577374 L 33.078571343215316 87.31888158336992 L 32.85282030411007 87.27369819251423 L 32.561043514414536 87.22382920568432 L 32.2028449385908 87.17299794942444 L 31.777987010785836 87.12494497765749 L 31.286391251499126 87.08342206781951 L 30.7281386709041 87.05218619707136 L 30.103469958224863 87.03499350586603 L 29.412785456808976 87.0355932561675 L 28.65664492478011 87.05772179162662 L 27.83576708139637 87.10509650701923 L 26.951028939481375 87.1814098342477 L 26.003464924538136 87.29032325219043 L 24.994265781395555 87.4354613276625 L 23.924777269479534 87.620405794721 L 22.796498648037726 87.84868967951022 L 21.611080952887775 88.12379147779596 L 20.37032506649261 88.4491293922859"/>
  <path d="M45.81430690533698 131.38048742884442 A 68.49146672781714 68.49146672781714, 0, 0, 0, 50.7898359890871 143.39247722281573"/>
  <path d="M30.847381240334883 159.43324667133194 A 93.75 93.75, 0, 0, 0, 36.03395163001609 167.19549780499904"/>
  <path d="M67.67891621005336 58.48533724227058 L 59.38725329705454 48.44589369037765 L 59.366792877816906 48.42014235775737 L 59.307382357851864 48.34136396540821 L 59.21204963717783 48.2073673701321 L 59.08391444465205 48.01609154075813 L 58.92618336504766 47.76560897174526 L 58.74214474731283 47.45412891858393 L 58.535163500141046 47.08000045103091 L 58.30867578111149 46.64171532041513 L 58.06618358577835 46.13791063746261 L 57.81124924320576 45.56737135730013 L 57.54748982455074 44.92903256851528 L 57.27857147139864 44.22198158336896 L 57.0082036506499 43.44545982648093 L 56.74013334284175 42.598864519534615 L 56.4781391708708 41.681750159775376 L 56.22602547614979 40.693829790309536 L 55.987616349301334 39.63497606044345 L 55.76674962254273 38.50522207453855 L 55.56727083096972 37.304762028095 L 55.393027149983915 36.03395163001615"/>
  <path d="M58.48533724227059 67.67891621005336 L 48.445893690377666 59.387253297054535 L 48.42014235775733 59.36679287781695 L 48.3413639654082 59.307382357851886 L 48.20736737013207 59.21204963717787 L 48.016091540758104 59.08391444465208 L 47.765608971745216 58.926183365047706 L 47.454128918583905 58.74214474731284 L 47.08000045103087 58.535163500141095 L 46.641715320415116 58.30867578111151 L 46.137910637462596 58.06618358577836 L 45.56737135730012 57.81124924320578 L 44.92903256851528 57.54748982455072 L 44.221981583368915 57.2785714713987 L 43.44545982648091 57.00820365064991 L 42.59886451953459 56.74013334284181 L 41.68175015977536 56.47813917087082 L 40.69382979030951 56.226025476149815 L 39.63497606044346 55.98761634930132 L 38.50522207453854 55.76674962254276 L 37.304762028094984 55.56727083096974 L 36.033951630016105 55.39302714998398"/>
  <path d="M58.48533724227057 154.9096087449296 A 68.49146672781714 68.49146672781714, 0, 0, 0, 67.67891621005336 164.1031877127124"/>
  <path d="M55.39302714998398 186.5545733249669 A 93.75 93.75, 0, 0, 0, 63.155278283651 191.74114371464808"/>
  <path d="M91.20803752613858 45.81430690533698 L 87.38946858781 33.365988466379974 L 87.38042023360485 33.33436747377573 L 87.35567925577368 33.23885030778138 L 87.3188815833698 33.07857134321533 L 87.27369819251417 32.85282030411008 L 87.22382920568424 32.561043514414564 L 87.17299794942438 32.2028449385908 L 87.1249449776574 31.77798701078585 L 87.08342206781946 31.28639125149914 L 87.05218619707131 30.728138670904116 L 87.03499350586597 30.103469958224878 L 87.03559325616747 29.412785456808976 L 87.05772179162652 28.65664492478014 L 87.10509650701916 27.835767081396384 L 87.1814098342476 26.951028939481404 L 87.29032325219038 26.003464924538164 L 87.43546132766242 24.994265781395583 L 87.62040579472097 23.92477726947955 L 87.84868967951016 22.79649864803774 L 88.12379147779593 21.611080952887775 L 88.44912939228578 20.37032506649264"/>
  <path d="M79.19604773216719 50.789835989087145 L 73.0938933403316 39.28740961581066 L 73.07793207465032 39.2586520448953 L 73.0278857520536 39.17361669590336 L 72.94057129301605 39.03426246948851 L 72.81289068447583 38.84268289680625 L 72.64183603664765 38.60110285146138 L 72.42449452066887 38.31187508348745 L 72.15805318106973 37.977476579503104 L 71.83980361719657 37.60050475338791 L 71.4671465278652 37.18367347201199 L 71.03759611367278 36.729808920743295 L 70.54878433155594 36.24184531363689 L 69.99846499634754 35.7228204533901 L 69.38451772425417 35.17587114631857 L 68.70495171335355 34.60422847777424 L 67.95790935638928 34.01121295358905 L 67.14166968133088 33.40022951327994 L 66.25465161535391 32.77476242090303 L 65.29541706809454 32.13837003958379 L 64.262673830231 31.494679495889187 L 63.15527828365101 30.84738124033494"/>
  <path d="M79.19604773216719 171.79868896589585 A 68.49146672781714 68.49146672781714, 0, 0, 0, 91.20803752613858 176.77421804964604"/>
  <path d="M88.44912939228587 202.2181998884904 A 93.75 93.75, 0, 0, 0, 97.6053288998197 204.0394812087344"/>
  <path d="M117.79510450898472 43.11200622698851 L 119.0309720507733 30.149956539010986 L 119.03471329150484 30.117279895901746 L 119.0484084454048 30.019565578919583 L 119.07574793332287 29.857405264486374 L 119.12039510580668 29.631547564915337 L 119.18598031293257 29.342896925805164 L 119.27609501612679 28.992512313409947 L 119.39428594911485 28.581605693514646 L 119.54404933508522 28.111540303581734 L 119.72882516708961 27.583828720167574 L 119.95199155863537 27.000130723840996 L 120.21685917134677 26.362250964064046 L 120.52666572648899 25.67213642672307 L 120.88457060705734 24.931873707222593 L 121.29364955703389 24.14368609227425 L 121.75688948431119 23.309930453732903 L 122.2771833736656 22.43309395804407 L 122.85732531604725 21.515790595079793 L 123.50000566032365 20.560757530344418 L 124.20780629348323 19.57085128473649 L 124.98319605516319 18.5490437462486"/>
  <path d="M104.79342044599825 43.11200622698853 L 103.55755290420967 30.149956539011 L 103.55381166347813 30.11727989590176 L 103.54011650957817 30.019565578919583 L 103.5127770216601 29.857405264486374 L 103.4681298491763 29.631547564915337 L 103.4025446420504 29.342896925805164 L 103.31242993885618 28.992512313409947 L 103.19423900586813 28.581605693514646 L 103.04447561989775 28.111540303581734 L 102.85969978789336 27.583828720167574 L 102.63653339634759 27.000130723840996 L 102.3716657836362 26.362250964064046 L 102.06185922849397 25.67213642672307 L 101.70395434792562 24.931873707222593 L 101.29487539794908 24.14368609227425 L 100.83163547067178 23.309930453732917 L 100.31134158131738 22.43309395804407 L 99.73119963893572 21.515790595079793 L 99.0885192946593 20.560757530344418 L 98.38071866149974 19.57085128473649 L 97.60532889981978 18.5490437462486"/>
  <path d="M104.79342044599825 179.47651872799446 A 68.49146672781714 68.49146672781714, 0, 0, 0, 117.79510450898472 179.4765187279945"/>
  <path d="M124.98319605516328 204.0394812087344 A 93.75 93.75, 0, 0, 0, 134.1393955626971 202.2181998884904"/>
  <path d="M143.39247722281578 50.78983598908713 L 149.49463161465138 39.287409615810645 L 149.51059288033267 39.258652044895285 L 149.56063920292937 39.17361669590335 L 149.64795366196694 39.034262469488496 L 149.77563427050714 38.84268289680624 L 149.94668891833533 38.60110285146135 L 150.1640304343141 38.311875083487436 L 150.43047177391324 37.97747657950309 L 150.74872133778644 37.60050475338788 L 151.12137842711778 37.183673472011975 L 151.5509288413102 36.72980892074328 L 152.03974062342704 36.24184531363687 L 152.59005995863544 35.722820453390085 L 153.2040072307288 35.175871146318556 L 153.88357324162942 34.604228477774214 L 154.6306155985937 34.01121295358905 L 155.4468552736521 33.400229513279925 L 156.33387333962906 32.774762420903016 L 157.29310788688844 32.13837003958376 L 158.32585112475198 31.494679495889173 L 159.43324667133197 30.84738124033491"/>
  <path d="M131.3804874288444 45.81430690533698 L 135.19905636717297 33.36598846637996 L 135.20810472137813 33.33436747377573 L 135.2328456992093 33.23885030778136 L 135.26964337161317 33.07857134321533 L 135.3148267624688 32.85282030411008 L 135.36469574929873 32.561043514414564 L 135.41552700555857 32.2028449385908 L 135.46357997732557 31.777987010785836 L 135.50510288716353 31.286391251499126 L 135.53633875791166 30.728138670904116 L 135.553531449117 30.103469958224878 L 135.55293169881548 29.412785456808976 L 135.53080316335644 28.656644924780124 L 135.4834284479638 27.835767081396384 L 135.40711512073537 26.95102893948139 L 135.2982017027926 26.00346492453815 L 135.15306362732056 24.99426578139557 L 134.968119160262 23.924777269479534 L 134.7398352754728 22.796498648037726 L 134.46473347718702 21.61108095288776 L 134.1393955626972 20.370325066492626"/>
  <path d="M131.3804874288444 176.77421804964604 A 68.49146672781714 68.49146672781714, 0, 0, 0, 143.39247722281578 171.79868896589588"/>
  <path d="M159.43324667133203 191.74114371464805 A 93.75 93.75, 0, 0, 0, 167.19549780499906 186.5545733249669"/>
  <path d="M164.1031877127124 67.67891621005336 L 174.14263126460534 59.38725329705454 L 174.16838259722562 59.36679287781689 L 174.24716098957478 59.30738235785186 L 174.3811575848509 59.21204963717783 L 174.57243341422486 59.08391444465205 L 174.82291598323775 58.92618336504765 L 175.13439603639907 58.742144747312814 L 175.5085245039521 58.53516350014104 L 175.94680963456784 58.30867578111149 L 176.45061431752038 58.06618358577833 L 177.02115359768288 57.81124924320576 L 177.65949238646772 57.54748982455074 L 178.36654337161406 57.27857147139864 L 179.14306512850206 57.0082036506499 L 179.98966043544837 56.74013334284175 L 180.90677479520764 56.4781391708708 L 181.89469516467346 56.22602547614979 L 182.95354889453955 55.98761634930132 L 184.08330288044445 55.76674962254273 L 185.28376292688802 55.567270830969704 L 186.55457332496684 55.393027149983915"/>
  <path d="M154.9096087449296 58.48533724227057 L 163.20127165792843 48.44589369037764 L 163.22173207716608 48.420142357757356 L 163.28114259713112 48.3413639654082 L 163.37647531780516 48.20736737013208 L 163.5046105103309 48.016091540758104 L 163.66234158993532 47.76560897174523 L 163.84638020767017 47.454128918583905 L 164.05336145484193 47.080000451030884 L 164.27984917387147 46.641715320415116 L 164.52234136920464 46.13791063746258 L 164.7772757117772 45.56737135730012 L 165.04103513043225 44.92903256851527 L 165.30995348358434 44.221981583368944 L 165.58032130433307 43.44545982648091 L 165.84839161214123 42.5988645195346 L 166.11038578411217 41.68175015977536 L 166.36249947883317 40.69382979030951 L 166.60090860568164 39.634976060443435 L 166.82177533244024 38.50522207453854 L 167.02125412401327 37.304762028094984 L 167.19549780499906 36.03395163001613"/>
  <path d="M154.9096087449296 164.10318771271244 A 68.49146672781714 68.49146672781714, 0, 0, 0, 164.1031877127124 154.90960874492964"/>
  <path d="M186.5545733249669 167.19549780499904 A 93.75 93.75, 0, 0, 0, 191.74114371464808 159.433246671332"/>
  <path d="M176.77421804964604 91.20803752613858 L 189.22253648860303 87.38946858780999 L 189.25415748120727 87.38042023360484 L 189.34967464720162 87.35567925577367 L 189.50995361176766 87.3188815833698 L 189.73570465087292 87.27369819251416 L 190.0274814405684 87.22382920568423 L 190.3856800163922 87.17299794942438 L 190.81053794419716 87.1249449776574 L 191.30213370348386 87.08342206781944 L 191.86038628407888 87.05218619707131 L 192.48505499675812 87.03499350586596 L 193.17573949817404 87.03559325616747 L 193.93188003020288 87.05772179162652 L 194.7527578735866 87.10509650701916 L 195.6374960155016 87.1814098342476 L 196.58506003044482 87.29032325219038 L 197.59425917358743 87.43546132766241 L 198.66374768550344 87.62040579472097 L 199.79202630694527 87.84868967951016 L 200.97744400209524 88.12379147779593 L 202.21819988849035 88.44912939228578"/>
  <path d="M171.79868896589585 79.19604773216719 L 183.30111533917233 73.09389334033159 L 183.32987291008772 73.0779320746503 L 183.41490825907962 73.0278857520536 L 183.55426248549446 72.94057129301603 L 183.74584205817675 72.81289068447583 L 183.98742210352162 72.64183603664765 L 184.27664987149555 72.42449452066887 L 184.6110483754799 72.15805318106973 L 184.98802020159508 71.83980361719655 L 185.40485148297103 71.4671465278652 L 185.8587160342397 71.03759611367278 L 186.3466796413461 70.54878433155594 L 186.86570450159292 69.99846499634752 L 187.4126538086644 69.38451772425415 L 187.98429647720877 68.70495171335354 L 188.57731200139395 67.95790935638928 L 189.18829544170308 67.14166968133087 L 189.81376253407996 66.2546516153539 L 190.4501549153992 65.29541706809454 L 191.0938454590938 64.262673830231 L 191.74114371464805 63.15527828365101"/>
  <path d="M171.79868896589585 143.3924772228158 A 68.49146672781714 68.49146672781714, 0, 0, 0, 176.77421804964604 131.38048742884442"/>
  <path d="M202.2181998884904 134.13939556269713 A 93.75 93.75, 0, 0, 0, 204.0394812087344 124.98319605516332"/>
  <circle cx="111.2942624774915" cy="111.2942624774915" r="31.25"/>
</svg>
